<?xml version="1.0" standalone="no"?> <!DOCTYPE svg PUBLIC "-//W3C//DTD SVG 1.0//EN" "http://www.w3.org/TR/2001/REC-SVG-20010904/DTD/svg10.dtd" > <svg xmlns="http://www.w3.org/2000/svg" width="100%" height="100%">
<defs >
<font horiz-adv-x="827" ><font-face
    font-family="FbShefaRegular"
    units-per-em="2048"
    panose-1="2 2 6 3 5 4 5 2 3 4"
    ascent="1681"
    descent="-484"
    alphabetic="0" />
<missing-glyph horiz-adv-x="1593" d="M284 0V1280H1308V0H284ZM316 32H1276V1248H316V32Z" />
<glyph unicode=" " glyph-name="space" horiz-adv-x="390" />
<glyph unicode="!" glyph-name="exclam" horiz-adv-x="516" d="M317 1083Q297 946 279 707Q260 479 260 381L190 330L178 340Q178 602 111 1059L119 1071Q231 1094 307 1112L317 1083ZM303 125Q322 106 322 92Q322 76 301 53L233 -18Q223 -32 207 -32Q186 -32
168 -12L111 53Q92 76 92 88Q92 102 111 123L172 190Q190 209 207 209Q225 209 246 188L303 125Z" />
<glyph unicode="&quot;" glyph-name="quotedbl" horiz-adv-x="616" d="M242 1124Q254 1100 256 1077Q256 1055 246 1026Q168 821 88 717L59 727L53 737Q102 866 102 967Q102 989 100 1001L84 1047Q78 1061 70 1083Q68 1094 82 1116L135 1192Q156 1223 172 1223Q190
1223 207 1190L242 1124ZM537 1124Q551 1100 551 1077Q551 1055 541 1026Q463 821 383 717L354 727L348 737Q399 866 399 967Q399 989 395 1001L379 1047Q373 1061 365 1083Q365 1094 379 1116L430 1192Q451 1223 467 1223Q485 1223 502 1190L537 1124Z" />
<glyph unicode="#" glyph-name="numbersign" horiz-adv-x="1009" d="M943 899L927 786H771L716 494H878L857 385H697L654 150H527L568 385H329L288 150H171L212 385H65L85 494H232L288 786H136L151 899H298L339 1128H452L417 899H654L695 1128H822L783 899H943ZM644
786H407L351 494H591L644 786Z" />
<glyph unicode="$" glyph-name="dollar" horiz-adv-x="956" d="M848 356Q848 279 817 198T741 78Q657 4 502 4L514 -147L387 -210Q408 -124 406 2Q252 2 129 86Q102 104 102 119Q102 125 104 131L147 244H170Q221 160 406 143V508Q225 571 181 609T123 674T109
760Q109 942 215 1024Q281 1075 406 1085L391 1241L518 1305Q502 1198 502 1085Q586 1085 651 1067Q733 1044 780 1010Q797 997 784 950L758 854L739 850Q672 950 502 950V633Q590 604 631 590Q711 561 750 535Q848 467 848 356ZM406 659V950Q205 950 205 821Q205
756 276 715Q340 686 406 659ZM750 266Q750 352 686 399Q637 438 502 477V143Q750 156 750 266Z" />
<glyph unicode="%" glyph-name="percent" horiz-adv-x="1452" d="M1299 283Q1299 106 1228 33Q1175 -22 1058 -22Q935 -22 880 41Q816 115 816 283Q816 451 866 522T1058 594Q1195 594 1247 524T1299 283ZM1205 287Q1185 385 1145 419T1019 453Q939 453 912 428Q878
395 900 285Q921 184 959 154T1086 123Q1175 123 1200 154T1205 287ZM1146 1026Q1154 1004 1154 999Q1154 995 1140 979Q781 559 355 -22Q341 -40 337 -40Q333 -40 329 -30L306 37Q294 76 308 94Q626 475 1074 1079Q1099 1112 1107 1112Q1113 1112 1115 1106L1146
1026ZM634 788Q634 610 564 539Q511 483 392 483Q269 483 214 547Q151 621 151 788Q151 954 202 1027T392 1100Q536 1100 589 1020Q634 950 634 788ZM542 791Q521 889 481 922T353 956Q271 956 247 934Q212 901 235 791Q255 692 298 657Q335 629 421 629Q509 629
535 661T542 791Z" />
<glyph unicode="&amp;" glyph-name="ampersand" horiz-adv-x="1521" d="M1419 158Q1399 74 1312 10T1137 -55Q1001 -55 825 117Q643 -55 420 -55Q279 -55 193 20Q102 99 102 238Q102 388 221 507Q296 582 469 680Q401 819 401 936Q401 1066 477 1152Q556 1243
684 1243Q794 1243 863 1186Q938 1124 938 1016Q938 821 651 692Q772 469 895 307Q1067 520 1067 645Q1067 725 946 733V772H1346V733Q1283 725 1255 711Q1205 687 1171 623Q1046 392 938 254Q1087 80 1223 80Q1280 80 1320 108Q1347 126 1393 180L1419 158ZM840
1022Q840 1091 800 1136T692 1182Q549 1182 549 1018Q549 911 623 752Q840 878 840 1022ZM776 168Q649 334 496 614Q276 483 276 303Q276 196 342 122Q410 45 516 45Q649 45 776 168Z" />
<glyph unicode="&apos;" glyph-name="quotesingle" horiz-adv-x="321" d="M242 1124Q254 1100 256 1077Q256 1055 246 1026Q168 821 88 717L59 727L53 737Q100 862 100 967Q100 989 98 1001L82 1047Q76 1061 68 1083Q66 1096 80 1116L135 1192Q156 1223 172 1223Q190
1223 207 1190L242 1124Z" />
<glyph unicode="(" glyph-name="parenleft" horiz-adv-x="495" d="M407 -192L355 -223Q218 -90 163 8Q34 236 34 537Q34 666 68 814T160 1063T355 1296L407 1266Q300 1155 259 1032Q185 815 185 537Q185 256 259 39Q298 -75 407 -192Z" />
<glyph unicode=")" glyph-name="parenright" horiz-adv-x="491" d="M413 537Q413 236 284 8Q228 -90 91 -223L40 -192Q144 -83 187 39Q261 256 261 537Q261 815 187 1032Q153 1137 40 1266L91 1296Q228 1163 285 1063T378 815T413 537Z" />
<glyph unicode="*" glyph-name="asterisk" horiz-adv-x="741" d="M689 1085Q708 1051 675 1036L433 928L675 821Q712 805 689 770L658 723Q638 690 611 711L400 868L431 610Q435 573 402 573H329Q292 573 298 614L333 868L132 711Q105 690 85 723L54 770Q32 805
67 821L300 928L62 1028Q30 1042 48 1075L79 1128Q97 1161 126 1141L333 987L300 1245Q296 1276 335 1276H396Q435 1276 431 1245L400 987L609 1149Q640 1174 661 1137L689 1085Z" />
<glyph unicode="+" glyph-name="plus" horiz-adv-x="899" d="M851 586L806 500Q794 477 775 477H507V219Q507 201 484 188L407 143Q390 133 390 172V477H73Q34 477 46 500L91 586Q103 608 120 608H390V877Q390 893 407 903L484 950Q491 954 495 954Q507 954 507
922V608H822Q863 608 851 586Z" />
<glyph unicode="," glyph-name="comma" horiz-adv-x="339" d="M236 217Q248 195 250 170Q250 147 240 119Q176 -47 82 -169L53 -159L47 -149Q94 -26 94 59Q94 82 92 94L76 137Q70 154 61 176Q59 188 74 207L129 276Q145 297 166 297Q186 297 201 272L236 217Z" />
<glyph unicode="-" glyph-name="hyphen" horiz-adv-x="899" d="M766 586L719 500Q702 471 690 471H152Q106 471 123 500L170 586Q186 614 197 614H735Q752 614 761 604T766 586Z" />
<glyph unicode="." glyph-name="period" horiz-adv-x="362" d="M262 125Q281 106 281 92Q281 76 260 53L193 -18Q182 -32 166 -32Q145 -32 127 -12L70 53Q51 76 51 88Q51 102 70 123L131 190Q150 209 166 209Q184 209 205 188L262 125Z" />
<glyph unicode="/" glyph-name="slash" horiz-adv-x="765" d="M712 1196Q624 1032 427 571Q284 236 194 0Q181 -34 136 -57L50 -102Q28 -114 26 -104Q22 -96 32 -77Q149 152 333 592Q472 922 550 1124Q562 1155 597 1171L697 1217Q718 1225 720 1221Q722 1217 712 1196Z" />
<glyph unicode="0" glyph-name="zero" horiz-adv-x="921" d="M823 537Q823 379 795 254T694 59Q616 -16 459 -16Q305 -16 231 47Q152 115 121 279Q98 399 98 537Q98 647 111 750Q129 897 184 983Q260 1098 461 1098Q674 1098 750 963Q795 885 811 752Q823 655
823 537ZM705 350Q705 461 696 561Q692 621 676 715Q651 866 592 907Q561 926 416 926Q283 926 240 848Q213 799 213 690Q213 682 225 532T256 307Q283 205 336 172Q369 152 494 152Q602 152 649 195Q705 246 705 350Z" />
<glyph unicode="1" glyph-name="one" horiz-adv-x="921" d="M644 47Q646 29 634 25L491 -14L472 4Q486 158 486 309Q486 444 483 658T480 868Q480 879 464 874Q368 856 323 856Q235 856 196 866V965Q278 958 361 989Q437 1016 472 1055Q493 1077 517 1102L601
1104Q615 1104 623 1096T630 1071L620 948Q615 893 615 725Q615 424 624 244Q628 168 644 47Z" />
<glyph unicode="2" glyph-name="two" horiz-adv-x="921" d="M834 164L784 0H90Q98 92 92 119L485 489Q639 635 639 756Q639 846 575 891Q520 930 391 930Q221 930 145 827H115L143 973Q145 987 151 1009T176 1044Q254 1098 403 1098Q602 1098 698 1016Q784 942
784 797Q784 623 598 449L279 150H684Q756 150 807 182L834 164Z" />
<glyph unicode="3" glyph-name="three" horiz-adv-x="921" d="M817 360Q817 205 717 102Q602 -16 393 -16Q221 -16 121 39Q86 57 90 86L113 211H135Q227 137 428 137Q702 137 702 299Q702 422 610 465Q551 494 426 494H365Q322 494 211 483L254 633Q254 633 301
639Q342 643 369 643H444Q629 643 629 786Q629 940 395 940Q211 940 152 852L125 860L145 973Q147 987 153 1009T178 1044Q258 1098 403 1098Q743 1098 743 848Q743 733 706 683T627 604Q651 598 707 573Q817 510 817 360Z" />
<glyph unicode="4" glyph-name="four" horiz-adv-x="921" d="M862 451L834 328Q825 295 815 288T766 281H690Q690 154 717 45Q721 23 709 18L573 -18L555 -2Q567 131 567 281H90Q61 281 61 301V346Q61 408 82 477Q197 864 504 1055Q567 1094 645 1102L688 1106Q702
1108 702 1085Q684 668 692 428H719Q801 428 844 465L862 451ZM567 428Q571 528 559 926H547Q401 887 297 723Q211 588 211 428H567Z" />
<glyph unicode="5" glyph-name="five" horiz-adv-x="921" d="M827 375Q827 211 729 111Q606 -16 383 -16Q227 -16 121 41Q86 59 90 88L113 213H135Q233 135 401 135Q532 135 610 170Q700 211 700 332Q700 553 432 553Q231 553 147 494H135V1075Q135 1090 168 1087Q211
1083 467 1085Q545 1085 625 1085Q705 1085 750 1100L764 1083L729 938Q709 934 496 932Q453 930 375 932Q272 932 244 932V692Q358 707 451 707Q641 707 741 602Q827 512 827 375Z" />
<glyph unicode="6" glyph-name="six" horiz-adv-x="921" d="M838 352Q838 197 733 91T461 -16Q96 -16 96 365Q96 522 197 709Q307 918 514 1108Q545 1137 563 1116L651 1026Q369 788 279 600Q270 582 276 578Q283 575 293 588Q358 666 413 678T508 690Q670 690
754 601T838 352ZM725 324Q725 547 471 547Q324 547 244 496Q217 444 217 360Q217 129 467 129Q725 129 725 324Z" />
<glyph unicode="7" glyph-name="seven" horiz-adv-x="921" d="M865 1061L849 954Q796 864 699 709Q497 391 497 123Q497 68 507 27V12L359 -22L349 -14Q341 18 341 47Q341 100 368 225Q409 420 538 643Q605 760 650 834Q665 854 689 922L687 934Q546 924 437 924Q335
924 149 930Q110 932 79 915L65 924L132 1098Q226 1077 448 1077Q730 1075 837 1090Q867 1094 867 1081Q867 1077 865 1061Z" />
<glyph unicode="8" glyph-name="eight" horiz-adv-x="921" d="M851 291Q851 78 675 6Q593 -26 472 -26Q265 -26 175 31Q71 98 71 272Q71 377 97 432Q132 506 232 547Q175 571 140 633T105 772Q105 920 151 987Q230 1108 452 1108Q634 1108 720 1030Q794 963 794
831Q794 666 667 606Q769 565 810 492T851 291ZM681 776Q681 887 620 928Q570 961 445 961Q212 961 212 809Q212 727 265 682Q310 643 491 631Q589 625 615 641Q681 684 681 776ZM736 276Q736 395 687 438T411 498Q292 506 278 498Q230 469 206 424Q185 387 185
315Q185 188 267 145Q323 117 464 117Q609 117 672 155T736 276Z" />
<glyph unicode="9" glyph-name="nine" horiz-adv-x="921" d="M829 694Q829 354 461 -28Q440 -49 434 -49Q428 -49 412 -34L315 49Q545 215 655 459Q664 477 655 481Q649 483 639 471Q573 393 517 381T422 369Q90 369 90 729Q90 1100 444 1100Q625 1100 727 993T829
694ZM694 721Q694 850 631 901Q575 948 449 948Q328 948 270 905Q205 854 205 735Q205 508 459 508Q592 508 678 563Q694 594 694 721Z" />
<glyph unicode=":" glyph-name="colon" horiz-adv-x="432" d="M280 195Q296 176 296 162Q296 145 278 123L210 51Q198 37 181 37Q161 37 144 57L87 123Q69 145 69 158Q69 172 85 193L149 260Q165 279 181 279Q200 279 220 258L280 195ZM280 774Q296 754 296 739Q296
725 278 702L210 629Q198 616 181 616Q161 616 144 637L87 702Q69 723 69 737Q69 752 85 770L149 840Q165 858 181 858Q200 858 220 836L280 774Z" />
<glyph unicode=";" glyph-name="semicolon" horiz-adv-x="428" d="M280 774Q296 754 296 739Q296 725 278 702L210 629Q198 616 181 616Q161 616 144 637L87 702Q69 723 69 737Q69 752 85 770L149 840Q165 858 181 858Q200 858 220 836L280 774ZM259 260Q271 238
273 213Q273 190 263 162Q200 -4 105 -126L77 -116L71 -106Q118 16 118 102Q118 125 116 137L99 180Q93 197 85 219Q83 231 97 250L153 319Q169 340 189 340Q210 340 224 315L259 260Z" />
<glyph unicode="&lt;" glyph-name="less" horiz-adv-x="899" d="M814 145Q814 111 785 127L103 498Q83 508 83 537V569Q83 594 103 604L785 975Q814 991 814 954V854Q814 827 794 817L280 551L785 309Q814 295 814 270V145Z" />
<glyph unicode="=" glyph-name="equal" horiz-adv-x="899" d="M795 780L762 686Q752 659 735 659H123Q104 659 102 666Q100 672 104 686L135 780Q145 811 164 811H776Q805 811 795 780ZM795 418L762 324Q752 293 735 293H123Q94 293 104 324L135 418Q143 444 164
444H776Q805 444 795 418Z" />
<glyph unicode="&gt;" glyph-name="greater" horiz-adv-x="899" d="M814 537Q814 508 794 498L112 127Q83 111 83 145V270Q83 295 112 309L617 551L103 817Q83 827 83 854V954Q83 991 112 975L794 604Q814 594 814 569V537Z" />
<glyph unicode="?" glyph-name="question" horiz-adv-x="845" d="M682 848Q682 715 655 663T524 532Q471 492 451 473Q399 430 387 401Q377 387 356 338H311Q297 418 297 457Q297 551 449 657Q494 688 541 719Q569 745 569 793Q569 885 518 918Q477 940 373 940Q178
940 150 856L133 866V1022Q133 1032 150 1047Q217 1104 377 1104Q551 1104 625 1028Q682 969 682 848ZM434 125Q451 106 451 92Q451 76 432 53L365 -18Q352 -32 336 -32Q315 -32 299 -12L242 53Q221 76 221 88Q221 102 240 123L303 190Q319 209 336 209Q354 209
375 188L434 125Z" />
<glyph unicode="@" glyph-name="at" horiz-adv-x="1697" d="M1517 741Q1517 575 1414 426Q1302 258 1142 258Q1072 258 1021 297T968 406Q945 344 884 301T759 258Q650 258 584 330T517 512Q517 662 633 791T894 920Q1029 920 1062 807Q1115 897 1201 901Q1230
903 1230 877Q1230 870 1228 862L1189 743Q1099 461 1099 403Q1099 373 1122 350T1177 326Q1295 326 1379 479Q1449 610 1449 739Q1449 942 1289 1063Q1144 1176 933 1176Q679 1176 486 1001Q290 821 290 569Q290 324 466 176Q630 39 880 39Q966 39 1068 63Q1201
96 1334 184Q1349 195 1361 195Q1388 195 1388 168Q1388 147 1369 133Q1254 53 1113 10Q994 -27 853 -27Q583 -27 382 133Q165 303 165 567Q165 862 400 1061Q622 1245 925 1245Q1162 1245 1332 1116Q1517 975 1517 741ZM1023 752Q1023 852 923 852Q822 852 742
696Q675 563 675 451Q675 324 785 324Q884 324 960 494Q1023 637 1023 752Z" />
<glyph unicode="A" glyph-name="A" horiz-adv-x="1267" d="M1229 0H793Q780 0 778 14Q778 31 793 33Q836 37 893 47Q913 57 913 96Q913 133 881 211L809 379H348Q254 141 254 109Q254 63 291 47Q297 43 375 33Q387 31 387 14Q389 0 375 0H31Q20 0 20 14Q18 31
31 33Q113 45 168 145Q168 145 244 319L598 1153Q610 1176 629 1176Q645 1176 655 1153L1081 186Q1124 88 1151 65T1229 33Q1241 31 1241 14Q1241 0 1229 0ZM784 451L594 903Q590 915 580 913Q571 913 567 903L381 451H784Z" />
<glyph unicode="B" glyph-name="B" horiz-adv-x="1171" d="M1039 322Q1039 0 601 0H69Q42 0 42 18Q42 41 69 41Q132 43 165 71T198 201V956Q198 1053 167 1081Q146 1100 136 1104Q116 1112 69 1114Q38 1114 38 1137Q38 1159 69 1159H521Q980 1159 980 858Q980
735 894 670Q845 635 747 610Q1039 541 1039 322ZM802 852Q802 1010 673 1065Q603 1094 458 1094Q407 1094 394 1087Q376 1077 376 1032V639L544 641Q802 643 802 852ZM839 315Q839 569 460 569H409Q402 569 376 571V135Q376 82 425 68Q445 63 521 63Q839 63 839
315Z" />
<glyph unicode="C" glyph-name="C" horiz-adv-x="1171" d="M1110 195Q1061 125 967 66Q819 -29 645 -29Q377 -29 210 136T43 567Q43 823 207 997Q377 1180 688 1180Q897 1180 997 1120Q1071 1077 1077 969L1090 786Q1090 762 1063 762Q1038 762 1028 786Q995 868
985 891Q963 944 938 975Q829 1110 666 1110Q457 1110 344 934Q248 786 248 563Q248 350 356 207Q475 49 682 49Q819 49 934 115Q1024 166 1079 227Q1090 240 1102 240Q1120 240 1120 217Q1120 207 1110 195Z" />
<glyph unicode="D" glyph-name="D" horiz-adv-x="1267" d="M1203 575Q1203 446 1150 328Q1000 0 515 0H52Q26 0 26 18Q26 41 52 41Q116 43 148 71T181 201V956Q181 1053 151 1081Q130 1100 120 1104Q99 1112 52 1114Q22 1114 22 1137Q22 1159 52 1159H501Q812
1159 994 1028Q1203 879 1203 575ZM1011 573Q1011 827 864 960T462 1094Q407 1094 388 1085Q359 1073 359 1024V135Q359 88 392 74Q411 66 468 66Q724 66 863 186Q1011 317 1011 573Z" />
<glyph unicode="E" glyph-name="E" horiz-adv-x="1073" d="M1043 276L992 72Q974 0 888 0H58Q32 0 32 18Q32 39 58 43Q114 53 143 77T173 201V956Q173 1051 144 1079Q124 1100 58 1114Q36 1118 36 1143Q36 1159 58 1159H806Q871 1159 898 1163Q949 1174 949 1126L957
907Q960 883 941 883Q921 883 912 907Q896 954 882 1001Q865 1042 847 1059Q802 1092 646 1092H409Q374 1092 363 1081T351 1032V641H622Q734 641 765 676Q790 700 814 791Q822 817 839 817Q855 817 855 791V432Q855 408 839 408Q820 408 814 426Q790 514 765 541Q734
573 622 573H351V139Q351 76 443 66Q419 68 583 68Q761 68 847 106Q917 139 998 297Q1007 311 1021 311Q1052 311 1043 276Z" />
<glyph unicode="F" glyph-name="F" horiz-adv-x="976" d="M963 907Q963 883 944 883Q926 883 918 907Q901 954 887 1001Q870 1042 852 1059Q807 1092 651 1092H410Q375 1092 364 1081T352 1032V641H604Q717 641 748 676Q770 700 797 791Q805 817 819 817Q838 817
838 791V432Q838 408 821 408Q803 408 797 426Q772 512 744 542T604 573H352V199Q352 98 383 74Q408 53 483 39Q510 35 510 16Q510 0 483 0H43Q16 0 16 16Q16 35 43 39Q119 53 146 75T174 199V956Q174 1051 145 1079Q131 1096 39 1114Q18 1118 18 1143Q18 1159
39 1159H811Q874 1159 903 1163Q954 1174 954 1126L963 907Z" />
<glyph unicode="G" glyph-name="G" horiz-adv-x="1267" d="M1217 541Q1171 537 1149 518Q1112 492 1112 406V168Q1112 72 932 16Q797 -25 670 -25Q399 -25 225 135Q43 301 43 567Q43 813 197 987Q367 1180 670 1180Q897 1180 1012 1110Q1081 1067 1087 969L1100
786Q1100 762 1075 762Q1055 762 1044 786Q987 932 950 981Q854 1110 676 1110Q457 1110 344 938Q250 793 250 561Q250 344 360 203Q481 47 692 47Q741 47 815 63Q901 82 928 106Q942 121 942 152V385Q942 485 914 510T807 541Q786 543 786 561Q786 582 807 582H1217Q1233
582 1233 561Q1233 543 1217 541Z" />
<glyph unicode="H" glyph-name="H" horiz-adv-x="1267" d="M1205 0H763Q736 0 736 16Q736 35 763 39Q841 53 866 74T892 178V551H359V178Q359 100 388 77T493 39Q519 35 519 16Q519 0 493 0H52Q26 0 26 16Q26 35 52 39Q128 53 154 75T181 178V981Q181 1063 155
1085T52 1120Q26 1126 26 1143Q26 1159 52 1159H493Q519 1159 519 1143Q519 1126 493 1120Q417 1108 388 1084T359 981V629H892V981Q892 1065 867 1086T763 1120Q736 1126 736 1143Q736 1159 763 1159H1205Q1232 1159 1232 1143Q1232 1126 1205 1120Q1127 1108
1103 1085Q1072 1061 1072 981V178Q1072 100 1103 74Q1127 53 1205 39Q1232 35 1232 16Q1232 0 1205 0Z" />
<glyph unicode="I" glyph-name="I" horiz-adv-x="585" d="M517 0H54Q28 0 28 16Q28 35 54 39Q149 55 169 74Q198 96 198 178V981Q198 1063 169 1085Q149 1104 54 1120Q28 1126 28 1143Q28 1159 54 1159H517Q546 1159 546 1143Q546 1126 517 1120Q431 1106 409
1085Q378 1059 378 981V178Q378 100 409 74Q431 53 517 39Q546 35 546 16Q546 0 517 0Z" />
<glyph unicode="J" glyph-name="J" horiz-adv-x="684" d="M631 1120Q543 1106 520 1085Q487 1059 487 981V326Q487 174 416 82Q338 -20 193 -20Q129 -20 78 8Q18 41 18 100Q18 188 100 188Q154 188 188 116T248 43Q309 43 309 176V981Q309 1063 284 1083T166 1120Q137
1126 137 1143Q137 1159 166 1159H631Q657 1159 657 1143Q657 1126 631 1120Z" />
<glyph unicode="K" glyph-name="K" horiz-adv-x="1267" d="M1214 0H729Q702 0 702 16Q702 35 729 37Q831 41 831 78Q831 117 772 180L428 555L371 518V178Q371 100 401 74Q424 53 512 39Q539 35 539 16Q539 0 512 0H47Q20 0 20 16Q20 35 47 39Q141 55 165 75T190
178V981Q190 1063 166 1083T47 1120Q20 1126 20 1143Q20 1159 47 1159H512Q539 1159 539 1143Q539 1126 512 1120Q424 1106 401 1085Q371 1061 371 981V610Q479 688 743 956Q821 1036 821 1077Q821 1116 705 1124Q678 1126 678 1143Q678 1159 705 1159H1130Q1157
1159 1157 1143Q1157 1126 1130 1120Q1038 1106 995 1077Q958 1057 821 915Q711 801 557 659L1018 168Q1053 131 1120 72Q1147 51 1214 39Q1241 35 1241 16Q1241 0 1214 0Z" />
<glyph unicode="L" glyph-name="L" horiz-adv-x="1073" d="M1049 289L981 55Q965 0 911 0H45Q18 0 18 16Q18 35 45 39Q121 53 147 75T174 178V981Q174 1063 148 1085T45 1120Q18 1126 18 1143Q18 1159 45 1159H496Q522 1159 522 1143Q522 1126 496 1120Q410 1106
385 1085Q352 1059 352 981V139Q352 80 406 74Q444 68 530 68Q748 68 819 96Q924 139 1006 303Q1018 328 1032 328Q1059 328 1049 289Z" />
<glyph unicode="M" glyph-name="M" horiz-adv-x="1560" d="M1497 0H1044Q1018 0 1018 16Q1018 35 1044 39Q1130 53 1157 75T1184 178L1182 997L758 51Q743 20 721 20Q700 20 688 47L266 956V242Q266 113 311 74Q336 53 422 39Q449 35 449 16Q449 0 422 0H35Q8
0 8 16Q8 35 35 39Q129 55 152 74Q190 106 190 242V969Q190 1055 161 1083T43 1118Q25 1120 25 1139Q25 1159 43 1159H322Q371 1159 399 1096L764 307Q778 274 793 309L1139 1096Q1165 1159 1219 1159H1495Q1509 1159 1511 1141Q1513 1120 1495 1118Q1413 1106
1391 1083Q1362 1053 1362 969V178Q1362 102 1395 74Q1419 53 1497 39Q1526 35 1526 16Q1526 0 1497 0Z" />
<glyph unicode="N" glyph-name="N" horiz-adv-x="1267" d="M1229 1120Q1135 1104 1112 1085Q1073 1053 1073 938V23Q1073 -6 1049 -6Q1032 -6 1022 8L287 915Q266 940 266 911V242Q266 113 311 74Q336 53 422 39Q449 35 449 16Q449 0 422 0H35Q8 0 8 16Q8 35 35
39Q129 55 152 74Q190 106 190 242V1020Q190 1032 166 1059Q150 1075 111 1104Q84 1114 43 1118Q25 1120 25 1139Q25 1159 43 1159H283Q322 1159 360 1110L979 340Q997 317 997 342V938Q997 1049 952 1085Q932 1104 844 1120Q817 1124 817 1143Q817 1159 844 1159H1229Q1255
1159 1255 1143Q1255 1124 1229 1120Z" />
<glyph unicode="O" glyph-name="O" horiz-adv-x="1267" d="M1202 580Q1202 319 1047 150Q885 -25 629 -25Q371 -25 211 147T51 580Q51 840 210 1012T629 1184Q887 1184 1044 1012T1202 580ZM1004 580Q1004 799 926 940Q829 1120 629 1120Q428 1120 330 940Q252
797 252 580Q252 362 330 219Q428 39 629 39Q829 39 926 219Q1004 360 1004 580Z" />
<glyph unicode="P" glyph-name="P" horiz-adv-x="976" d="M950 846Q950 662 807 573Q696 506 492 506Q469 506 422 506Q377 508 352 508V199Q352 98 383 74Q406 53 489 39Q516 35 516 16Q516 0 489 0H49Q23 0 23 16Q23 35 49 39Q119 51 148 76T178 199V956Q178
1047 145 1079Q131 1096 39 1114Q18 1118 18 1143Q18 1159 39 1159H492Q674 1159 797 1094Q950 1012 950 846ZM760 840Q760 1094 432 1094Q385 1094 373 1087Q352 1075 352 1034V580Q420 573 442 573Q567 573 635 606Q760 672 760 840Z" />
<glyph unicode="Q" glyph-name="Q" horiz-adv-x="1267" d="M1202 580Q1202 348 1085 195Q963 33 739 -10Q846 -164 995 -227Q1075 -260 1186 -260Q1210 -260 1210 -287Q1210 -311 1186 -311H1153Q741 -311 535 -90Q457 -8 449 -4L426 6Q285 72 201 160Q51 322
51 580Q51 840 210 1012T629 1184Q885 1184 1047 1010Q1202 840 1202 580ZM1004 580Q1004 799 926 940Q829 1120 629 1120Q428 1120 330 940Q252 797 252 580Q252 362 330 219Q428 39 629 39Q829 39 926 219Q1004 360 1004 580Z" />
<glyph unicode="R" glyph-name="R" horiz-adv-x="1171" d="M1128 0H954Q858 0 788 90L446 539L348 535V199Q348 98 379 74Q401 53 485 39Q512 35 512 16Q512 0 485 0H49Q23 0 23 16Q23 35 49 39Q129 53 149 82T170 199V956Q170 1053 143 1079Q127 1096 39 1114Q18
1118 18 1143Q18 1159 39 1159H506Q950 1159 950 852Q950 606 635 559L995 115Q1016 88 1063 63Q1094 45 1128 39Q1151 35 1151 16Q1151 0 1128 0ZM760 854Q760 1092 457 1092Q395 1092 381 1087Q348 1077 348 1030V598Q539 606 621 639Q760 696 760 854Z" />
<glyph unicode="S" glyph-name="S" horiz-adv-x="976" d="M862 299Q862 162 758 70T471 -23Q340 -23 201 14Q139 33 127 121L92 336Q88 367 115 367Q135 367 141 352Q188 227 256 141Q332 43 477 43Q569 43 626 98T684 244Q684 330 623 391Q584 432 453 512L303
604Q121 719 121 874Q121 1008 209 1096T463 1184Q651 1184 733 1120Q797 1071 803 999L821 811Q825 784 797 784Q772 784 766 803Q711 985 623 1047Q528 1112 455 1112Q381 1112 329 1069T276 952Q276 840 444 735L598 641Q727 561 780 504Q862 414 862 299Z"
/>
<glyph unicode="T" glyph-name="T" horiz-adv-x="1073" d="M1033 889Q1033 864 1015 864Q998 864 988 889Q943 1022 901 1053T724 1085H673Q638 1085 628 1074T617 1026V199Q617 98 646 74Q667 57 771 39Q798 35 798 16Q798 0 771 0H292Q263 0 263 16Q263 35 292
39Q392 57 413 74Q441 98 441 199V1026Q441 1063 431 1074T384 1085H335Q200 1085 158 1054T71 889Q60 864 42 864Q24 864 26 889L32 1126Q34 1174 85 1163Q112 1159 175 1159H882Q947 1159 974 1163Q1025 1174 1025 1126L1033 889Z" />
<glyph unicode="U" glyph-name="U" horiz-adv-x="1267" d="M1213 1120Q1136 1108 1109 1085Q1072 1055 1072 866V444Q1072 264 1017 162Q912 -25 626 -25Q181 -25 181 422V981Q181 1063 155 1085T52 1120Q26 1126 26 1143Q26 1159 52 1159H493Q519 1159 519 1143Q519
1126 493 1120Q417 1108 388 1084T359 981V410Q359 53 665 53Q880 53 953 199Q994 279 994 444V866Q994 1055 957 1085Q933 1108 855 1120Q828 1126 828 1143Q828 1159 855 1159H1213Q1240 1159 1240 1143Q1240 1126 1213 1120Z" />
<glyph unicode="V" glyph-name="V" horiz-adv-x="1267" d="M1203 1118Q1166 1104 1146 1090Q1099 1055 1072 987L681 0Q675 -14 658 -14Q642 -16 634 0L175 1016Q146 1077 114 1098Q91 1110 42 1118Q24 1120 24 1139Q24 1159 42 1159H482Q497 1159 499 1141Q499
1122 484 1120Q429 1112 413 1108Q378 1098 372 1083Q355 1051 382 993L708 262L986 999Q1003 1040 978 1085Q966 1108 886 1120Q871 1122 871 1141Q871 1159 888 1159H1199Q1220 1159 1220 1139Q1220 1124 1203 1118Z" />
<glyph unicode="W" glyph-name="W" horiz-adv-x="1656" d="M1622 1118Q1593 1108 1563 1098Q1511 1069 1489 1001L1141 0Q1135 -18 1120 -18Q1108 -18 1102 0L825 717L559 0Q553 -18 541 -18Q528 -18 520 0L182 934Q121 1104 27 1118Q8 1120 8 1139Q8 1159 27
1159H420Q434 1159 436 1141Q436 1122 424 1120Q375 1112 360 1108Q336 1102 330 1090Q315 1061 342 993L598 334L782 821Q782 846 705 1022Q678 1081 639 1102Q623 1110 563 1118Q547 1120 547 1139Q547 1159 563 1159H1004Q1020 1159 1020 1141Q1022 1122 1008
1120Q952 1112 936 1108Q901 1098 895 1083Q881 1051 901 993L1161 324L1409 999Q1423 1038 1399 1085Q1386 1108 1307 1120Q1292 1122 1292 1141Q1292 1159 1307 1159H1620Q1638 1159 1638 1139Q1638 1124 1622 1118Z" />
<glyph unicode="X" glyph-name="X" horiz-adv-x="1267" d="M1220 0H726Q712 0 710 18Q710 37 724 39Q761 45 798 51T841 72Q857 109 806 186L589 504L345 197Q302 141 302 100Q302 63 337 51Q345 49 405 39Q419 37 419 18Q419 0 402 0H42Q24 0 24 18Q24 35 40
41Q67 45 120 68Q165 96 261 217L546 567L292 936Q212 1051 149 1090Q116 1110 54 1118Q36 1120 36 1139Q36 1159 54 1159H556Q570 1159 572 1141Q572 1122 558 1120Q523 1114 487 1108T443 1087Q423 1042 458 993L656 709L876 967Q921 1020 921 1059Q921 1094
884 1108Q873 1110 816 1120Q802 1122 802 1141Q802 1159 816 1159H1199Q1220 1159 1220 1139Q1220 1124 1203 1118Q1181 1120 1113 1106Q1062 1083 990 995L706 643L990 229Q1070 113 1129 72Q1164 47 1220 41Q1238 37 1238 20Q1238 0 1220 0Z" />
<glyph unicode="Y" glyph-name="Y" horiz-adv-x="1267" d="M1220 1118Q1099 1085 1025 977L730 530V199Q730 94 752 76T882 39Q908 35 908 16Q908 0 882 0H400Q374 0 374 16Q374 35 400 39Q501 57 521 74Q552 98 552 199V514L263 936Q183 1053 134 1090Q105 1110
54 1118Q36 1120 36 1139Q36 1159 54 1159H519Q534 1159 536 1141Q536 1122 521 1120Q462 1110 456 1110Q427 1102 421 1087Q400 1044 433 993L693 608L923 967Q964 1032 964 1063Q964 1096 925 1108Q917 1112 861 1120Q847 1122 847 1141Q847 1159 861 1159H1216Q1236
1159 1236 1139Q1236 1122 1220 1118Z" />
<glyph unicode="Z" glyph-name="Z" horiz-adv-x="1073" d="M1043 291L1013 55Q1005 0 935 0H67Q30 0 30 29Q30 43 42 59L781 1092H357Q232 1092 185 1040Q130 981 108 887Q101 862 77 862Q56 862 58 891L83 1104Q89 1157 142 1157H957Q994 1157 994 1124Q994 1112
988 1102L255 68H663Q845 68 902 121Q968 178 1000 299Q1007 324 1027 324Q1048 324 1043 291Z" />
<glyph unicode="[" glyph-name="bracketleft" horiz-adv-x="696" d="M676 -167Q676 -198 649 -198H227Q184 -198 184 -151V1255Q184 1303 227 1303H649Q674 1303 674 1272Q674 1237 649 1237H436Q332 1237 332 1145V-40Q332 -133 436 -133H649Q676 -133 676 -167Z" />
<glyph unicode="\" glyph-name="backslash" horiz-adv-x="565" d="M556 -4H380L0 1194L184 1196L556 -4Z" />
<glyph unicode="]" glyph-name="bracketright" horiz-adv-x="696" d="M512 -151Q512 -198 469 -198H47Q20 -198 20 -167Q20 -133 47 -133H260Q365 -133 365 -40V1145Q365 1237 260 1237H47Q23 1237 23 1272Q23 1303 47 1303H469Q512 1303 512 1255V-151Z" />
<glyph unicode="^" glyph-name="asciicircum" horiz-adv-x="960" d="M892 467H755L480 1049L202 467H65L431 1225Q448 1260 478 1260Q509 1260 525 1225L892 467Z" />
<glyph unicode="_" glyph-name="underscore" horiz-adv-x="1024" d="M1024 -229H0V-139H1024V-229Z" />
<glyph unicode="`" glyph-name="grave" horiz-adv-x="682" d="M447 1045L392 1036L118 1390H341L447 1045Z" />
<glyph unicode="a" glyph-name="a" horiz-adv-x="968" d="M948 76Q926 49 891 27Q831 -12 770 -12Q637 -12 629 139Q442 -14 305 -14Q211 -14 146 47T80 203Q80 350 236 446Q330 506 627 612V698Q627 801 604 842Q569 909 455 909Q399 909 356 887Q301 858 301
809Q301 795 306 769T311 729Q311 639 219 639Q178 639 150 665T121 733Q121 844 254 907Q362 961 483 961Q690 961 764 831Q803 762 803 629V223Q803 164 811 141Q825 102 868 102Q903 102 924 115Q936 123 946 123Q963 123 963 106Q963 92 948 76ZM627 240V561Q270
449 270 270Q270 201 313 154T426 106Q492 106 553 139Q627 180 627 240Z" />
<glyph unicode="b" glyph-name="b" horiz-adv-x="1036" d="M967 459Q967 236 841 109T498 -18Q348 -18 236 26T123 111V1092Q123 1116 80 1114Q63 1114 45 1112Q33 1110 31 1120Q29 1130 35 1135Q125 1186 172 1221Q205 1243 264 1290Q276 1300 289 1294Q301 1288
301 1276V805Q393 920 590 920Q748 920 857 797T967 459ZM784 446Q784 649 698 741Q623 825 504 825Q399 825 344 764Q297 711 297 627V158Q305 106 377 84Q430 68 489 68Q621 68 698 158Q784 256 784 446Z" />
<glyph unicode="c" glyph-name="c" horiz-adv-x="940" d="M872 299Q819 162 715 76Q600 -18 459 -18Q274 -18 160 117Q49 244 49 430Q49 637 184 781T526 926Q629 926 725 877Q844 817 844 725Q844 637 745 637Q666 637 641 727L631 774Q606 868 494 868Q358 868
281 754Q213 653 213 512Q213 358 299 248Q393 129 545 129Q631 129 715 190Q786 244 823 315Q836 338 852 338Q874 338 874 313Q874 307 872 299Z" />
<glyph unicode="d" glyph-name="d" horiz-adv-x="1058" d="M1051 74Q1030 49 993 27Q936 -12 856 -12Q750 -12 723 88Q641 -20 477 -20Q270 -20 170 109Q63 250 63 455Q63 680 166 795Q276 920 438 920Q616 920 721 823V1092Q721 1116 676 1114Q662 1114 641 1112Q629
1110 627 1120Q625 1130 631 1135Q723 1186 770 1221Q799 1241 854 1290Q864 1300 877 1294Q891 1288 891 1276V178Q891 98 973 98Q1006 98 1024 113Q1036 119 1047 119Q1063 119 1063 102Q1063 90 1051 74ZM719 199V655Q719 737 656 781T516 825Q403 825 324 739T244
442Q244 213 356 121Q422 68 524 68Q666 68 719 199Z" />
<glyph unicode="e" glyph-name="e" horiz-adv-x="940" d="M877 266Q817 139 701 57T449 -25Q260 -25 147 115Q41 246 41 436Q41 639 162 780T485 922Q631 922 737 829T844 641Q844 555 743 555H193Q201 373 276 258Q367 119 535 119Q707 119 831 291Q848 311 864
311Q899 311 877 266ZM629 682Q592 850 426 850Q326 850 262 776Q209 713 199 616H575Q641 616 629 682Z" />
<glyph unicode="f" glyph-name="f" horiz-adv-x="749" d="M737 1116Q737 1083 719 1063Q694 1036 657 1036Q627 1036 606 1055Q590 1067 559 1116Q532 1190 469 1190Q387 1190 387 1032V868H631Q637 868 641 858Q643 848 639 842Q598 799 528 799H389V186Q389
88 426 66Q444 51 569 35Q590 31 590 16Q590 0 569 0H35Q18 0 18 14Q20 31 35 33Q168 49 190 79T213 186V799H131Q59 799 20 842Q14 848 18 858Q23 868 31 868H213Q213 1022 240 1081Q311 1247 508 1247Q598 1247 672 1212Q737 1180 737 1116Z" />
<glyph unicode="g" glyph-name="g" horiz-adv-x="1058" d="M1004 823Q967 782 901 782H815Q862 680 862 602Q862 467 748 381Q643 303 502 303Q469 303 408 311Q377 311 329 263T281 184Q281 129 459 129Q721 129 819 100Q975 53 975 -98Q975 -260 772 -358Q606
-438 424 -438Q307 -438 199 -395Q55 -338 55 -236Q55 -119 266 4Q215 23 195 39Q143 76 143 119Q143 221 342 330Q250 358 197 433T143 604Q143 748 258 840Q367 926 512 926Q571 926 681 892T854 858Q874 858 917 860T981 862H995Q1006 862 1010 850Q1014 838
1004 823ZM680 510Q700 627 668 727Q627 852 522 870Q504 872 489 872Q360 872 330 690Q309 580 346 481Q387 365 492 346Q645 319 680 510ZM915 -131Q915 -66 829 -43Q795 -35 545 -27Q518 -27 467 -25Q444 -23 393 -16Q377 -14 342 -8Q289 -33 249 -88T209 -182Q209
-328 528 -328Q657 -328 766 -289Q915 -238 915 -131Z" />
<glyph unicode="h" glyph-name="h" horiz-adv-x="1058" d="M1018 0H598Q582 0 582 14Q582 31 598 33Q684 43 709 84Q725 115 725 186V584Q725 682 679 739T547 797Q442 797 334 688V186Q334 86 368 64T457 35Q475 31 475 16Q475 0 457 0H37Q20 0 20 14Q20 31 37
33Q106 41 133 78Q156 104 156 186V1092Q156 1116 113 1114Q98 1114 78 1112Q66 1110 63 1120Q61 1130 68 1135Q160 1186 206 1219T293 1290Q303 1300 317 1294Q330 1288 330 1276V780Q465 905 623 905Q750 905 825 816T901 586V186Q901 88 936 66Q952 53 1018
35Q1036 31 1036 16Q1036 0 1018 0Z" />
<glyph unicode="i" glyph-name="i" horiz-adv-x="608" d="M391 1139Q391 1096 360 1066T285 1036Q240 1036 208 1066T176 1139Q176 1184 208 1212T285 1241Q328 1241 359 1213T391 1139ZM547 57Q524 31 492 8Q432 -29 356 -29Q231 -29 231 129V731Q231 819 164
819Q143 819 125 811Q84 795 80 795Q59 795 59 813Q59 848 150 885Q231 920 270 920Q408 920 408 766V156Q408 117 416 102Q428 82 469 82Q502 82 522 94Q532 102 543 102Q561 102 561 86Q561 74 547 57Z" />
<glyph unicode="j" glyph-name="j" horiz-adv-x="587" d="M428 1139Q428 1096 398 1066T322 1036Q279 1036 246 1066T213 1139Q213 1184 244 1212T322 1241Q367 1241 397 1213T428 1139ZM434 0Q434 -170 389 -264Q307 -440 74 -440Q6 -440 -49 -418Q-123 -389
-123 -332Q-123 -297 -98 -274T-37 -250Q12 -250 68 -311T158 -373Q223 -373 246 -301Q260 -260 260 -158Q262 -90 262 23V731Q262 819 178 819Q158 819 137 811Q98 795 90 795Q72 795 72 813Q72 848 162 885Q244 920 285 920Q434 920 434 766V0Z" />
<glyph unicode="k" glyph-name="k" horiz-adv-x="1058" d="M1040 0H612Q596 0 596 16Q598 31 612 31Q655 31 680 49Q692 59 653 109L340 498V186Q340 88 377 66Q395 53 411 47T481 35Q502 31 502 16Q502 0 481 0H20Q4 0 4 14Q6 31 20 33Q125 45 147 84Q166 115
166 186V1040Q166 1120 143 1151T61 1194Q47 1198 45 1212Q45 1227 61 1227H440Q461 1227 461 1210Q461 1196 440 1192Q412 1184 376 1161T340 1040V563Q340 528 371 553L633 772Q657 795 670 814T678 848Q666 872 588 872Q573 872 573 889Q571 903 588 903H985Q1004
903 1004 887Q1004 872 985 870Q895 862 856 848Q788 821 688 737L487 567L786 203Q856 119 932 70Q954 55 967 49Q989 41 1040 35Q1059 31 1059 16Q1059 0 1040 0Z" />
<glyph unicode="l" glyph-name="l" horiz-adv-x="505" d="M438 57Q418 31 383 8Q324 -29 248 -29Q123 -29 123 129V1092Q123 1116 80 1114Q63 1114 45 1112Q33 1110 31 1120Q29 1130 35 1135Q125 1186 172 1221Q205 1243 264 1290Q274 1300 287 1294Q299 1288
299 1276V156Q299 117 307 102Q319 82 360 82Q395 82 414 94Q426 102 436 102Q453 102 453 86Q453 74 438 57Z" />
<glyph unicode="m" glyph-name="m" horiz-adv-x="1646" d="M1606 0H1186Q1169 0 1171 14Q1171 31 1186 33Q1280 45 1305 84Q1323 115 1323 186V621Q1323 815 1155 815Q1061 815 942 707L920 686Q922 666 922 643V186Q922 86 955 65T1057 35Q1075 31 1075 16Q1075
0 1057 0H618Q604 0 604 14Q604 31 618 33Q696 43 726 80T756 186V547Q756 700 709 762Q670 815 575 815Q457 815 358 707V186Q358 86 393 64T485 35Q504 31 504 16Q504 0 485 0H63Q47 0 47 14Q49 31 63 33Q133 41 162 78Q182 104 182 186V754Q182 827 125 827Q115
827 103 824T68 811Q61 809 57 809Q45 809 39 819Q35 831 41 842Q55 862 106 887Q170 918 233 918Q354 918 354 782V780Q489 924 670 924Q856 924 907 756L936 780Q1073 924 1249 924Q1493 924 1493 643V186Q1493 86 1526 66Q1540 53 1606 35Q1626 31 1626 16Q1626
0 1606 0Z" />
<glyph unicode="n" glyph-name="n" horiz-adv-x="1058" d="M1016 0H596Q580 0 582 14Q582 31 596 33Q682 43 707 84Q725 115 725 186V621Q725 815 565 815Q451 815 352 707V186Q352 86 387 64T473 35Q494 31 494 16Q494 0 473 0H51Q37 0 37 14Q37 31 51 33Q121
41 150 78Q170 104 170 186V754Q170 827 113 827Q102 827 91 824T57 811Q51 809 45 809Q35 809 29 819Q25 831 31 842Q43 862 96 887Q158 918 223 918Q346 918 346 782V780Q481 924 659 924Q901 924 901 643V186Q901 86 936 66Q950 53 1016 35Q1034 31 1034 16Q1034
0 1016 0Z" />
<glyph unicode="o" glyph-name="o" horiz-adv-x="1056" d="M993 434Q993 233 858 101T526 -31Q319 -31 186 106T53 457Q53 657 186 789T520 922Q737 922 865 788T993 434ZM795 385Q797 412 797 438Q797 590 737 700Q664 831 526 844Q401 856 326 741Q264 647 252
508Q248 479 248 449Q248 289 307 178Q381 41 522 41Q645 41 721 158Q784 252 795 385Z" />
<glyph unicode="p" glyph-name="p" horiz-adv-x="1056" d="M993 449Q993 250 885 109Q786 -20 578 -20Q420 -20 338 88V-252Q338 -350 368 -370T483 -403Q502 -408 502 -422Q502 -438 483 -438H27Q10 -438 12 -424Q12 -408 27 -406Q115 -395 139 -354Q158 -324
158 -252V768Q158 842 104 842Q94 842 83 838T49 823Q43 821 37 821Q27 821 20 831Q16 842 23 854Q35 874 88 899Q150 930 213 930Q336 930 336 795Q422 920 618 920Q780 920 891 795Q993 678 993 449ZM813 449Q813 653 733 739T541 825Q463 825 401 781T338 655V199Q389
68 532 68Q668 68 735 158Q813 260 813 449Z" />
<glyph unicode="q" glyph-name="q" horiz-adv-x="1054" d="M1044 -438H567Q553 -438 553 -424Q553 -408 567 -406Q670 -393 694 -362T719 -252V88Q635 -20 473 -20Q266 -20 166 109Q57 250 57 461Q57 678 160 795Q272 920 432 920Q614 920 717 823Q748 864 795
897T870 930Q899 930 899 899V-252Q899 -350 934 -373Q963 -391 1044 -403Q1063 -408 1063 -422Q1063 -438 1044 -438ZM715 199V655Q715 735 651 780T512 825Q397 825 318 739T238 449Q238 213 350 121Q416 68 518 68Q662 68 715 199Z" />
<glyph unicode="r" glyph-name="r" horiz-adv-x="714" d="M715 819Q715 725 627 725Q590 725 546 760T485 795Q438 795 391 734T344 625V186Q344 88 379 66Q403 49 506 35Q524 31 524 16Q524 0 506 0H27Q10 0 10 14Q12 31 27 33Q121 45 146 77T170 186V731Q170
823 109 823Q92 823 76 817Q35 801 29 801Q8 801 8 821Q8 831 20 842Q106 920 211 920Q334 920 340 766L342 739Q481 926 596 926Q645 926 680 897T715 819Z" />
<glyph unicode="s" glyph-name="s" horiz-adv-x="823" d="M737 236Q737 111 627 41Q535 -16 403 -16Q289 -16 190 35Q82 92 82 176Q82 244 158 244Q223 244 236 166Q244 119 298 76T403 33Q588 33 588 170Q588 244 512 301Q487 319 354 389Q203 471 152 539Q106
594 106 682Q106 791 191 861T401 932Q516 932 596 887Q686 836 686 752Q686 684 614 684Q549 684 539 752Q520 881 395 881Q324 881 281 841T238 743Q238 639 432 553Q737 414 737 236Z" />
<glyph unicode="t" glyph-name="t" horiz-adv-x="587" d="M571 111Q520 41 457 12T338 -18Q150 -18 150 240V799H37Q8 813 31 827Q143 895 287 1124Q295 1139 309 1139Q332 1139 332 1120V868H528Q537 868 541 858Q543 848 539 842Q498 799 426 799H326V268Q326
88 436 88Q500 88 543 137Q549 147 557 147Q575 147 575 125Q575 117 571 111Z" />
<glyph unicode="u" glyph-name="u" horiz-adv-x="1058" d="M1022 74Q1001 49 967 27Q907 -12 848 -12Q793 -12 755 24T717 127V158Q559 -18 401 -18Q287 -18 220 54T152 244V756Q152 827 96 827Q84 827 73 824T39 811Q33 809 27 809Q8 809 8 829Q8 836 10 842Q25
862 76 887Q139 918 205 918Q328 918 328 782V281Q328 98 487 98Q602 98 702 211V754Q702 827 647 827Q635 827 624 824T590 811Q584 809 578 809Q567 809 561 819Q557 831 563 842Q578 862 629 887Q692 918 758 918Q881 918 881 782V178Q881 98 944 98Q977 98
997 113Q1008 119 1018 119Q1036 119 1036 102Q1036 90 1022 74Z" />
<glyph unicode="v" glyph-name="v" horiz-adv-x="1058" d="M993 879Q956 870 942 856Q922 834 883 741L573 14Q559 -18 545 -18Q530 -18 512 20L188 754Q156 829 121 856Q100 870 55 879Q37 881 37 895Q37 911 55 911H438Q455 911 457 897Q457 883 442 881Q373
870 360 848Q348 821 377 752L594 244L799 743Q825 811 811 842Q795 870 729 881Q715 883 717 897Q717 911 733 911H993Q1012 911 1012 895Q1012 881 993 879Z" />
<glyph unicode="w" glyph-name="w" horiz-adv-x="1529" d="M1452 879Q1417 864 1368 748L1051 -2Q1044 -20 1034 -20Q1022 -14 1020 -10L786 539L514 -8Q508 -20 500 -20Q487 -14 485 -10L154 764Q123 838 107 855T55 879Q37 881 37 895Q37 911 55 911H410Q424
911 426 897Q428 883 414 881Q348 870 336 848Q317 813 348 739L551 240L739 631Q739 653 688 768Q659 834 631 856Q612 872 573 879Q553 881 553 895Q553 911 573 911H967Q983 911 985 897Q985 883 971 881Q883 866 870 842Q854 803 879 739L1075 252L1284 743Q1313
809 1294 844Q1282 870 1221 881Q1206 883 1206 897Q1206 911 1223 911H1450Q1470 911 1470 897Q1470 885 1452 879Z" />
<glyph unicode="x" glyph-name="x" horiz-adv-x="1058" d="M997 0H596Q580 0 580 14Q580 29 596 31Q621 35 647 39Q659 43 668 57Q672 63 672 74Q672 104 625 172L467 393L307 158Q252 78 256 59Q262 41 330 31Q344 29 344 14Q344 0 328 0H55Q35 0 35 18Q35 31
51 35Q106 51 125 63Q160 92 238 199L432 465L225 762Q174 838 141 856Q127 864 70 872Q51 874 51 889Q51 907 70 907H475Q492 907 494 891Q494 877 479 874Q428 866 428 866Q397 856 397 829Q397 807 442 735L524 606L639 770Q670 817 664 842Q657 864 600 874Q586
877 586 891Q586 907 602 907H897Q918 907 918 889Q918 874 901 872Q844 862 821 850Q772 825 721 756L565 545L823 178Q885 90 920 61Q948 41 997 35Q1016 31 1016 16Q1016 0 997 0Z" />
<glyph unicode="y" glyph-name="y" horiz-adv-x="1058" d="M993 874Q956 866 942 852Q924 829 887 737L578 -37Q504 -223 453 -299Q354 -440 219 -440Q156 -440 113 -414Q59 -383 59 -326Q59 -236 168 -236Q195 -236 248 -254T324 -272Q377 -272 446 -147Q510
-33 510 27Q510 47 500 70L168 748Q131 823 102 848Q86 864 47 870Q29 874 29 891Q29 909 47 909H449Q465 909 465 893Q467 874 453 872Q410 868 395 864Q358 854 348 836Q334 811 365 745L606 233L801 748Q825 809 811 838Q795 866 729 872Q715 874 717 891Q717
909 733 909H993Q1012 909 1012 893Q1012 877 993 874Z" />
<glyph unicode="z" glyph-name="z" horiz-adv-x="940" d="M885 254L862 45Q858 0 799 0H88Q61 0 61 31Q61 41 68 49L618 844H342Q229 844 196 807T150 684Q145 662 127 662Q113 662 113 684L117 858Q117 903 166 903H817Q848 903 848 874Q848 864 844 856L283
61H575Q727 61 768 98Q815 143 848 260Q854 281 868 281Q887 281 885 254Z" />
<glyph unicode="{" glyph-name="braceleft" horiz-adv-x="677" d="M657 -182Q657 -212 637 -212Q565 -212 453 -196Q330 -180 276 -158T203 -75Q193 -38 193 39V397Q193 434 49 508Q20 522 20 551Q20 580 57 602Q104 629 152 657Q193 684 193 719V1071Q193 1161
213 1200Q238 1253 319 1278Q449 1317 637 1317Q657 1317 657 1286Q657 1268 637 1264Q563 1255 418 1221Q369 1204 352 1157Q342 1128 342 1063V760Q342 690 309 657Q295 641 231 610L117 553V549L229 502Q293 475 315 453Q346 420 346 362V35Q346 -32 352 -55Q367
-100 414 -116Q442 -126 637 -157Q657 -161 657 -182Z" />
<glyph unicode="|" glyph-name="bar" horiz-adv-x="454" d="M270 -143L184 -213V1260L270 1327V-143Z" />
<glyph unicode="}" glyph-name="braceright" horiz-adv-x="677" d="M657 551Q657 522 629 508Q485 434 485 397V39Q485 -38 475 -75Q457 -135 403 -157T225 -196Q113 -212 41 -212Q20 -212 20 -182Q20 -161 41 -157Q131 -145 264 -116Q311 -100 326 -55Q332 -32
332 35V362Q332 420 362 453Q385 475 449 502L561 549V553L446 610Q383 641 369 657Q336 690 336 760V1063Q336 1098 334 1122Q324 1198 260 1221Q217 1235 141 1247Q41 1264 41 1264Q20 1268 20 1286Q20 1317 41 1317Q229 1317 358 1278Q440 1253 465 1200Q485
1161 485 1071V719Q485 684 529 657T621 602Q657 580 657 551Z" />
<glyph unicode="~" glyph-name="asciitilde" horiz-adv-x="1107" d="M1076 641Q1035 469 957 395Q888 330 796 330Q708 330 518 405T267 481Q140 481 75 295Q62 258 42 258Q22 258 28 295Q42 395 101 485Q175 598 298 598Q380 598 570 526T830 453Q904 453 955
514Q994 559 1025 641Q1041 682 1062 682Q1078 682 1078 655Q1078 649 1076 641Z" />
</font>
</defs>
</svg>
