<svg xmlns="http://www.w3.org/2000/svg" width="57.752" height="44" viewBox="0 0 57.752 44">
  <g id="Group_3073" data-name="Group 3073" transform="translate(-776.595 -476.5)">
    <rect id="Rectangle_6437" data-name="Rectangle 6437" width="57.752" height="44" rx="5" transform="translate(776.595 476.5)" fill="#e9e9f0"/>
    <g id="Group_3070" data-name="Group 3070" transform="translate(788.716 487.459)">
      <path id="Subtraction_52" data-name="Subtraction 52" d="M31.172,11.69H25.829a1.94,1.94,0,0,1-.03-.325v-.844h5.374a1.171,1.171,0,0,0,1.169-1.169V2.338a1.17,1.17,0,0,0-1.169-1.169H25.8V.324A1.939,1.939,0,0,1,25.828,0h5.344a2.341,2.341,0,0,1,2.338,2.338V9.352A2.341,2.341,0,0,1,31.172,11.69Zm-7.055,0H22.772a3.171,3.171,0,0,0,.017-.325v-.844H24.1v.844a3.17,3.17,0,0,0,.017.325Zm-3.056,0H2.338A2.341,2.341,0,0,1,0,9.352V2.338A2.34,2.34,0,0,1,2.338,0H21.061a1.946,1.946,0,0,1,.03.324v.845H2.338A1.17,1.17,0,0,0,1.169,2.338V9.352a1.17,1.17,0,0,0,1.169,1.169H21.091v.844a1.944,1.944,0,0,1-.03.325ZM24.1,1.169h-1.31V.324A3.175,3.175,0,0,0,22.772,0h1.344A3.175,3.175,0,0,0,24.1.324v.844Z" transform="translate(0 5.196)" fill="#44479d" opacity="0.5"/>
      <path id="Path_19133" data-name="Path 19133" d="M-116.268-32.636a2.758,2.758,0,0,1,.3-1.517.74.74,0,0,1,.617-.312.739.739,0,0,1,.617.312,2.758,2.758,0,0,1,.3,1.517,2.758,2.758,0,0,1-.3,1.517.74.74,0,0,1-.617.312.74.74,0,0,1-.617-.312A2.758,2.758,0,0,1-116.268-32.636Zm-.9,0a3.3,3.3,0,0,0,.482,1.985,1.623,1.623,0,0,0,1.34.659,1.623,1.623,0,0,0,1.34-.659,3.3,3.3,0,0,0,.482-1.985,3.3,3.3,0,0,0-.482-1.985,1.623,1.623,0,0,0-1.34-.659,1.623,1.623,0,0,0-1.34.659A3.3,3.3,0,0,0-117.168-32.636Zm5.324,0a2.758,2.758,0,0,1,.3-1.517.739.739,0,0,1,.617-.312.739.739,0,0,1,.617.312,2.758,2.758,0,0,1,.3,1.517,2.758,2.758,0,0,1-.3,1.517.739.739,0,0,1-.617.312.739.739,0,0,1-.617-.312A2.758,2.758,0,0,1-111.844-32.636Zm-.9,0a3.3,3.3,0,0,0,.482,1.985,1.623,1.623,0,0,0,1.34.659,1.623,1.623,0,0,0,1.34-.659,3.3,3.3,0,0,0,.482-1.985,3.3,3.3,0,0,0-.482-1.985,1.623,1.623,0,0,0-1.34-.659,1.623,1.623,0,0,0-1.34.659A3.3,3.3,0,0,0-112.744-32.636Zm5.324,0a2.758,2.758,0,0,1,.3-1.517.739.739,0,0,1,.617-.312.74.74,0,0,1,.617.312,2.758,2.758,0,0,1,.3,1.517,2.758,2.758,0,0,1-.3,1.517.74.74,0,0,1-.617.312.739.739,0,0,1-.617-.312A2.758,2.758,0,0,1-107.42-32.636Zm-.9,0a3.3,3.3,0,0,0,.482,1.985,1.624,1.624,0,0,0,1.34.659,1.623,1.623,0,0,0,1.34-.659,3.3,3.3,0,0,0,.482-1.985,3.3,3.3,0,0,0-.482-1.985,1.623,1.623,0,0,0-1.34-.659,1.623,1.623,0,0,0-1.34.659A3.3,3.3,0,0,0-108.32-32.636Zm5.324,0a2.758,2.758,0,0,1,.3-1.517.74.74,0,0,1,.617-.312.739.739,0,0,1,.617.312,2.758,2.758,0,0,1,.3,1.517,2.758,2.758,0,0,1-.3,1.517.739.739,0,0,1-.617.312.74.74,0,0,1-.617-.312A2.758,2.758,0,0,1-103-32.636Zm-.9,0a3.3,3.3,0,0,0,.482,1.985,1.623,1.623,0,0,0,1.34.659,1.623,1.623,0,0,0,1.34-.659,3.3,3.3,0,0,0,.482-1.985,3.3,3.3,0,0,0-.482-1.985,1.623,1.623,0,0,0-1.34-.659,1.623,1.623,0,0,0-1.34.659A3.3,3.3,0,0,0-103.9-32.636Z" transform="translate(120.395 43.677)" fill="#44479d"/>
      <g id="textcursor" transform="translate(17.924 0)">
        <path id="Path_19132" data-name="Path 19132" d="M9.661,2.76H8.28q-.518,0-.949,1.024A4.645,4.645,0,0,0,6.9,5.52V16.561A4.645,4.645,0,0,0,7.332,18.3q.431,1.024.949,1.024h1.38a1.4,1.4,0,0,1,1.38,1.391,1.3,1.3,0,0,1-.41.97,1.344,1.344,0,0,1-.97.4H7.59a1.923,1.923,0,0,1-1.348-.895,2.936,2.936,0,0,1-.722-1.865A2.936,2.936,0,0,1,4.8,21.186a1.923,1.923,0,0,1-1.348.895H1.38a1.334,1.334,0,0,1-.981-.4,1.321,1.321,0,0,1-.4-.97,1.357,1.357,0,0,1,.4-.981,1.316,1.316,0,0,1,.981-.41H2.76q.518,0,.949-1.024a4.645,4.645,0,0,0,.431-1.736V5.52a4.645,4.645,0,0,0-.431-1.736Q3.278,2.76,2.76,2.76H1.38a1.334,1.334,0,0,1-.981-.4,1.321,1.321,0,0,1-.4-.97A1.357,1.357,0,0,1,.4.41,1.316,1.316,0,0,1,1.38,0H3.45q.582,0,1.326.895A2.887,2.887,0,0,1,5.52,2.76,2.887,2.887,0,0,1,6.264.895Q7.008,0,7.59,0h2.07a1.326,1.326,0,0,1,.97.41,1.339,1.339,0,0,1,.41.981,1.3,1.3,0,0,1-.41.97A1.344,1.344,0,0,1,9.661,2.76Z" transform="translate(0 0)" fill="#44479d"/>
      </g>
    </g>
  </g>
</svg>
