<svg xmlns="http://www.w3.org/2000/svg" width="57.752" height="44" viewBox="0 0 57.752 44">
  <g id="Group_3071" data-name="Group 3071" transform="translate(-776.595 -325)">
    <rect id="Rectangle_6435" data-name="Rectangle 6435" width="57.752" height="44" rx="5" transform="translate(776.595 325)" fill="#e9e9f0"/>
    <g id="Group_3068" data-name="Group 3068" transform="translate(783.221 332.988)">
      <path id="Subtraction_51" data-name="Subtraction 51" d="M26.444,0H3.543A3.547,3.547,0,0,0,0,3.543v9.743H29.986V3.543A3.547,3.547,0,0,0,26.444,0ZM6.073,10.249a1.9,1.9,0,0,1-1.9-1.9V7.085a1.9,1.9,0,0,1,1.9-1.9H9.111a1.9,1.9,0,0,1,1.9,1.9V8.351a1.9,1.9,0,0,1-1.9,1.9Zm23.913,6.832H0v1.645a3.572,3.572,0,0,0,.062.666H20.008a2.88,2.88,0,0,1,2.877,2.877h3.559a3.547,3.547,0,0,0,3.543-3.543V17.082Z" transform="translate(14.513 0.001)" fill="#44479d"/>
      <path id="Rectangle_6435-2" data-name="Rectangle 6435" d="M3.233,4.808V.288A2.057,2.057,0,0,1,5.288-1.767H36.521A2.057,2.057,0,0,1,38.576.288v4.52H3.233M2,6.041H39.808V.288A3.288,3.288,0,0,0,36.521-3H5.288A3.288,3.288,0,0,0,2,.288Z" transform="translate(-2 21.981)" fill="#9597c6"/>
      <path id="Line_1559" data-name="Line 1559" d="M9.774-.5H-.089A.411.411,0,0,0-.5-.089.411.411,0,0,0-.089.322H9.774a.411.411,0,0,0,.411-.411A.411.411,0,0,0,9.774-.5Z" transform="translate(0.5 12.906)" fill="#9597c6"/>
      <path id="Line_1560" data-name="Line 1560" d="M5.664-.5H-.089A.411.411,0,0,0-.5-.089.411.411,0,0,0-.089.322H5.664a.411.411,0,0,0,.411-.411A.411.411,0,0,0,5.664-.5Z" transform="translate(4.61 9.618)" fill="#9597c6"/>
    </g>
  </g>
</svg>
