<svg xmlns="http://www.w3.org/2000/svg" width="57.752" height="44" viewBox="0 0 57.752 44">
  <g id="Group_3072" data-name="Group 3072" transform="translate(-776.595 -400.5)">
    <rect id="Rectangle_6436" data-name="Rectangle 6436" width="57.752" height="44" rx="5" transform="translate(776.595 400.5)" fill="#e9e9f0"/>
    <g id="Group_3069" data-name="Group 3069" transform="translate(785.512 407.693)">
      <g id="mail-outline" transform="translate(11.577 16.307)" opacity="0.5">
        <path id="Rectangle_6435" data-name="Rectangle 6435" d="M-3.963-6.08h12.7a2.119,2.119,0,0,1,2.117,2.117V5.11A2.119,2.119,0,0,1,8.739,7.227h-12.7A2.119,2.119,0,0,1-6.08,5.11V-3.963A2.119,2.119,0,0,1-3.963-6.08Zm12.7,12.1a.908.908,0,0,0,.907-.907V-3.963a.908.908,0,0,0-.907-.907h-12.7a.908.908,0,0,0-.907.907V5.11a.908.908,0,0,0,.907.907Z" transform="translate(6.08 6.08)" fill="#44479d"/>
        <path id="Path_19128" data-name="Path 19128" d="M42.528,60.163a.6.6,0,0,1-.371-.127L36.713,55.8a.6.6,0,0,1,.743-.955l5.072,3.945L47.6,54.847a.6.6,0,0,1,.743.955L42.9,60.036A.6.6,0,0,1,42.528,60.163Z" transform="translate(-34.06 -52.3)" fill="#44479d"/>
      </g>
      <path id="Subtraction_53" data-name="Subtraction 53" d="M-14760.358-18696.187h-36.034a2.1,2.1,0,0,1-1.5-.619,2.1,2.1,0,0,1-.62-1.5v-7.271a2.1,2.1,0,0,1,.62-1.5,2.1,2.1,0,0,1,1.5-.619h33.171a4.407,4.407,0,0,0-.052.662,4.372,4.372,0,0,0,4.371,4.365,4.738,4.738,0,0,0,.667-.051v4.412a2.089,2.089,0,0,1-.625,1.5A2.108,2.108,0,0,1-14760.358-18696.187Zm-4.037-7.82a1.461,1.461,0,0,0-1.207.6,3,3,0,0,0-.432,1.783,3.009,3.009,0,0,0,.432,1.789,1.466,1.466,0,0,0,1.207.6,1.471,1.471,0,0,0,1.211-.6,3.005,3.005,0,0,0,.433-1.789,2.993,2.993,0,0,0-.433-1.783A1.466,1.466,0,0,0-14764.4-18704.008Zm-3.981,0a1.451,1.451,0,0,0-1.207.6,2.955,2.955,0,0,0-.437,1.783,2.967,2.967,0,0,0,.437,1.789,1.456,1.456,0,0,0,1.207.6,1.455,1.455,0,0,0,1.206-.6,3,3,0,0,0,.433-1.789,2.985,2.985,0,0,0-.433-1.783A1.448,1.448,0,0,0-14768.377-18704.008Zm-3.986,0a1.448,1.448,0,0,0-1.206.6,2.922,2.922,0,0,0-.433,1.783,2.934,2.934,0,0,0,.433,1.789,1.455,1.455,0,0,0,1.206.6,1.456,1.456,0,0,0,1.207-.6,2.967,2.967,0,0,0,.437-1.789,2.955,2.955,0,0,0-.437-1.783A1.451,1.451,0,0,0-14772.363-18704.008Zm-3.986,0a1.46,1.46,0,0,0-1.206.6,2.993,2.993,0,0,0-.432,1.783,3,3,0,0,0,.432,1.789,1.466,1.466,0,0,0,1.206.6,1.456,1.456,0,0,0,1.207-.6,2.967,2.967,0,0,0,.437-1.789,2.955,2.955,0,0,0-.437-1.783A1.448,1.448,0,0,0-14776.35-18704.008Zm-3.98,0a1.448,1.448,0,0,0-1.207.6,2.955,2.955,0,0,0-.437,1.783,2.967,2.967,0,0,0,.437,1.789,1.456,1.456,0,0,0,1.207.6,1.455,1.455,0,0,0,1.206-.6,3,3,0,0,0,.432-1.789,2.993,2.993,0,0,0-.432-1.783A1.448,1.448,0,0,0-14780.33-18704.008Zm-3.986,0a1.448,1.448,0,0,0-1.207.6,2.955,2.955,0,0,0-.437,1.783,2.967,2.967,0,0,0,.437,1.789,1.456,1.456,0,0,0,1.207.6,1.455,1.455,0,0,0,1.206-.6,2.934,2.934,0,0,0,.433-1.789,2.922,2.922,0,0,0-.433-1.783A1.448,1.448,0,0,0-14784.316-18704.008Zm-3.986,0a1.451,1.451,0,0,0-1.207.6,2.993,2.993,0,0,0-.432,1.783,3,3,0,0,0,.432,1.789,1.456,1.456,0,0,0,1.207.6,1.456,1.456,0,0,0,1.207-.6,2.967,2.967,0,0,0,.437-1.789,2.955,2.955,0,0,0-.437-1.783A1.451,1.451,0,0,0-14788.3-18704.008Zm-3.981,0a1.448,1.448,0,0,0-1.206.6,2.959,2.959,0,0,0-.437,1.783,2.971,2.971,0,0,0,.438,1.789,1.455,1.455,0,0,0,1.206.6,1.466,1.466,0,0,0,1.207-.6,3,3,0,0,0,.432-1.789,2.993,2.993,0,0,0-.432-1.783A1.461,1.461,0,0,0-14792.284-18704.008Zm27.889,4.027a.659.659,0,0,1-.554-.281,2.39,2.39,0,0,1-.272-1.367,2.4,2.4,0,0,1,.272-1.365.658.658,0,0,1,.554-.277.664.664,0,0,1,.559.277,2.408,2.408,0,0,1,.272,1.365,2.424,2.424,0,0,1-.272,1.367A.665.665,0,0,1-14764.4-18699.98Zm-3.981,0a.67.67,0,0,1-.559-.281,2.441,2.441,0,0,1-.272-1.367,2.451,2.451,0,0,1,.272-1.365.665.665,0,0,1,.559-.277.66.66,0,0,1,.554.277,2.414,2.414,0,0,1,.277,1.365,2.409,2.409,0,0,1-.277,1.367A.661.661,0,0,1-14768.377-18699.98Zm-3.986,0a.655.655,0,0,1-.554-.281,2.409,2.409,0,0,1-.277-1.367,2.423,2.423,0,0,1,.277-1.365.65.65,0,0,1,.554-.277.648.648,0,0,1,.554.277,2.414,2.414,0,0,1,.277,1.365,2.409,2.409,0,0,1-.277,1.367A.659.659,0,0,1-14772.363-18699.98Zm-3.986,0a.661.661,0,0,1-.554-.281,2.424,2.424,0,0,1-.272-1.367,2.408,2.408,0,0,1,.272-1.365.66.66,0,0,1,.554-.277.671.671,0,0,1,.56.277,2.4,2.4,0,0,1,.271,1.365,2.433,2.433,0,0,1-.271,1.367A.675.675,0,0,1-14776.35-18699.98Zm-3.98,0a.675.675,0,0,1-.56-.281,2.433,2.433,0,0,1-.271-1.367,2.4,2.4,0,0,1,.271-1.365.671.671,0,0,1,.56-.277.66.66,0,0,1,.554.277,2.408,2.408,0,0,1,.272,1.365,2.424,2.424,0,0,1-.272,1.367A.661.661,0,0,1-14780.33-18699.98Zm-3.986,0a.655.655,0,0,1-.555-.281,2.418,2.418,0,0,1-.276-1.367,2.433,2.433,0,0,1,.276-1.365.652.652,0,0,1,.555-.277.65.65,0,0,1,.554.277,2.423,2.423,0,0,1,.277,1.365,2.409,2.409,0,0,1-.277,1.367A.655.655,0,0,1-14784.316-18699.98Zm-3.986,0a.661.661,0,0,1-.554-.281,2.415,2.415,0,0,1-.272-1.367,2.4,2.4,0,0,1,.272-1.365.66.66,0,0,1,.554-.277.664.664,0,0,1,.559.277,2.451,2.451,0,0,1,.272,1.365,2.441,2.441,0,0,1-.272,1.367A.665.665,0,0,1-14788.3-18699.98Zm-3.981,0a.665.665,0,0,1-.559-.281,2.424,2.424,0,0,1-.272-1.367,2.408,2.408,0,0,1,.272-1.365.664.664,0,0,1,.559-.277.658.658,0,0,1,.554.277,2.414,2.414,0,0,1,.277,1.365,2.409,2.409,0,0,1-.277,1.367A.659.659,0,0,1-14792.284-18699.98Z" transform="translate(14798.512 18709.336)" fill="#44479d"/>
      <path id="Path_19129" data-name="Path 19129" d="M1.687.235a.532.532,0,0,1,.883,0l1.6,2.372a.532.532,0,0,1-.442.829H.533a.532.532,0,0,1-.442-.829Z" transform="translate(22.234 15.186) rotate(180)" fill="#44479d"/>
      <circle id="Ellipse_673" data-name="Ellipse 673" cx="2.466" cy="2.466" r="2.466" transform="translate(36.986 0)" fill="#44479d"/>
    </g>
  </g>
</svg>
