<svg width="20" height="20" viewBox="0 0 20 20" fill="none" xmlns="http://www.w3.org/2000/svg">
<g clip-path="url(#clip0_1101_2)">
<path d="M8.75 9.375C11.1662 9.375 13.125 7.41625 13.125 5C13.125 2.58375 11.1662 0.625 8.75 0.625C6.33375 0.625 4.375 2.58375 4.375 5C4.375 7.41625 6.33375 9.375 8.75 9.375Z" fill="white"/>
<path d="M8.75 10.625C6.59588 10.6275 4.53069 11.4843 3.0075 13.0075C1.4843 14.5307 0.627481 16.5959 0.625 18.75C0.625 18.9158 0.690848 19.0747 0.808058 19.1919C0.925268 19.3092 1.08424 19.375 1.25 19.375H16.25C16.4158 19.375 16.5747 19.3092 16.6919 19.1919C16.8092 19.0747 16.875 18.9158 16.875 18.75C16.8725 16.5959 16.0157 14.5307 14.4925 13.0075C12.9693 11.4843 10.9041 10.6275 8.75 10.625Z" fill="white"/>
<path d="M18.75 8.75H16.875V6.875C16.875 6.70924 16.8092 6.55027 16.6919 6.43306C16.5747 6.31585 16.4158 6.25 16.25 6.25C16.0842 6.25 15.9253 6.31585 15.8081 6.43306C15.6908 6.55027 15.625 6.70924 15.625 6.875V8.75H13.75C13.5842 8.75 13.4253 8.81585 13.3081 8.93306C13.1908 9.05027 13.125 9.20924 13.125 9.375C13.125 9.54076 13.1908 9.69973 13.3081 9.81694C13.4253 9.93415 13.5842 10 13.75 10H15.625V11.875C15.625 12.0408 15.6908 12.1997 15.8081 12.3169C15.9253 12.4342 16.0842 12.5 16.25 12.5C16.4158 12.5 16.5747 12.4342 16.6919 12.3169C16.8092 12.1997 16.875 12.0408 16.875 11.875V10H18.75C18.9158 10 19.0747 9.93415 19.1919 9.81694C19.3092 9.69973 19.375 9.54076 19.375 9.375C19.375 9.20924 19.3092 9.05027 19.1919 8.93306C19.0747 8.81585 18.9158 8.75 18.75 8.75Z" fill="white"/>
</g>
<defs>
<clipPath id="clip0_1101_2">
<rect width="20" height="20" fill="white"/>
</clipPath>
</defs>
</svg>
