<?xml version="1.0" encoding="UTF-8"?>
<!-- Created with Inkscape (http://www.inkscape.org/) -->
<svg width="11.713mm" height="10.496mm" version="1.1" viewBox="0 0 11.713 10.496" xmlns="http://www.w3.org/2000/svg">
 <g transform="translate(-103.23 -140.79)" fill="#f6aa0a" stroke-width=".12174">
  <path d="m112.97 102.83c-0.72605-0.27336-1.0074-1.0833-0.63143-1.8175 0.61257-1.1962 4.6891-8.1686 4.9024-8.3852 0.16852-0.17091 0.40107-0.24344 0.78098-0.24344 0.37981 0 0.61272 0.0724 0.7814 0.24344 0.21157 0.21447 4.2647 7.1491 4.9009 8.3852 0.30032 0.58351 0.22353 1.1345-0.21567 1.5472l-0.31218 0.29338-5.0119 0.0231c-2.7566 0.0129-5.094-0.01-5.1945-0.0465zm10.08-1.083c0.0221-0.15485-0.89925-1.877-2.3609-4.4129-2.011-3.4891-2.4405-4.159-2.6666-4.159-0.22596 0-0.6547 0.66842-2.6606 4.1488-1.3153 2.2818-2.3914 4.2448-2.3914 4.3622 0 0.11739 0.0368 0.25056 0.0823 0.29588 0.0457 0.0457 2.3051 0.0682 5.0216 0.0508 4.9027-0.0316 4.9394-0.034 4.9754-0.28575zm-5.4536-1.0243c-0.18202-0.34022 0.0459-0.73038 0.42607-0.73038 0.17123 0 0.35071 0.10256 0.42611 0.24345 0.18214 0.34032-0.0459 0.73042-0.42611 0.73042-0.17117 0-0.35064-0.10253-0.42607-0.24349zm0.0746-2.0999c-0.20474-2.0159-0.20624-2.4984-0.01-2.696 0.29175-0.29178 0.65316-0.24173 0.78648 0.10896 0.10614 0.27907-0.0349 2.6675-0.18097 3.074-0.0302 0.0836-0.16212 0.15216-0.29333 0.15216-0.19837 0-0.2495-0.10767-0.30346-0.63906z"/>
  <path d="m104.02 151.24c-0.72605-0.27336-1.0074-1.0833-0.63143-1.8175 0.61257-1.1962 4.6891-8.1686 4.9024-8.3852 0.16852-0.17091 0.40107-0.24344 0.78098-0.24344 0.37981 0 0.61272 0.0724 0.7814 0.24344 0.21157 0.21447 4.2647 7.1491 4.9009 8.3852 0.30032 0.58351 0.22353 1.1345-0.21567 1.5472l-0.31218 0.29338-5.0119 0.0231c-2.7566 0.0129-5.094-0.01-5.1945-0.0465zm10.08-1.083c0.0221-0.15485-0.89925-1.877-2.3609-4.4129-2.011-3.4891-2.4405-4.159-2.6666-4.159-0.22596 0-0.6547 0.66842-2.6606 4.1488-1.3153 2.2818-2.3914 4.2448-2.3914 4.3622 0 0.11739 0.0368 0.25056 0.0823 0.29588 0.0457 0.0457 2.3051 0.0682 5.0216 0.0508 4.9027-0.0316 4.9394-0.034 4.9754-0.28575zm-5.4536-1.0243c-0.18202-0.34022 0.0459-0.73039 0.42607-0.73039 0.17123 0 0.35071 0.10257 0.42611 0.24346 0.18214 0.34032-0.0459 0.73042-0.42611 0.73042-0.17117 0-0.35064-0.10253-0.42607-0.24349zm0.0746-2.0999c-0.20474-2.0159-0.20624-2.4984-0.01-2.696 0.29175-0.29178 0.65316-0.24173 0.78648 0.10896 0.10614 0.27907-0.0349 2.6675-0.18097 3.074-0.0302 0.0836-0.16212 0.15216-0.29333 0.15216-0.19837 0-0.2495-0.10767-0.30346-0.63906z"/>
 </g>
</svg>
