<svg xmlns="http://www.w3.org/2000/svg" width="24" height="24" viewBox="0 0 24 24">
  <g id="check-circle-svgrepo-com" transform="translate(-1 -1)">
    <path id="Path_1" data-name="Path 1" d="M17.28,9.28a.75.75,0,0,0-1.06-1.06l-5.97,5.97L7.78,11.72a.75.75,0,0,0-1.06,1.06l3,3a.75.75,0,0,0,1.06,0l6.5-6.5Z" transform="translate(1 1.001)" fill="#20b737"/>
    <path id="Path_2" data-name="Path 2" d="M13,1A12,12,0,1,0,25,13,12,12,0,0,0,13,1ZM2.636,13A10.364,10.364,0,1,1,13,23.364,10.364,10.364,0,0,1,2.636,13Z" fill="#20b737" fill-rule="evenodd"/>
  </g>
</svg>
