<svg width="17" height="16" viewBox="0 0 17 16" fill="none" xmlns="http://www.w3.org/2000/svg">
<path d="M13.0614 12.074C13.1526 11.9703 13.2085 11.8445 13.2175 11.7225L13.6068 6.55063C13.6141 6.48595 13.6082 6.42377 13.5896 6.36784C13.5709 6.31191 13.5398 6.26338 13.4982 6.22517C13.4566 6.18696 13.4053 6.15987 13.3474 6.14552C13.2895 6.13116 13.2262 6.12985 13.1613 6.14166C13.0964 6.15347 13.0313 6.17815 12.9698 6.21422C12.9083 6.25029 12.8518 6.297 12.8036 6.35155C12.7555 6.4061 12.7166 6.46735 12.6894 6.53162C12.6623 6.59589 12.6474 6.66185 12.6456 6.72553L12.3492 10.6711L4.75689 3.20262C4.60204 3.04463 4.27361 3.08446 4.07352 3.28786C3.87344 3.49126 3.83901 3.82031 3.99952 3.97254L11.5918 11.441L7.65163 11.8022C7.58799 11.8051 7.52229 11.8211 7.45847 11.8493C7.39466 11.8775 7.33405 11.9174 7.2803 11.9664C7.22656 12.0155 7.18078 12.0728 7.14572 12.1349C7.11066 12.1969 7.08706 12.2624 7.07632 12.3275C7.06558 12.3926 7.06793 12.4559 7.08323 12.5135C7.09854 12.5712 7.12647 12.622 7.16536 12.663C7.20424 12.704 7.25328 12.7342 7.30951 12.752C7.36574 12.7697 7.42801 12.7745 7.49256 12.7662L12.6573 12.2919C12.7294 12.2855 12.8032 12.2625 12.8732 12.2247C12.9432 12.1869 13.0076 12.1354 13.0614 12.074V12.074Z" fill="#50C446"/>
</svg>
