<svg width="16" height="16" viewBox="0 0 16 16" fill="none" xmlns="http://www.w3.org/2000/svg">
<path d="M3.33966 3.03438C3.24191 3.13195 3.17803 3.25385 3.16117 3.37499L2.43796 8.51083C2.42649 8.5749 2.42831 8.63733 2.4433 8.69435C2.4583 8.75138 2.48617 8.80182 2.52522 8.84264C2.56428 8.88346 2.61372 8.91382 2.67056 8.93189C2.72741 8.94995 2.79049 8.95536 2.85601 8.94778C2.92153 8.9402 2.98812 8.91978 3.0518 8.88777C3.11547 8.85575 3.1749 8.81279 3.22651 8.76148C3.27813 8.71016 3.32085 8.65155 3.35212 8.58917C3.38339 8.5268 3.40256 8.46194 3.40847 8.39851L3.95959 4.48038L11.0526 12.4246C11.1969 12.5923 11.5272 12.5738 11.74 12.3838C11.9529 12.1938 12.0085 11.8676 11.8582 11.7053L4.76521 3.76109L8.7205 3.65567C8.78419 3.65696 8.8508 3.64524 8.91631 3.62121C8.98181 3.59718 9.04487 3.56134 9.10168 3.51585C9.15849 3.47035 9.20788 3.41615 9.24688 3.3565C9.28588 3.29684 9.31368 3.23297 9.32861 3.16873C9.34354 3.10449 9.34528 3.0412 9.33375 2.98268C9.32221 2.92415 9.29762 2.87161 9.26147 2.82819C9.22532 2.78478 9.17835 2.7514 9.12338 2.73006C9.06841 2.70873 9.00659 2.69987 8.94163 2.70404L3.75699 2.84301C3.68466 2.84482 3.60951 2.86299 3.53722 2.89614C3.46493 2.92929 3.39738 2.97656 3.33966 3.03438V3.03438Z" fill="#5D62E0"/>
</svg>
