<svg xmlns="http://www.w3.org/2000/svg" width="24.276" height="18.941" viewBox="0 0 24.276 18.941">
  <g id="Group_3136" data-name="Group 3136" transform="translate(-74.07 -17.497)">
    <path id="Icon_awesome-envelope" data-name="Icon awesome-envelope" d="M23.816,8.941a.285.285,0,0,1,.46.223v9.7A2.276,2.276,0,0,1,22,21.136H2.276A2.276,2.276,0,0,1,0,18.86V9.169a.284.284,0,0,1,.46-.223c1.062.825,2.47,1.873,7.307,5.386,1,.73,2.688,2.266,4.372,2.257,1.693.014,3.414-1.555,4.376-2.257C21.351,10.818,22.754,9.766,23.816,8.941Z" transform="translate(74.07 15.303)" fill="#5d62e0"/>
    <path id="Icon_awesome-envelope-2" data-name="Icon awesome-envelope" d="M12.138,15.548c1.1.019,2.684-1.384,3.48-1.963,6.292-4.566,6.771-4.964,8.222-6.1a1.135,1.135,0,0,0,.436-.9v-.9A2.276,2.276,0,0,0,22,3.41H2.276A2.276,2.276,0,0,0,0,5.686v.9a1.142,1.142,0,0,0,.436.9c1.451,1.133,1.93,1.536,8.222,6.1C9.454,14.164,11.038,15.567,12.138,15.548Z" transform="translate(74.07 14.087)" fill="#5d62e0" opacity="0.55"/>
  </g>
</svg>
