<svg id="SvgjsSvg1031" width="288" height="288" xmlns="http://www.w3.org/2000/svg" version="1.1" xmlns:xlink="http://www.w3.org/1999/xlink" xmlns:svgjs="http://svgjs.com/svgjs"><defs id="SvgjsDefs1032"></defs><g id="SvgjsG1033"><svg xmlns="http://www.w3.org/2000/svg" width="288" height="288" viewBox="0 0 28.448 31.003"><g data-name="Layer 2" fill="#000000" class="color000 svgShape"><g data-name="Layer 1" fill="#000000" class="color000 svgShape"><path fill="#b1a5cc" d="M544.43,262.31h0" data-name="Path 22" transform="translate(-527.172 -253.995)" class="color7b5bc4 svgShape"></path><path fill="#b1a5cc" d="M353.21,262.4h0" data-name="Path 23" transform="translate(-342.013 -254.082)" class="color7b5bc4 svgShape"></path><path fill="#b1a5cc" d="M20.166,289.572a.758.758,0,0,0-.856.112,9.753,9.753,0,0,1-4.949,1.437,9.9,9.9,0,0,1-5.227-1.437.75.75,0,0,0-.222-.139l-.041-.026-.006.009a.757.757,0,0,0-.587.047A15.95,15.95,0,0,0,0,303.379a7.455,7.455,0,0,0,1.894,5.552,8,8,0,0,0,4.552,2.046,39.3,39.3,0,0,0,6.234.337h3.06a39.493,39.493,0,0,0,6.253-.336,8.019,8.019,0,0,0,4.562-2.048,7.448,7.448,0,0,0,1.893-5.549A15.958,15.958,0,0,0,20.166,289.572ZM14.957,305.54a.751.751,0,1,1-1.5,0V304.9H11.662a.751.751,0,1,1,0-1.5h3.416a.958.958,0,1,0,0-1.915H13.369a2.458,2.458,0,1,1,0-4.917h.086v-.678a.751.751,0,1,1,1.5,0v.678h1.828a.751.751,0,1,1,0,1.5H13.369a.957.957,0,0,0,0,1.914h1.747a2.458,2.458,0,1,1-.039,4.917h-.12Z" data-name="Path 24" transform="translate(0 -280.311)" class="color7b5bc4 svgShape"></path><path fill="#b1a5cc" d="M251.923,205.03c-.1,0-.2,0-.307-.005a9.3,9.3,0,0,1-5.994-2.631.827.827,0,0,1-.051-1.128.736.736,0,0,1,1.075-.053,7.812,7.812,0,0,0,5.022,2.217,7.66,7.66,0,0,0,5.321-2.025.736.736,0,0,1,1.073.089.826.826,0,0,1-.085,1.126A9.2,9.2,0,0,1,251.923,205.03Z" data-name="Path 25" transform="translate(-237.595 -194.632)" class="color7b5bc4 svgShape"></path><path fill="#b1a5cc" d="M261.822.691a2.783,2.783,0,0,0-2.448-.666A10.741,10.741,0,0,0,255.948,1.1,10.577,10.577,0,0,0,252.542.036a2.807,2.807,0,0,0-2.464.658c-.366.412-.824,1.335.217,2.91.261.406.548.9.875,1.515a.753.753,0,0,0,.136.182c.8,1.147,2.3,2.807,4.419,2.931q.125.007.249.007a4.835,4.835,0,0,0,3.066-1.184,8.314,8.314,0,0,0,1.6-1.753.755.755,0,0,0,.1-.209c.129-.217.252-.437.367-.644l.02-.036c.159-.285.309-.555.467-.8C262.643,2.023,262.187,1.1,261.822.691Z" data-name="Path 26" transform="translate(-241.741 .004)" class="color7b5bc4 svgShape"></path></g></g></svg></g></svg>