<svg xmlns="http://www.w3.org/2000/svg" width="45" height="45" viewBox="0 0 45 45">
  <g id="Group_389" data-name="Group 389" transform="translate(-426.898 -1309)">
    <rect id="Rectangle_2624" data-name="Rectangle 2624" width="45" height="45" rx="7" transform="translate(426.898 1309)" fill="#fce3b8"/>
    <g id="Group_388" data-name="Group 388" transform="translate(440.506 1324.627)">
      <path id="Path_36" data-name="Path 36" d="M-46.025,174.98H-58.87a2.492,2.492,0,0,0-2.47,2.511v8.035a2.492,2.492,0,0,0,2.47,2.511h12.845a2.492,2.492,0,0,0,2.47-2.511v-8.035A2.492,2.492,0,0,0-46.025,174.98Zm.988,10.546a1,1,0,0,1-.988,1H-58.87a1,1,0,0,1-.988-1v-8.035a1,1,0,0,1,.988-1h12.845a1,1,0,0,1,.988,1Z" transform="translate(61.34 -174.98)" fill="#de8d0d"/>
      <path id="Path_37" data-name="Path 37" d="M-47.362,178.423l-5.1,3.656-5.1-3.656a.726.726,0,0,0-1.024.184.765.765,0,0,0,.181,1.05l5.521,3.959a.72.72,0,0,0,.422.137.718.718,0,0,0,.422-.137l5.521-3.959a.764.764,0,0,0,.181-1.05A.726.726,0,0,0-47.362,178.423Z" transform="translate(61.352 -174.965)" fill="#de8d0d"/>
    </g>
  </g>
</svg>
