<svg xmlns="http://www.w3.org/2000/svg" width="19.931" height="17.439" viewBox="0 0 19.931 17.439">
  <g id="printer" transform="translate(0 -12)" opacity="0.55">
    <g id="Group_3106" data-name="Group 3106" transform="translate(0 12)">
      <path id="Path_18071" data-name="Path 18071" d="M24.623,85.246A.623.623,0,1,0,24,84.623.623.623,0,0,0,24.623,85.246Z" transform="translate(-21.509 -76.526)" fill="#5c61de"/>
      <path id="Path_18072" data-name="Path 18072" d="M6.228,12a2.491,2.491,0,0,0-2.491,2.491v2.491H2.491A2.491,2.491,0,0,0,0,19.474v3.737A2.491,2.491,0,0,0,2.491,25.7H3.737v1.246a2.491,2.491,0,0,0,2.491,2.491H13.7a2.491,2.491,0,0,0,2.491-2.491V25.7h1.246a2.491,2.491,0,0,0,2.491-2.491V19.474a2.491,2.491,0,0,0-2.491-2.491H16.194V14.491A2.491,2.491,0,0,0,13.7,12ZM4.983,14.491a1.246,1.246,0,0,1,1.246-1.246H13.7a1.246,1.246,0,0,1,1.246,1.246v2.491H4.983ZM6.228,20.72a2.491,2.491,0,0,0-2.491,2.491v1.246H2.491a1.246,1.246,0,0,1-1.246-1.246V19.474a1.246,1.246,0,0,1,1.246-1.246H17.439a1.246,1.246,0,0,1,1.246,1.246v3.737a1.246,1.246,0,0,1-1.246,1.246H16.194V23.211A2.491,2.491,0,0,0,13.7,20.72Zm8.72,2.491v3.737A1.246,1.246,0,0,1,13.7,28.194H6.228a1.246,1.246,0,0,1-1.246-1.246V23.211a1.246,1.246,0,0,1,1.246-1.246H13.7A1.246,1.246,0,0,1,14.948,23.211Z" transform="translate(0 -12)" fill="#5c61de"/>
    </g>
  </g>
</svg>
