<svg xmlns="http://www.w3.org/2000/svg" width="14.949" height="14.949" viewBox="0 0 14.949 14.949">
  <g id="Group_2774" data-name="Group 2774" transform="translate(1.061 1.061)" opacity="0.78">
    <path id="Path_17721" data-name="Path 17721" d="M11.378,14.128a5.872,5.872,0,0,1-3.464,1.2c-4.082,0-6.414-4.665-6.414-4.665A10.758,10.758,0,0,1,4.45,7.2M6.69,6.14A5.318,5.318,0,0,1,7.914,6c4.082,0,6.414,4.665,6.414,4.665a10.787,10.787,0,0,1-1.259,1.86M9.15,11.9A1.749,1.749,0,1,1,6.678,9.429" transform="translate(-1.5 -4.251)" fill="none" stroke="#454545" stroke-linecap="round" stroke-linejoin="round" stroke-width="1.5"/>
    <path id="Path_17722" data-name="Path 17722" d="M1.5,1.5,14.328,14.328" transform="translate(-1.5 -1.5)" fill="none" stroke="#454545" stroke-linecap="round" stroke-linejoin="round" stroke-width="1.5"/>
  </g>
</svg>
