<svg xmlns="http://www.w3.org/2000/svg" width="26.833" height="28" viewBox="0 0 26.833 28">
  <g id="Group_2932" data-name="Group 2932" transform="translate(4840.628 12958.397)">
    <path id="Path_17934" data-name="Path 17934" d="M371.01,169.537a6.118,6.118,0,1,0-11.78,0Z" transform="translate(-5192.332 -13120.164)" fill="#fcb646"/>
    <path id="Path_408" data-name="Path 408" d="M519.618,162.953h-14.63a.23.23,0,0,1-.23-.23v-8.194a.23.23,0,0,1,.23-.23h5.976a.23.23,0,0,0,.23-.23v-2.62a.23.23,0,0,0-.23-.23H501.9a.23.23,0,0,0-.23.23v11.2a.23.23,0,0,1-.229.23h-8.194a.23.23,0,0,1-.23-.23V142.8a.23.23,0,0,1,.23-.229h26.373a.23.23,0,0,1,.23.229v19.928a.23.23,0,0,1-.23.23" transform="translate(-5333.644 -13093.351)" fill="#44479d"/>
  </g>
</svg>
