<svg width="15" height="15" viewBox="0 0 15 15" fill="none" xmlns="http://www.w3.org/2000/svg">
<g clip-path="url(#clip0_92_2)">
<g opacity="0.78">
<path d="M10.939 10.9381C9.94202 11.6975 8.72818 12.118 7.47504 12.1381C3.39304 12.1381 1.06104 7.47307 1.06104 7.47307C1.78627 6.12165 2.79209 4.94092 4.01103 4.01007M6.25104 2.95007C6.65223 2.85614 7.06299 2.80916 7.47504 2.81007C11.557 2.81007 13.889 7.47507 13.889 7.47507C13.5352 8.13719 13.1133 8.76057 12.63 9.33507" stroke="#454545" stroke-width="1.5" stroke-linecap="round" stroke-linejoin="round"/>
<path d="M10.939 4.01017C9.94202 3.25075 8.72818 2.83025 7.47504 2.81017C3.39304 2.81017 1.06104 7.47517 1.06104 7.47517C1.78627 8.82659 2.79209 10.0073 4.01103 10.9382M6.25104 11.9982C6.65223 12.0921 7.06299 12.1391 7.47504 12.1382C11.557 12.1382 13.889 7.47317 13.889 7.47317C13.5352 6.81105 13.1133 6.18767 12.63 5.61317" stroke="#454545" stroke-width="1.5" stroke-linecap="round" stroke-linejoin="round"/>
<circle cx="7.515" cy="7.515" r="1.515" stroke="#454545" stroke-width="1.5"/>
</g>
</g>
<defs>
<clipPath id="clip0_92_2">
<rect width="14.949" height="14.949" fill="white"/>
</clipPath>
</defs>
</svg>
