<svg xmlns="http://www.w3.org/2000/svg" width="15.273" height="15.173" viewBox="0 0 15.273 15.173">
  <g id="Group_2884" data-name="Group 2884" transform="translate(-676 -523.914)">
    <path id="Path_596" data-name="Path 596" d="M3452.095,1710.878a.492.492,0,0,1,.205.041.607.607,0,0,1,.093.048.5.5,0,0,1,.082.068.541.541,0,0,1,.158.379.532.532,0,0,1-.01.106.673.673,0,0,1-.032.1.565.565,0,0,1-.048.093.665.665,0,0,1-.068.082.539.539,0,0,1-.827-.083.444.444,0,0,1-.05-.091.543.543,0,0,1-.031-.1.438.438,0,0,1-.01-.1.536.536,0,0,1,.538-.538Z" transform="translate(-2762.631 -1176.024)" fill="#8c8c8c"/>
    <path id="Path_597" data-name="Path 597" d="M3603.894,2032.552a.538.538,0,1,1,.354.673A.538.538,0,0,1,3603.894,2032.552Z" transform="translate(-2914.09 -1499.123)" fill="#8c8c8c"/>
    <path id="Path_598" data-name="Path 598" d="M3660.743,2383.929a.537.537,0,1,1-.528-.545.538.538,0,0,1,.53.547Z" transform="translate(-2969.574 -1852.304)" fill="#8c8c8c"/>
    <path id="Path_600" data-name="Path 600" d="M1163.6,1153.627l-4.39-.464a.165.165,0,0,1-.085-.278l1.584-1.585a6.514,6.514,0,1,0-.371,9.555.538.538,0,1,1,.713.807,7.59,7.59,0,1,1,.419-11.123l1.585-1.585a.165.165,0,0,1,.278.085l.46,4.395A.165.165,0,0,1,1163.6,1153.627Z" transform="translate(-472.524 -624.406)" fill="#8c8c8c"/>
  </g>
</svg>
