<svg xmlns="http://www.w3.org/2000/svg" width="14.445" height="14.442" viewBox="0 0 14.445 14.442">
  <path id="Icon_awesome-edit" data-name="Icon awesome-edit" d="M13.979,2.892l3.132,3.132a.339.339,0,0,1,0,.479L9.528,14.087l-3.222.358a.675.675,0,0,1-.747-.747l.358-3.222L13.5,2.892A.339.339,0,0,1,13.979,2.892ZM19.6,2.1,17.91.4a1.358,1.358,0,0,0-1.917,0L14.764,1.632a.34.34,0,0,0,0,.479L17.9,5.243a.339.339,0,0,0,.479,0L19.6,4.014a1.358,1.358,0,0,0,0-1.917Z" transform="translate(-5.555 -0.007)" fill="#cecece"/>
</svg>
