<svg width="102" height="102" viewBox="0 0 102 102" fill="none" xmlns="http://www.w3.org/2000/svg">
<path d="M100.846 54.922C100.814 55.363 100.302 55.658 99.765 55.978C99.388 56.196 98.927 56.471 98.901 56.678C98.875 56.885 99.266 57.26 99.586 57.561C100.034 57.99 100.463 58.399 100.392 58.828C100.321 59.257 99.792 59.519 99.228 59.794C98.838 59.98 98.351 60.216 98.313 60.421C98.275 60.626 98.633 61.029 98.921 61.349C99.337 61.816 99.734 62.258 99.631 62.68C99.528 63.102 98.978 63.32 98.396 63.55C97.996 63.71 97.487 63.902 97.43 64.1C97.373 64.298 97.705 64.733 97.967 65.079C98.344 65.579 98.696 66.045 98.567 66.461C98.438 66.877 97.867 67.05 97.267 67.229C96.851 67.357 96.339 67.511 96.267 67.702C96.195 67.893 96.485 68.355 96.721 68.719C97.054 69.244 97.374 69.743 97.207 70.146C97.04 70.549 96.458 70.677 95.851 70.811C95.429 70.901 94.898 71.011 94.815 71.201C94.732 71.391 94.981 71.866 95.186 72.25C95.48 72.8 95.762 73.318 95.557 73.709C95.352 74.1 94.776 74.182 94.157 74.266C93.728 74.324 93.191 74.394 93.095 74.573C92.999 74.752 93.204 75.251 93.383 75.648C93.633 76.224 93.869 76.761 93.639 77.132C93.409 77.503 92.82 77.541 92.199 77.573C91.764 77.599 91.227 77.631 91.111 77.803C90.995 77.975 91.169 78.488 91.311 78.897C91.511 79.486 91.711 80.042 91.452 80.397C91.193 80.752 90.601 80.742 89.974 80.73C89.545 80.717 89.002 80.704 88.874 80.871C88.746 81.038 88.887 81.556 88.996 81.971C89.15 82.579 89.303 83.148 89.015 83.481C88.727 83.814 88.151 83.756 87.524 83.692C87.089 83.647 86.558 83.592 86.417 83.75C86.276 83.908 86.366 84.428 86.443 84.857C86.558 85.471 86.661 86.057 86.353 86.357C86.045 86.657 85.464 86.568 84.843 86.457C84.421 86.38 83.89 86.284 83.736 86.425C83.582 86.566 83.636 87.103 83.678 87.538C83.742 88.159 83.8 88.747 83.467 89.029C83.134 89.311 82.567 89.163 81.967 89.003C81.545 88.894 81.02 88.76 80.86 88.888C80.7 89.016 80.706 89.553 80.719 89.988C80.732 90.615 80.745 91.204 80.393 91.46C80.041 91.716 79.478 91.524 78.893 91.319C78.484 91.178 77.978 90.999 77.799 91.119C77.62 91.239 77.599 91.772 77.575 92.207C77.537 92.834 77.505 93.423 77.134 93.653C76.763 93.883 76.219 93.64 75.65 93.391C75.25 93.218 74.75 93.001 74.575 93.103C74.4 93.205 74.319 93.736 74.262 94.165C74.179 94.786 74.096 95.374 73.705 95.573C73.314 95.772 72.796 95.49 72.246 95.196C71.869 94.996 71.395 94.742 71.203 94.825C71.011 94.908 70.896 95.439 70.803 95.861C70.669 96.475 70.547 97.051 70.138 97.217C69.729 97.383 69.238 97.063 68.718 96.731C68.353 96.494 67.893 96.206 67.701 96.277C67.509 96.348 67.349 96.866 67.228 97.277C67.049 97.877 66.876 98.441 66.454 98.582C66.032 98.723 65.571 98.358 65.078 97.982C64.733 97.72 64.304 97.393 64.099 97.451C63.894 97.509 63.699 98.008 63.549 98.411C63.319 98.993 63.101 99.543 62.679 99.646C62.257 99.749 61.815 99.358 61.348 98.946C61.022 98.652 60.599 98.287 60.414 98.332C60.229 98.377 59.979 98.857 59.787 99.247C59.518 99.81 59.256 100.341 58.827 100.411C58.398 100.481 57.989 100.053 57.554 99.605C57.254 99.292 56.889 98.92 56.671 98.92C56.471 98.946 56.198 99.413 55.98 99.784C55.66 100.321 55.366 100.833 54.924 100.865C54.482 100.897 54.118 100.449 53.724 99.965C53.455 99.632 53.116 99.216 52.905 99.216H52.899C52.699 99.222 52.387 99.664 52.138 100.022C51.78 100.534 51.447 101.022 51.006 101.022C50.565 101.022 50.225 100.536 49.867 100.022C49.624 99.664 49.317 99.222 49.112 99.216H49.1C48.889 99.216 48.55 99.632 48.275 99.965C47.885 100.451 47.514 100.905 47.075 100.865C46.636 100.825 46.339 100.321 46.026 99.784C45.808 99.413 45.533 98.946 45.326 98.92C45.14 98.894 44.744 99.291 44.443 99.605C44.014 100.053 43.611 100.475 43.176 100.411C42.741 100.347 42.485 99.811 42.21 99.247C42.018 98.857 41.788 98.377 41.583 98.332C41.378 98.287 40.975 98.652 40.649 98.94C40.188 99.356 39.749 99.753 39.318 99.65C38.887 99.547 38.678 98.997 38.454 98.415C38.294 98.015 38.096 97.506 37.897 97.449C37.698 97.392 37.27 97.724 36.918 97.986C36.425 98.363 35.958 98.722 35.542 98.586C35.126 98.45 34.953 97.886 34.774 97.286C34.646 96.87 34.492 96.358 34.294 96.286C34.096 96.214 33.648 96.504 33.283 96.74C32.752 97.073 32.259 97.393 31.856 97.226C31.453 97.059 31.325 96.477 31.191 95.87C31.101 95.448 30.991 94.917 30.801 94.834C30.611 94.751 30.129 95 29.752 95.205C29.202 95.499 28.677 95.774 28.293 95.582C27.909 95.39 27.82 94.795 27.736 94.174C27.678 93.745 27.608 93.208 27.423 93.112C27.238 93.016 26.745 93.227 26.348 93.4C25.779 93.65 25.235 93.886 24.864 93.656C24.493 93.426 24.464 92.837 24.423 92.216C24.397 91.781 24.372 91.244 24.199 91.128C24.026 91.012 23.514 91.186 23.105 91.328C22.516 91.528 21.96 91.728 21.605 91.469C21.25 91.21 21.266 90.618 21.279 89.997C21.292 89.562 21.298 89.025 21.138 88.89C20.978 88.755 20.453 88.903 20.031 89.012C19.431 89.172 18.86 89.319 18.531 89.031C18.202 88.743 18.256 88.161 18.32 87.54C18.358 87.111 18.42 86.574 18.262 86.433C18.104 86.292 17.577 86.388 17.149 86.465C16.535 86.574 15.959 86.676 15.649 86.365C15.339 86.054 15.449 85.476 15.559 84.865C15.636 84.436 15.725 83.905 15.585 83.752C15.445 83.599 14.907 83.652 14.478 83.694C13.857 83.758 13.269 83.816 12.987 83.483C12.705 83.15 12.846 82.583 13.006 81.983C13.115 81.561 13.256 81.036 13.128 80.876C13 80.716 12.463 80.722 12.028 80.735C11.401 80.748 10.812 80.761 10.55 80.409C10.288 80.057 10.486 79.494 10.691 78.909C10.838 78.5 11.011 77.988 10.891 77.815C10.771 77.642 10.238 77.615 9.81 77.591C9.183 77.553 8.594 77.521 8.364 77.15C8.134 76.779 8.37 76.235 8.62 75.666C8.799 75.266 9.02 74.766 8.914 74.591C8.808 74.416 8.274 74.335 7.846 74.278C7.225 74.195 6.646 74.118 6.446 73.721C6.246 73.324 6.523 72.812 6.817 72.269C7.017 71.885 7.278 71.405 7.194 71.22C7.11 71.035 6.58 70.913 6.158 70.82C5.544 70.686 4.968 70.564 4.802 70.155C4.636 69.746 4.949 69.255 5.288 68.735C5.525 68.37 5.813 67.916 5.742 67.718C5.671 67.52 5.153 67.366 4.742 67.245C4.142 67.059 3.578 66.893 3.442 66.477C3.306 66.061 3.666 65.588 4.042 65.095C4.304 64.75 4.631 64.314 4.573 64.116C4.515 63.918 4.016 63.716 3.613 63.566C3.031 63.336 2.481 63.118 2.378 62.696C2.275 62.274 2.666 61.832 3.078 61.365C3.366 61.039 3.731 60.636 3.686 60.431C3.641 60.226 3.161 59.996 2.771 59.804C2.214 59.535 1.677 59.279 1.613 58.844C1.549 58.409 1.965 58.006 2.419 57.571C2.732 57.271 3.119 56.899 3.097 56.688C3.075 56.477 2.611 56.215 2.24 55.997C1.696 55.677 1.191 55.383 1.152 54.941C1.113 54.499 1.574 54.135 2.061 53.741C2.394 53.466 2.816 53.127 2.803 52.916C2.79 52.705 2.355 52.404 2.003 52.155C1.48 51.774 1 51.441 1 51C1 50.559 1.48 50.219 2 49.861C2.352 49.618 2.793 49.311 2.8 49.106C2.807 48.901 2.391 48.549 2.058 48.274C1.572 47.884 1.118 47.506 1.149 47.074C1.18 46.642 1.693 46.332 2.237 46.018C2.608 45.8 3.075 45.525 3.094 45.318C3.113 45.111 2.729 44.736 2.416 44.435C1.966 44.013 1.537 43.6 1.608 43.175C1.679 42.75 2.208 42.484 2.766 42.209C3.156 42.023 3.643 41.787 3.681 41.582C3.719 41.377 3.361 40.974 3.073 40.648C2.657 40.187 2.267 39.748 2.373 39.324C2.479 38.9 3.026 38.678 3.608 38.454C4.008 38.294 4.508 38.096 4.568 37.897C4.628 37.698 4.299 37.27 4.037 36.925C3.66 36.425 3.301 35.959 3.437 35.543C3.573 35.127 4.137 34.954 4.737 34.775C5.153 34.647 5.671 34.493 5.737 34.295C5.803 34.097 5.519 33.649 5.283 33.284C4.944 32.759 4.63 32.26 4.797 31.857C4.964 31.454 5.539 31.326 6.153 31.192C6.575 31.102 7.1 30.992 7.189 30.802C7.278 30.612 7.023 30.137 6.818 29.753C6.524 29.203 6.242 28.685 6.441 28.294C6.64 27.903 7.228 27.821 7.849 27.737C8.278 27.679 8.809 27.609 8.911 27.424C9.013 27.239 8.796 26.752 8.623 26.349C8.373 25.78 8.137 25.242 8.367 24.865C8.597 24.488 9.18 24.465 9.807 24.424C10.242 24.398 10.779 24.373 10.895 24.2C11.011 24.027 10.831 23.515 10.695 23.106C10.495 22.517 10.295 21.961 10.554 21.606C10.813 21.251 11.405 21.267 12.026 21.28C12.461 21.293 12.998 21.306 13.126 21.139C13.254 20.972 13.12 20.454 13.011 20.032C12.851 19.432 12.704 18.861 12.985 18.532C13.266 18.203 13.862 18.257 14.485 18.321C14.914 18.359 15.451 18.421 15.592 18.263C15.733 18.105 15.637 17.578 15.56 17.156C15.451 16.535 15.342 15.956 15.66 15.646C15.978 15.336 16.549 15.446 17.16 15.556C17.589 15.633 18.12 15.729 18.273 15.588C18.426 15.447 18.373 14.91 18.324 14.475C18.26 13.854 18.202 13.266 18.535 12.984C18.868 12.702 19.444 12.85 20.045 13.003C20.467 13.118 20.992 13.253 21.152 13.125C21.312 12.997 21.299 12.453 21.293 12.025C21.28 11.398 21.267 10.809 21.619 10.553C21.971 10.297 22.528 10.489 23.119 10.694C23.535 10.835 24.04 11.007 24.213 10.894C24.386 10.781 24.413 10.241 24.443 9.81302C24.475 9.18602 24.513 8.59702 24.884 8.36702C25.255 8.13702 25.799 8.37302 26.368 8.62902C26.768 8.80202 27.257 9.01902 27.443 8.91702C27.629 8.81502 27.693 8.27702 27.756 7.84902C27.839 7.22802 27.916 6.64902 28.306 6.44902C28.696 6.24902 29.215 6.52602 29.765 6.82002C30.149 7.02002 30.622 7.28702 30.814 7.19702C31.006 7.10702 31.114 6.58302 31.214 6.16102C31.342 5.54702 31.47 4.97102 31.873 4.80502C32.276 4.63902 32.773 4.95202 33.3 5.29102C33.665 5.52802 34.119 5.81602 34.317 5.74502C34.515 5.67402 34.662 5.15602 34.79 4.74502C34.969 4.14502 35.142 3.58102 35.558 3.44502C35.974 3.30902 36.441 3.66902 36.94 4.04502C37.285 4.30702 37.714 4.63402 37.919 4.57602C38.124 4.51802 38.309 4.01902 38.469 3.61602C38.699 3.03402 38.91 2.48402 39.339 2.38102C39.768 2.27802 40.203 2.66902 40.67 3.08102C40.99 3.36902 41.406 3.72702 41.598 3.68902C41.79 3.65102 42.039 3.16402 42.225 2.78002C42.5 2.21702 42.756 1.68002 43.191 1.61602C43.626 1.55202 44.029 1.97402 44.458 2.42202C44.758 2.73502 45.158 3.12202 45.341 3.10002C45.541 3.08102 45.821 2.61402 46.041 2.24302C46.354 1.69902 46.655 1.19402 47.09 1.15502C47.525 1.11602 47.903 1.57702 48.29 2.06402C48.565 2.39702 48.904 2.81302 49.115 2.81302H49.121C49.321 2.80002 49.633 2.35902 49.876 2.00702C50.234 1.49502 50.576 1.00702 51.015 1.00702C51.454 1.00702 51.789 1.49302 52.147 2.00702C52.397 2.35902 52.704 2.80002 52.908 2.81302H52.9C53.111 2.81302 53.45 2.39702 53.719 2.06402C54.119 1.57802 54.493 1.12402 54.919 1.15502C55.345 1.18602 55.655 1.69902 55.975 2.24302C56.193 2.61402 56.468 3.08102 56.675 3.10002C56.882 3.11902 57.251 2.73502 57.552 2.42202C57.987 1.97402 58.384 1.54502 58.825 1.61602C59.266 1.68702 59.516 2.21602 59.791 2.78002C59.977 3.16402 60.213 3.65002 60.418 3.68902C60.604 3.72702 61.026 3.36902 61.346 3.08102C61.813 2.66502 62.261 2.27502 62.677 2.38102C63.093 2.48702 63.317 3.03402 63.547 3.61602C63.707 4.01602 63.899 4.51602 64.097 4.57602C64.295 4.63602 64.73 4.30702 65.076 4.04502C65.569 3.66802 66.036 3.30902 66.458 3.44502C66.88 3.58102 67.047 4.14502 67.226 4.75002C67.354 5.15902 67.508 5.67802 67.699 5.75002C67.89 5.82202 68.352 5.53202 68.716 5.29602C69.241 4.95702 69.733 4.63702 70.143 4.81002C70.553 4.98302 70.674 5.55202 70.802 6.16602C70.902 6.58802 71.013 7.11302 71.202 7.20202C71.391 7.29102 71.867 7.03602 72.251 6.83102C72.801 6.53102 73.326 6.25502 73.71 6.45402C74.094 6.65302 74.183 7.24102 74.267 7.86202C74.325 8.29102 74.395 8.82202 74.574 8.92402C74.753 9.02602 75.252 8.80902 75.649 8.63602C76.225 8.38602 76.762 8.15002 77.133 8.38002C77.504 8.61002 77.542 9.19902 77.574 9.82002C77.6 10.255 77.632 10.792 77.804 10.908C77.976 11.024 78.482 10.844 78.898 10.708C79.487 10.508 80.043 10.308 80.398 10.567C80.753 10.826 80.743 11.418 80.724 12.039C80.718 12.474 80.705 13.011 80.871 13.139C81.037 13.267 81.556 13.133 81.971 13.024C82.579 12.864 83.148 12.717 83.481 12.998C83.814 13.279 83.756 13.875 83.692 14.498C83.647 14.927 83.592 15.464 83.75 15.605C83.908 15.746 84.428 15.65 84.857 15.573C85.478 15.464 86.057 15.362 86.357 15.673C86.657 15.984 86.557 16.562 86.457 17.173C86.38 17.602 86.284 18.133 86.425 18.286C86.566 18.439 87.103 18.386 87.538 18.337C88.159 18.279 88.738 18.222 89.029 18.548C89.32 18.874 89.163 19.457 89.003 20.058C88.894 20.48 88.76 20.998 88.888 21.165C89.016 21.332 89.553 21.319 89.988 21.306C90.609 21.293 91.204 21.28 91.46 21.632C91.716 21.984 91.524 22.547 91.319 23.132C91.178 23.541 90.999 24.047 91.119 24.22C91.239 24.393 91.772 24.42 92.207 24.45C92.828 24.482 93.423 24.52 93.647 24.891C93.871 25.262 93.641 25.806 93.391 26.375C93.218 26.775 93.001 27.264 93.103 27.45C93.205 27.636 93.736 27.7 94.165 27.763C94.786 27.846 95.374 27.923 95.573 28.313C95.772 28.703 95.49 29.222 95.196 29.772C94.996 30.156 94.735 30.629 94.825 30.821C94.915 31.013 95.439 31.121 95.861 31.221C96.469 31.349 97.051 31.477 97.217 31.88C97.383 32.283 97.063 32.78 96.731 33.307C96.494 33.672 96.206 34.126 96.277 34.324C96.348 34.522 96.866 34.669 97.277 34.797C97.877 34.976 98.441 35.149 98.582 35.565C98.723 35.981 98.358 36.448 97.982 36.947C97.72 37.292 97.393 37.721 97.451 37.926C97.509 38.131 98.008 38.326 98.411 38.476C98.993 38.706 99.543 38.917 99.646 39.346C99.749 39.775 99.352 40.21 98.946 40.677C98.652 40.997 98.293 41.4 98.332 41.605C98.371 41.81 98.857 42.046 99.247 42.232C99.81 42.507 100.341 42.763 100.411 43.198C100.481 43.633 100.053 44.036 99.605 44.465C99.285 44.765 98.895 45.143 98.92 45.348C98.945 45.553 99.406 45.828 99.784 46.048C100.321 46.361 100.833 46.662 100.865 47.104C100.897 47.546 100.443 47.91 99.965 48.304C99.626 48.579 99.21 48.925 99.216 49.136C99.222 49.347 99.664 49.648 100.022 49.891C100.534 50.249 101.022 50.591 101.022 51.03C101.022 51.469 100.536 51.804 100.022 52.162C99.664 52.412 99.222 52.719 99.216 52.923C99.21 53.127 99.625 53.473 99.965 53.748C100.445 54.148 100.905 54.516 100.865 54.948" fill="#F8EEE0"/>
<path d="M100.846 54.922C100.814 55.363 100.302 55.658 99.765 55.978C99.388 56.196 98.927 56.471 98.901 56.678C98.875 56.885 99.266 57.26 99.586 57.561C100.034 57.99 100.463 58.399 100.392 58.828C100.321 59.257 99.792 59.519 99.228 59.794C98.838 59.98 98.351 60.216 98.313 60.421C98.275 60.626 98.633 61.029 98.921 61.349C99.337 61.816 99.734 62.258 99.631 62.68C99.528 63.102 98.978 63.32 98.396 63.55C97.996 63.71 97.487 63.902 97.43 64.1C97.373 64.298 97.705 64.733 97.967 65.079C98.344 65.579 98.696 66.045 98.567 66.461C98.438 66.877 97.867 67.05 97.267 67.229C96.851 67.357 96.339 67.511 96.267 67.702C96.195 67.893 96.485 68.355 96.721 68.719C97.054 69.244 97.374 69.743 97.207 70.146C97.04 70.549 96.458 70.677 95.851 70.811C95.429 70.901 94.898 71.011 94.815 71.201C94.732 71.391 94.981 71.866 95.186 72.25C95.48 72.8 95.762 73.318 95.557 73.709C95.352 74.1 94.776 74.182 94.157 74.266C93.728 74.324 93.191 74.394 93.095 74.573C92.999 74.752 93.204 75.251 93.383 75.648C93.633 76.224 93.869 76.761 93.639 77.132C93.409 77.503 92.82 77.541 92.199 77.573C91.764 77.599 91.227 77.631 91.111 77.803C90.995 77.975 91.169 78.488 91.311 78.897C91.511 79.486 91.711 80.042 91.452 80.397C91.193 80.752 90.601 80.742 89.974 80.73C89.545 80.717 89.002 80.704 88.874 80.871C88.746 81.038 88.887 81.556 88.996 81.971C89.15 82.579 89.303 83.148 89.015 83.481C88.727 83.814 88.151 83.756 87.524 83.692C87.089 83.647 86.558 83.592 86.417 83.75C86.276 83.908 86.366 84.428 86.443 84.857C86.558 85.471 86.661 86.057 86.353 86.357C86.045 86.657 85.464 86.568 84.843 86.457C84.421 86.38 83.89 86.284 83.736 86.425C83.582 86.566 83.636 87.103 83.678 87.538C83.742 88.159 83.8 88.747 83.467 89.029C83.134 89.311 82.567 89.163 81.967 89.003C81.545 88.894 81.02 88.76 80.86 88.888C80.7 89.016 80.706 89.553 80.719 89.988C80.732 90.615 80.745 91.204 80.393 91.46C80.041 91.716 79.478 91.524 78.893 91.319C78.484 91.178 77.978 90.999 77.799 91.119C77.62 91.239 77.599 91.772 77.575 92.207C77.537 92.834 77.505 93.423 77.134 93.653C76.763 93.883 76.219 93.64 75.65 93.391C75.25 93.218 74.75 93.001 74.575 93.103C74.4 93.205 74.319 93.736 74.262 94.165C74.179 94.786 74.096 95.374 73.705 95.573C73.314 95.772 72.796 95.49 72.246 95.196C71.869 94.996 71.395 94.742 71.203 94.825C71.011 94.908 70.896 95.439 70.803 95.861C70.669 96.475 70.547 97.051 70.138 97.217C69.729 97.383 69.238 97.063 68.718 96.731C68.353 96.494 67.893 96.206 67.701 96.277C67.509 96.348 67.349 96.866 67.228 97.277C67.049 97.877 66.876 98.441 66.454 98.582C66.032 98.723 65.571 98.358 65.078 97.982C64.733 97.72 64.304 97.393 64.099 97.451C63.894 97.509 63.699 98.008 63.549 98.411C63.319 98.993 63.101 99.543 62.679 99.646C62.257 99.749 61.815 99.358 61.348 98.946C61.022 98.652 60.599 98.287 60.414 98.332C60.229 98.377 59.979 98.857 59.787 99.247C59.518 99.81 59.256 100.341 58.827 100.411C58.398 100.481 57.989 100.053 57.554 99.605C57.254 99.292 56.889 98.92 56.671 98.92C56.471 98.946 56.198 99.413 55.98 99.784C55.66 100.321 55.366 100.833 54.924 100.865C54.482 100.897 54.118 100.449 53.724 99.965C53.455 99.632 53.116 99.216 52.905 99.216H52.899C52.699 99.222 52.387 99.664 52.138 100.022C51.78 100.534 51.447 101.022 51.006 101.022C50.565 101.022 50.225 100.536 49.867 100.022C49.624 99.664 49.317 99.222 49.112 99.216H49.1C48.889 99.216 48.55 99.632 48.275 99.965C47.885 100.451 47.514 100.905 47.075 100.865C46.636 100.825 46.339 100.321 46.026 99.784C45.808 99.413 45.533 98.946 45.326 98.92C45.14 98.894 44.744 99.291 44.443 99.605C44.014 100.053 43.611 100.475 43.176 100.411C42.741 100.347 42.485 99.811 42.21 99.247C42.018 98.857 41.788 98.377 41.583 98.332C41.378 98.287 40.975 98.652 40.649 98.94C40.188 99.356 39.749 99.753 39.318 99.65C38.887 99.547 38.678 98.997 38.454 98.415C38.294 98.015 38.096 97.506 37.897 97.449C37.698 97.392 37.27 97.724 36.918 97.986C36.425 98.363 35.958 98.722 35.542 98.586C35.126 98.45 34.953 97.886 34.774 97.286C34.646 96.87 34.492 96.358 34.294 96.286C34.096 96.214 33.648 96.504 33.283 96.74C32.752 97.073 32.259 97.393 31.856 97.226C31.453 97.059 31.325 96.477 31.191 95.87C31.101 95.448 30.991 94.917 30.801 94.834C30.611 94.751 30.129 95 29.752 95.205C29.202 95.499 28.677 95.774 28.293 95.582C27.909 95.39 27.82 94.795 27.736 94.174C27.678 93.745 27.608 93.208 27.423 93.112C27.238 93.016 26.745 93.227 26.348 93.4C25.779 93.65 25.235 93.886 24.864 93.656C24.493 93.426 24.464 92.837 24.423 92.216C24.397 91.781 24.372 91.244 24.199 91.128C24.026 91.012 23.514 91.186 23.105 91.328C22.516 91.528 21.96 91.728 21.605 91.469C21.25 91.21 21.266 90.618 21.279 89.997C21.292 89.562 21.298 89.025 21.138 88.89C20.978 88.755 20.453 88.903 20.031 89.012C19.431 89.172 18.86 89.319 18.531 89.031C18.202 88.743 18.256 88.161 18.32 87.54C18.358 87.111 18.42 86.574 18.262 86.433C18.104 86.292 17.577 86.388 17.149 86.465C16.535 86.574 15.959 86.676 15.649 86.365C15.339 86.054 15.449 85.476 15.559 84.865C15.636 84.436 15.725 83.905 15.585 83.752C15.445 83.599 14.907 83.652 14.478 83.694C13.857 83.758 13.269 83.816 12.987 83.483C12.705 83.15 12.846 82.583 13.006 81.983C13.115 81.561 13.256 81.036 13.128 80.876C13 80.716 12.463 80.722 12.028 80.735C11.401 80.748 10.812 80.761 10.55 80.409C10.288 80.057 10.486 79.494 10.691 78.909C10.838 78.5 11.011 77.988 10.891 77.815C10.771 77.642 10.238 77.615 9.81 77.591C9.183 77.553 8.594 77.521 8.364 77.15C8.134 76.779 8.37 76.235 8.62 75.666C8.799 75.266 9.02 74.766 8.914 74.591C8.808 74.416 8.274 74.335 7.846 74.278C7.225 74.195 6.646 74.118 6.446 73.721C6.246 73.324 6.523 72.812 6.817 72.269C7.017 71.885 7.278 71.405 7.194 71.22C7.11 71.035 6.58 70.913 6.158 70.82C5.544 70.686 4.968 70.564 4.802 70.155C4.636 69.746 4.949 69.255 5.288 68.735C5.525 68.37 5.813 67.916 5.742 67.718C5.671 67.52 5.153 67.366 4.742 67.245C4.142 67.059 3.578 66.893 3.442 66.477C3.306 66.061 3.666 65.588 4.042 65.095C4.304 64.75 4.631 64.314 4.573 64.116C4.515 63.918 4.016 63.716 3.613 63.566C3.031 63.336 2.481 63.118 2.378 62.696C2.275 62.274 2.666 61.832 3.078 61.365C3.366 61.039 3.731 60.636 3.686 60.431C3.641 60.226 3.161 59.996 2.771 59.804C2.214 59.535 1.677 59.279 1.613 58.844C1.549 58.409 1.965 58.006 2.419 57.571C2.732 57.271 3.119 56.899 3.097 56.688C3.075 56.477 2.611 56.215 2.24 55.997C1.696 55.677 1.191 55.383 1.152 54.941C1.113 54.499 1.574 54.135 2.061 53.741C2.394 53.466 2.816 53.127 2.803 52.916C2.79 52.705 2.355 52.404 2.003 52.155C1.48 51.774 1 51.441 1 51C1 50.559 1.48 50.219 2 49.861C2.352 49.618 2.793 49.311 2.8 49.106C2.807 48.901 2.391 48.549 2.058 48.274C1.572 47.884 1.118 47.506 1.149 47.074C1.18 46.642 1.693 46.332 2.237 46.018C2.608 45.8 3.075 45.525 3.094 45.318C3.113 45.111 2.729 44.736 2.416 44.435C1.966 44.013 1.537 43.6 1.608 43.175C1.679 42.75 2.208 42.484 2.766 42.209C3.156 42.023 3.643 41.787 3.681 41.582C3.719 41.377 3.361 40.974 3.073 40.648C2.657 40.187 2.267 39.748 2.373 39.324C2.479 38.9 3.026 38.678 3.608 38.454C4.008 38.294 4.508 38.096 4.568 37.897C4.628 37.698 4.299 37.27 4.037 36.925C3.66 36.425 3.301 35.959 3.437 35.543C3.573 35.127 4.137 34.954 4.737 34.775C5.153 34.647 5.671 34.493 5.737 34.295C5.803 34.097 5.519 33.649 5.283 33.284C4.944 32.759 4.63 32.26 4.797 31.857C4.964 31.454 5.539 31.326 6.153 31.192C6.575 31.102 7.1 30.992 7.189 30.802C7.278 30.612 7.023 30.137 6.818 29.753C6.524 29.203 6.242 28.685 6.441 28.294C6.64 27.903 7.228 27.821 7.849 27.737C8.278 27.679 8.809 27.609 8.911 27.424C9.013 27.239 8.796 26.752 8.623 26.349C8.373 25.78 8.137 25.242 8.367 24.865C8.597 24.488 9.18 24.465 9.807 24.424C10.242 24.398 10.779 24.373 10.895 24.2C11.011 24.027 10.831 23.515 10.695 23.106C10.495 22.517 10.295 21.961 10.554 21.606C10.813 21.251 11.405 21.267 12.026 21.28C12.461 21.293 12.998 21.306 13.126 21.139C13.254 20.972 13.12 20.454 13.011 20.032C12.851 19.432 12.704 18.861 12.985 18.532C13.266 18.203 13.862 18.257 14.485 18.321C14.914 18.359 15.451 18.421 15.592 18.263C15.733 18.105 15.637 17.578 15.56 17.156C15.451 16.535 15.342 15.956 15.66 15.646C15.978 15.336 16.549 15.446 17.16 15.556C17.589 15.633 18.12 15.729 18.273 15.588C18.426 15.447 18.373 14.91 18.324 14.475C18.26 13.854 18.202 13.266 18.535 12.984C18.868 12.702 19.444 12.85 20.045 13.003C20.467 13.118 20.992 13.253 21.152 13.125C21.312 12.997 21.299 12.453 21.293 12.025C21.28 11.398 21.267 10.809 21.619 10.553C21.971 10.297 22.528 10.489 23.119 10.694C23.535 10.835 24.04 11.007 24.213 10.894C24.386 10.781 24.413 10.241 24.443 9.81302C24.475 9.18602 24.513 8.59702 24.884 8.36702C25.255 8.13702 25.799 8.37302 26.368 8.62902C26.768 8.80202 27.257 9.01902 27.443 8.91702C27.629 8.81502 27.693 8.27702 27.756 7.84902C27.839 7.22802 27.916 6.64902 28.306 6.44902C28.696 6.24902 29.215 6.52602 29.765 6.82002C30.149 7.02002 30.622 7.28702 30.814 7.19702C31.006 7.10702 31.114 6.58302 31.214 6.16102C31.342 5.54702 31.47 4.97102 31.873 4.80502C32.276 4.63902 32.773 4.95202 33.3 5.29102C33.665 5.52802 34.119 5.81602 34.317 5.74502C34.515 5.67402 34.662 5.15602 34.79 4.74502C34.969 4.14502 35.142 3.58102 35.558 3.44502C35.974 3.30902 36.441 3.66902 36.94 4.04502C37.285 4.30702 37.714 4.63402 37.919 4.57602C38.124 4.51802 38.309 4.01902 38.469 3.61602C38.699 3.03402 38.91 2.48402 39.339 2.38102C39.768 2.27802 40.203 2.66902 40.67 3.08102C40.99 3.36902 41.406 3.72702 41.598 3.68902C41.79 3.65102 42.039 3.16402 42.225 2.78002C42.5 2.21702 42.756 1.68002 43.191 1.61602C43.626 1.55202 44.029 1.97402 44.458 2.42202C44.758 2.73502 45.158 3.12202 45.341 3.10002C45.541 3.08102 45.821 2.61402 46.041 2.24302C46.354 1.69902 46.655 1.19402 47.09 1.15502C47.525 1.11602 47.903 1.57702 48.29 2.06402C48.565 2.39702 48.904 2.81302 49.115 2.81302H49.121C49.321 2.80002 49.633 2.35902 49.876 2.00702C50.234 1.49502 50.576 1.00702 51.015 1.00702C51.454 1.00702 51.789 1.49302 52.147 2.00702C52.397 2.35902 52.704 2.80002 52.908 2.81302H52.9C53.111 2.81302 53.45 2.39702 53.719 2.06402C54.119 1.57802 54.493 1.12402 54.919 1.15502C55.345 1.18602 55.655 1.69902 55.975 2.24302C56.193 2.61402 56.468 3.08102 56.675 3.10002C56.882 3.11902 57.251 2.73502 57.552 2.42202C57.987 1.97402 58.384 1.54502 58.825 1.61602C59.266 1.68702 59.516 2.21602 59.791 2.78002C59.977 3.16402 60.213 3.65002 60.418 3.68902C60.604 3.72702 61.026 3.36902 61.346 3.08102C61.813 2.66502 62.261 2.27502 62.677 2.38102C63.093 2.48702 63.317 3.03402 63.547 3.61602C63.707 4.01602 63.899 4.51602 64.097 4.57602C64.295 4.63602 64.73 4.30702 65.076 4.04502C65.569 3.66802 66.036 3.30902 66.458 3.44502C66.88 3.58102 67.047 4.14502 67.226 4.75002C67.354 5.15902 67.508 5.67802 67.699 5.75002C67.89 5.82202 68.352 5.53202 68.716 5.29602C69.241 4.95702 69.733 4.63702 70.143 4.81002C70.553 4.98302 70.674 5.55202 70.802 6.16602C70.902 6.58802 71.013 7.11302 71.202 7.20202C71.391 7.29102 71.867 7.03602 72.251 6.83102C72.801 6.53102 73.326 6.25502 73.71 6.45402C74.094 6.65302 74.183 7.24102 74.267 7.86202C74.325 8.29102 74.395 8.82202 74.574 8.92402C74.753 9.02602 75.252 8.80902 75.649 8.63602C76.225 8.38602 76.762 8.15002 77.133 8.38002C77.504 8.61002 77.542 9.19902 77.574 9.82002C77.6 10.255 77.632 10.792 77.804 10.908C77.976 11.024 78.482 10.844 78.898 10.708C79.487 10.508 80.043 10.308 80.398 10.567C80.753 10.826 80.743 11.418 80.724 12.039C80.718 12.474 80.705 13.011 80.871 13.139C81.037 13.267 81.556 13.133 81.971 13.024C82.579 12.864 83.148 12.717 83.481 12.998C83.814 13.279 83.756 13.875 83.692 14.498C83.647 14.927 83.592 15.464 83.75 15.605C83.908 15.746 84.428 15.65 84.857 15.573C85.478 15.464 86.057 15.362 86.357 15.673C86.657 15.984 86.557 16.562 86.457 17.173C86.38 17.602 86.284 18.133 86.425 18.286C86.566 18.439 87.103 18.386 87.538 18.337C88.159 18.279 88.738 18.222 89.029 18.548C89.32 18.874 89.163 19.457 89.003 20.058C88.894 20.48 88.76 20.998 88.888 21.165C89.016 21.332 89.553 21.319 89.988 21.306C90.609 21.293 91.204 21.28 91.46 21.632C91.716 21.984 91.524 22.547 91.319 23.132C91.178 23.541 90.999 24.047 91.119 24.22C91.239 24.393 91.772 24.42 92.207 24.45C92.828 24.482 93.423 24.52 93.647 24.891C93.871 25.262 93.641 25.806 93.391 26.375C93.218 26.775 93.001 27.264 93.103 27.45C93.205 27.636 93.736 27.7 94.165 27.763C94.786 27.846 95.374 27.923 95.573 28.313C95.772 28.703 95.49 29.222 95.196 29.772C94.996 30.156 94.735 30.629 94.825 30.821C94.915 31.013 95.439 31.121 95.861 31.221C96.469 31.349 97.051 31.477 97.217 31.88C97.383 32.283 97.063 32.78 96.731 33.307C96.494 33.672 96.206 34.126 96.277 34.324C96.348 34.522 96.866 34.669 97.277 34.797C97.877 34.976 98.441 35.149 98.582 35.565C98.723 35.981 98.358 36.448 97.982 36.947C97.72 37.292 97.393 37.721 97.451 37.926C97.509 38.131 98.008 38.326 98.411 38.476C98.993 38.706 99.543 38.917 99.646 39.346C99.749 39.775 99.352 40.21 98.946 40.677C98.652 40.997 98.293 41.4 98.332 41.605C98.371 41.81 98.857 42.046 99.247 42.232C99.81 42.507 100.341 42.763 100.411 43.198C100.481 43.633 100.053 44.036 99.605 44.465C99.285 44.765 98.895 45.143 98.92 45.348C98.945 45.553 99.406 45.828 99.784 46.048C100.321 46.361 100.833 46.662 100.865 47.104C100.897 47.546 100.443 47.91 99.965 48.304C99.626 48.579 99.21 48.925 99.216 49.136C99.222 49.347 99.664 49.648 100.022 49.891C100.534 50.249 101.022 50.591 101.022 51.03C101.022 51.469 100.536 51.804 100.022 52.162C99.664 52.412 99.222 52.719 99.216 52.923C99.21 53.127 99.625 53.473 99.965 53.748C100.445 54.148 100.905 54.516 100.865 54.948" stroke="#44479D" stroke-linecap="round"/>
</svg>
