<svg xmlns="http://www.w3.org/2000/svg" width="17.725" height="16.541" viewBox="0 0 17.725 16.541">
  <g id="chat" transform="translate(0 -12)">
    <g id="Group_3105" data-name="Group 3105" transform="translate(0 12)">
      <path id="Path_18070" data-name="Path 18070" d="M2.967,24.068a1.108,1.108,0,0,1,.318.887,12.153,12.153,0,0,1-.441,2.216,13.082,13.082,0,0,0,2.918-.989,1.108,1.108,0,0,1,.787-.082,8.929,8.929,0,0,0,2.314.3c4.427,0,7.755-3.11,7.755-6.647s-3.328-6.647-7.755-6.647-7.755,3.111-7.755,6.647A6.088,6.088,0,0,0,2.967,24.068Zm-.546,4.326q-.394.078-.79.143a.288.288,0,0,1-.3-.4q.148-.348.27-.706l0-.011a11.572,11.572,0,0,0,.58-2.569A7.2,7.2,0,0,1,0,19.755C0,15.472,3.968,12,8.862,12s8.862,3.472,8.862,7.755-3.968,7.755-8.862,7.755a10.037,10.037,0,0,1-2.6-.339A15.143,15.143,0,0,1,2.421,28.394Z" transform="translate(0 -12)" fill="#5c61de"/>
    </g>
  </g>
</svg>
