<svg xmlns="http://www.w3.org/2000/svg" width="19.226" height="18.063" viewBox="0 0 19.226 18.063">
  <g id="Group_2738" data-name="Group 2738" transform="translate(-268.74 -29.75)">
    <path id="Line_1408" data-name="Line 1408" d="M17.416.75H0A.75.75,0,0,1-.75,0,.75.75,0,0,1,0-.75H17.416a.75.75,0,0,1,.75.75A.75.75,0,0,1,17.416.75Z" transform="translate(269.801 30.5)" fill="#b2b2b2"/>
    <path id="Line_1410" data-name="Line 1410" d="M17.416.75H0A.75.75,0,0,1-.75,0,.75.75,0,0,1,0-.75H17.416a.75.75,0,0,1,.75.75A.75.75,0,0,1,17.416.75Z" transform="translate(269.801 47.063)" fill="#b2b2b2"/>
    <path id="Path_17636" data-name="Path 17636" d="M272.151,43.281a.748.748,0,0,1-.53-.22l-4.386-4.386,4.386-4.386a.75.75,0,0,1,1.061,1.061l-3.326,3.326L272.682,42a.75.75,0,0,1-.53,1.28Z" transform="translate(1.506 0.105)" fill="#b2b2b2"/>
    <rect id="Rectangle_4702" data-name="Rectangle 4702" width="4" height="4" rx="1" transform="translate(276.879 33.752)" fill="#b2b2b2" opacity="0.7"/>
    <rect id="Rectangle_4705" data-name="Rectangle 4705" width="4" height="4" rx="1" transform="translate(282.879 33.752)" fill="#b2b2b2" opacity="0.7"/>
    <rect id="Rectangle_4703" data-name="Rectangle 4703" width="4" height="4" rx="1" transform="translate(276.879 39.752)" fill="#b2b2b2" opacity="0.7"/>
    <rect id="Rectangle_4704" data-name="Rectangle 4704" width="4" height="4" rx="1" transform="translate(282.879 39.752)" fill="#b2b2b2" opacity="0.7"/>
  </g>
</svg>
