<svg xmlns="http://www.w3.org/2000/svg" width="16" height="15.936" viewBox="0 0 16 15.936">
  <path id="Union_49" data-name="Union 49" d="M.982,15.936A1.014,1.014,0,0,1,0,14.894V4.1A1.014,1.014,0,0,1,.982,3.056H14.044A1.014,1.014,0,0,1,15.027,4.1V7h-4.32A1.285,1.285,0,0,0,9.462,8.32v2.352a1.285,1.285,0,0,0,1.244,1.32h4.32v2.9a1.014,1.014,0,0,1-.982,1.042Zm9.753-4.6a.65.65,0,0,1-.63-.668V8.32a.65.65,0,0,1,.63-.668H15.37A.65.65,0,0,1,16,8.32v2.352a.65.65,0,0,1-.63.668ZM10.98,9.5a.706.706,0,1,0,.705-.748A.728.728,0,0,0,10.98,9.5ZM3.89,2.4l6-2.368a.978.978,0,0,1,1.2.738L11.5,2.4Z" transform="translate(0 0)" fill="#fff" opacity="0.55"/>
</svg>
