<svg width="14" height="14" viewBox="0 0 14 14" fill="none" xmlns="http://www.w3.org/2000/svg">
<g clip-path="url(#clip0_1107_21)">
<path d="M6.99989 14C6.76617 14.0078 6.53889 13.9226 6.36792 13.7631C6.19694 13.6036 6.09623 13.3827 6.08789 13.149V0.851005C6.10323 0.619566 6.20598 0.402614 6.37533 0.244117C6.54467 0.0856209 6.76794 -0.00256348 6.99989 -0.00256348C7.23184 -0.00256348 7.45511 0.0856209 7.62445 0.244117C7.7938 0.402614 7.89655 0.619566 7.91189 0.851005V13.151C7.90303 13.3844 7.8021 13.6047 7.63118 13.7638C7.46026 13.9229 7.23327 14.0078 6.99989 14Z" fill="#FAB93A"/>
<path d="M13.1489 7.91201H0.850883C0.619444 7.89668 0.402492 7.79392 0.243995 7.62458C0.0854988 7.45523 -0.00268555 7.23196 -0.00268555 7.00001C-0.00268555 6.76806 0.0854988 6.54479 0.243995 6.37545C0.402492 6.2061 0.619444 6.10335 0.850883 6.08801H13.1509C13.3823 6.10335 13.5993 6.2061 13.7578 6.37545C13.9163 6.54479 14.0045 6.76806 14.0045 7.00001C14.0045 7.23196 13.9163 7.45523 13.7578 7.62458C13.5993 7.79392 13.3823 7.89668 13.1509 7.91201H13.1489Z" fill="#FAB93A"/>
</g>
<defs>
<clipPath id="clip0_1107_21">
<rect width="14" height="14" fill="white"/>
</clipPath>
</defs>
</svg>
