<svg xmlns="http://www.w3.org/2000/svg" width="15.398" height="16.541" viewBox="0 0 15.398 16.541">
  <path id="Icon_awesome-receipt" data-name="Icon awesome-receipt" d="M14.372.128l-1.54,1.8L10.65.128a.638.638,0,0,0-.77,0L7.7,1.924,5.518.128a.638.638,0,0,0-.77,0l-2.181,1.8L1.027.128A.641.641,0,0,0,0,.641V15.9a.641.641,0,0,0,1.027.513l1.54-1.8,2.181,1.8a.638.638,0,0,0,.77,0l2.181-1.8,2.181,1.8a.638.638,0,0,0,.77,0l2.181-1.8,1.54,1.8A.642.642,0,0,0,15.4,15.9V.641A.641.641,0,0,0,14.372.128Zm-1.54,10.458a.322.322,0,0,1-.321.321H2.887a.322.322,0,0,1-.321-.321V9.944a.322.322,0,0,1,.321-.321h9.624a.322.322,0,0,1,.321.321Zm0-3.85a.322.322,0,0,1-.321.321H2.887a.322.322,0,0,1-.321-.321V6.094a.322.322,0,0,1,.321-.321h9.624a.322.322,0,0,1,.321.321Z" transform="translate(0 0.002)" fill="#fff" opacity="0.55"/>
</svg>
