<svg xmlns="http://www.w3.org/2000/svg" width="17.768" height="17.768" viewBox="0 0 17.768 17.768">
  <g id="copy_outline" transform="translate(-23.4 -23.4)" opacity="0.55">
    <path id="Path_18068" data-name="Path 18068" d="M37.347,34.125h1.381a1.841,1.841,0,0,0,1.841-1.841V25.841A1.841,1.841,0,0,0,38.727,24H32.284a1.841,1.841,0,0,0-1.841,1.841v1.381m-4.6,3.222h6.443a1.841,1.841,0,0,1,1.841,1.841v6.443a1.841,1.841,0,0,1-1.841,1.841H25.841A1.841,1.841,0,0,1,24,38.727V32.284A1.841,1.841,0,0,1,25.841,30.443Z" fill="none" stroke="#616161" stroke-linecap="round" stroke-linejoin="round" stroke-width="1.2"/>
  </g>
</svg>
