<svg width="15" height="16" viewBox="0 0 15 16" fill="none" xmlns="http://www.w3.org/2000/svg">
<g clip-path="url(#clip0_1073_2)">
<path d="M7.49998 12.6605C7.64106 12.6605 7.77644 12.6046 7.87621 12.5048C7.97597 12.4051 8.03191 12.2697 8.03191 12.1286V11.3375C8.61809 11.3222 9.17898 11.0952 9.6107 10.6984C10.0424 10.3016 10.3157 9.76181 10.3803 9.179C10.3803 8.1645 9.58926 7.45857 8.03191 7.07492V4.74633C8.275 4.77718 8.50853 4.86035 8.71629 4.99027C8.92406 5.12018 9.10115 5.29374 9.23531 5.49879C9.2727 5.58187 9.32979 5.6545 9.40164 5.7105C9.4735 5.7665 9.55794 5.80414 9.64763 5.8201C9.74388 5.83392 9.84206 5.82121 9.93165 5.7834C10.0212 5.7456 10.0989 5.68409 10.1562 5.60549C10.2134 5.52689 10.2481 5.43427 10.2566 5.33741C10.2651 5.24054 10.247 5.14318 10.2043 5.05581C9.98288 4.66409 9.66887 4.33263 9.28963 4.09043C8.91039 3.84824 8.47754 3.70266 8.02901 3.66652V2.87544C8.02901 2.73435 7.97295 2.5991 7.87319 2.49933C7.77342 2.39957 7.63817 2.34351 7.49708 2.34351C7.35599 2.34351 7.22061 2.39957 7.12085 2.49933C7.02109 2.5991 6.96502 2.73435 6.96502 2.87544V3.66652C6.37885 3.68184 5.81807 3.90883 5.38636 4.30564C4.95464 4.70246 4.68119 5.24223 4.61664 5.82504C4.61664 6.83559 5.40273 7.54164 6.96502 7.92925V10.2569C6.7219 10.2261 6.48842 10.1429 6.28064 10.0129C6.07286 9.883 5.89581 9.70955 5.76174 9.50441C5.72436 9.42133 5.66727 9.34858 5.59541 9.29258C5.52356 9.23658 5.43912 9.19894 5.34942 9.18298C5.25317 9.16916 5.15488 9.18187 5.06529 9.21968C4.9757 9.25748 4.89815 9.31899 4.8409 9.39759C4.78366 9.47619 4.74898 9.56893 4.74048 9.66579C4.73198 9.76266 4.75006 9.86002 4.79274 9.94739C5.01418 10.3391 5.32819 10.6706 5.70743 10.9128C6.08666 11.155 6.51952 11.3004 6.96804 11.3366V12.1276C6.96791 12.1976 6.98156 12.2668 7.00823 12.3315C7.03491 12.3962 7.07409 12.455 7.12351 12.5045C7.17292 12.554 7.23162 12.5932 7.29623 12.62C7.36084 12.6468 7.43003 12.6605 7.49998 12.6605ZM8.03191 8.1744C8.71813 8.37215 9.31739 8.68658 9.31739 9.179C9.31739 9.67142 8.76757 10.1134 8.03191 10.2598V8.1744ZM5.68353 5.82601C5.68353 5.33161 6.23334 4.89158 6.96901 4.74524V6.82965C6.30256 6.63486 5.68353 6.32238 5.68353 5.82601Z" fill="white"/>
<path d="M13.3131 10.8184C13.3828 10.8173 13.452 10.831 13.5159 10.8589C13.5479 10.872 13.5786 10.888 13.6079 10.9064C13.6372 10.9259 13.6644 10.9484 13.689 10.9737C13.7883 11.0732 13.8444 11.2077 13.8452 11.3483C13.8454 11.3835 13.8421 11.4187 13.8353 11.4532C13.8273 11.4869 13.8168 11.52 13.8036 11.5521C13.7907 11.5841 13.7747 11.6149 13.7561 11.644C13.7359 11.6728 13.7135 11.7 13.689 11.7251C13.6332 11.7804 13.5658 11.8225 13.4918 11.8487C13.4177 11.8749 13.3389 11.8845 13.2607 11.8766C13.1826 11.8688 13.1072 11.8439 13.0398 11.8035C12.9725 11.7631 12.9148 11.7083 12.8711 11.6431C12.8512 11.6151 12.8345 11.5848 12.8216 11.553C12.8082 11.5211 12.798 11.488 12.791 11.4542C12.7839 11.4217 12.7805 11.3885 12.7811 11.3553C12.7808 11.2854 12.7945 11.2161 12.8211 11.1514C12.8478 11.0868 12.8868 11.028 12.9363 10.9786C12.9857 10.9291 13.0447 10.89 13.1094 10.8633C13.174 10.8367 13.2432 10.8231 13.3131 10.8234V10.8184Z" fill="white"/>
<path d="M13.6504 9.40842C13.6815 9.3079 13.7417 9.21891 13.8235 9.15265C13.9052 9.08639 14.005 9.04582 14.1098 9.03617C14.2146 9.02652 14.3197 9.04824 14.4122 9.09845C14.5047 9.14867 14.5803 9.22511 14.6293 9.31825C14.6783 9.41139 14.6985 9.51704 14.6874 9.6217C14.6764 9.72636 14.6345 9.82531 14.5672 9.90619C14.4999 9.98708 14.4101 10.0462 14.3092 10.076C14.2082 10.1059 14.1009 10.1051 14.0004 10.0739C13.8658 10.032 13.7532 9.93839 13.6875 9.81362C13.6219 9.68884 13.6086 9.54308 13.6504 9.40842Z" fill="white"/>
<path d="M14.9978 7.62458C14.9962 7.72963 14.9636 7.83192 14.9039 7.91837C14.8442 8.00482 14.7602 8.07159 14.6625 8.11029C14.5648 8.14899 14.4579 8.15774 14.3552 8.13564C14.2525 8.11353 14.1586 8.06166 14.0855 7.98621C14.0124 7.91075 13.9634 7.81532 13.9446 7.71197C13.9257 7.60862 13.938 7.50178 13.9798 7.40539C14.0216 7.30899 14.0909 7.22718 14.1792 7.17026C14.2675 7.11334 14.3709 7.08402 14.4759 7.08577C14.5458 7.0868 14.6147 7.10147 14.6789 7.12922C14.7431 7.15697 14.8014 7.19727 14.8501 7.24751C14.8988 7.29775 14.9371 7.35699 14.9628 7.42204C14.9885 7.4871 15.0012 7.55657 15 7.62651L14.9978 7.62458Z" fill="white"/>
<path d="M14.7122 5.86047C14.6983 5.89277 14.6818 5.92386 14.6627 5.95341C14.6438 5.98225 14.6216 6.00887 14.5966 6.03259C14.5723 6.05809 14.545 6.08053 14.5155 6.0997C14.4865 6.11806 14.4561 6.13403 14.4245 6.14726C14.3926 6.16091 14.3596 6.17149 14.3257 6.17888C14.2915 6.18526 14.2568 6.18888 14.2219 6.18974C14.1871 6.18895 14.1524 6.18533 14.1181 6.17888C14.0842 6.17178 14.0509 6.16119 14.0191 6.14726C13.9209 6.10762 13.8373 6.03835 13.7799 5.94931C13.7612 5.92006 13.7449 5.88952 13.7314 5.85757C13.7178 5.82582 13.7079 5.79256 13.7017 5.7586C13.694 5.72453 13.6904 5.6897 13.6908 5.65479C13.6907 5.61962 13.6941 5.58456 13.7007 5.55002C13.708 5.51611 13.7186 5.4829 13.7324 5.45105C13.7448 5.41921 13.7611 5.38893 13.7809 5.361C13.8 5.33136 13.8221 5.30384 13.847 5.27892C13.8975 5.23123 13.9557 5.19247 14.0191 5.16426C14.0512 5.15174 14.0844 5.14209 14.1181 5.13553C14.1522 5.12802 14.187 5.12438 14.2219 5.12467C14.2569 5.12369 14.2917 5.12733 14.3257 5.13553C14.3944 5.14698 14.4595 5.17377 14.5164 5.21375C14.5461 5.23242 14.5736 5.25422 14.5985 5.27892C14.6236 5.30372 14.6459 5.33126 14.6649 5.361C14.685 5.38885 14.7014 5.41913 14.7141 5.45105C14.7273 5.48292 14.7373 5.51615 14.7438 5.55002C14.7508 5.58253 14.7544 5.61551 14.7547 5.64876C14.7545 5.68364 14.7508 5.71839 14.7438 5.75256C14.7367 5.78941 14.7261 5.82562 14.7122 5.86047Z" fill="white"/>
<path d="M13.9181 4.25874L11.5549 3.79995C11.526 3.7942 11.4992 3.78074 11.4773 3.76096C11.4554 3.74119 11.4393 3.71589 11.4307 3.6877C11.4221 3.6595 11.4213 3.62942 11.4284 3.60079C11.4355 3.57216 11.4501 3.54605 11.4709 3.52511L12.0483 2.9467C11.1626 2.06089 10.0379 1.4525 8.8117 1.19616C7.58555 0.939819 6.31129 1.04667 5.14489 1.50347C3.97849 1.96026 2.97062 2.74724 2.24465 3.76808C1.51868 4.78893 1.10602 5.99924 1.05742 7.25095C1.00882 8.50266 1.32627 9.74147 1.9709 10.8155C2.61553 11.8896 3.55947 12.7523 4.68694 13.2981C5.81441 13.844 7.07654 14.0493 8.31888 13.8889C9.56121 13.7284 10.7298 13.209 11.6815 12.3946C11.7873 12.3011 11.926 12.2534 12.0669 12.2621C12.2079 12.2709 12.3395 12.3352 12.433 12.441C12.5265 12.5468 12.5741 12.6855 12.5654 12.8264C12.5567 12.9674 12.4924 13.099 12.3865 13.1925C11.2792 14.1444 9.9182 14.7526 8.47036 14.9425C7.02251 15.1324 5.55065 14.8958 4.23527 14.2617C2.9199 13.6276 1.81814 12.6234 1.06491 11.3725C0.311675 10.1215 -0.0603295 8.67793 -0.0053615 7.21872C0.0496065 5.75951 0.529176 4.3481 1.37439 3.15733C2.2196 1.96656 3.39373 1.04815 4.75309 0.514793C6.11244 -0.01856 7.59794 -0.143672 9.0274 0.154617C10.4569 0.452907 11.7682 1.16163 12.8008 2.19412L13.3793 1.61572C13.4003 1.59496 13.4264 1.5803 13.455 1.57323C13.4836 1.56616 13.5136 1.5669 13.5418 1.57553C13.57 1.58415 13.5954 1.60025 13.6152 1.62212C13.635 1.64399 13.6484 1.67081 13.6542 1.69973L14.109 4.06791C14.114 4.09405 14.1124 4.12105 14.1046 4.14649C14.0968 4.17192 14.0829 4.19502 14.0641 4.21384C14.0452 4.23266 14.0222 4.24669 13.9967 4.25451C13.9713 4.26234 13.9443 4.26373 13.9181 4.25874Z" fill="white"/>
</g>
<defs>
<clipPath id="clip0_1073_2">
<rect width="15" height="15.003" fill="white"/>
</clipPath>
</defs>
</svg>
