<svg xmlns="http://www.w3.org/2000/svg" width="84.303" height="84" viewBox="0 0 84.303 84">
  <g id="Group_2424" data-name="Group 2424" transform="translate(-777.697 -68)">
    <circle id="Ellipse_573" data-name="Ellipse 573" cx="42" cy="42" r="42" transform="translate(778 68)" fill="rgba(139,227,139,0.23)"/>
    <g id="Group_2423" data-name="Group 2423" transform="translate(778 75.117)">
      <path id="Union_32" data-name="Union 32" d="M21773.164,213.937l-11.709-12.066a1.592,1.592,0,0,1,.1-2.328l8.184-7.1a1.662,1.662,0,0,1,1.1-.411,1.683,1.683,0,0,1,1.205.5l.592.619a17.4,17.4,0,0,1,6.025-5.121,12.2,12.2,0,0,1,5.23-1.106,20.937,20.937,0,0,1,5.859.942h11.037a4.4,4.4,0,0,1,4.008,2.5c.816-.6,1.633-1.2,2.426-1.78l.072-.049c2.76-2.01,5.613-4.086,8.209-6.287a5.178,5.178,0,0,1,3.309-1.364,4.156,4.156,0,0,1,1.949.5,3.881,3.881,0,0,1,2.082,2.908,3.948,3.948,0,0,1-1.3,3.423c-2.48,2.317-4.951,4.716-7.338,7.032l-.012.011c-1.5,1.457-3.057,2.963-4.6,4.436a10.325,10.325,0,0,1-7.814,2.892h-.389c-2.635-.044-4.666-.049-7.088-.049h-4.025a10.021,10.021,0,0,0-5.689,1.742l-.986.674.143.148a1.6,1.6,0,0,1,.455,1.183,1.623,1.623,0,0,1-.559,1.15l-8.184,7.1a1.692,1.692,0,0,1-1.1.411A1.65,1.65,0,0,1,21773.164,213.937Zm-9.967-13.155,11.189,11.523,7.623-6.616-9.742-10.039-.986-.723.125-.164-.586-.6Zm16.314-10.926a15.931,15.931,0,0,0-5.459,4.748l8.139,8.385,1.27-.871a12.021,12.021,0,0,1,6.824-2.092h4.016c2.436,0,4.479.005,7.131.049,3.115.049,4.928-.57,6.779-2.339,1.512-1.44,3.035-2.919,4.508-4.349l.076-.077c2.4-2.322,4.875-4.727,7.383-7.065a1.978,1.978,0,0,0,.674-1.7,1.855,1.855,0,0,0-1.041-1.391,2.11,2.11,0,0,0-1.008-.263,3.167,3.167,0,0,0-2,.887c-2.656,2.251-5.537,4.349-8.32,6.381-1.187.865-2.262,1.649-3.334,2.448a4.138,4.138,0,0,1-1.4,2.574,4.476,4.476,0,0,1-2.957,1.1h-10.479a1.005,1.005,0,1,1,0-2.01h10.479a2.206,2.206,0,1,0,0-4.4h-11.332l-.137-.038a19.034,19.034,0,0,0-5.418-.9A10.212,10.212,0,0,0,21779.512,189.855Z" transform="translate(-21761.301 -144.296)" fill="#efa228"/>
      <path id="Union_31" data-name="Union 31" d="M21762.711,216.45a1.712,1.712,0,0,1-1.709-1.71V194.892a1.712,1.712,0,0,1,1.709-1.71h22.248c.516-.5,1.1-1.1,1.656-1.671l0-.005c2.67-2.724,5.99-6.11,8.949-7.332a17.685,17.685,0,0,1,6.932-1.195c1.605,0,3.229.126,4.8.247h.006c.121.011.24.022.361.027l.641.049c2.85.214,5.684.241,7.832.241,1.205,0,2.416-.011,3.584-.022l1.281-.011V182.6a1.712,1.712,0,0,1,1.711-1.71h10.668a1.712,1.712,0,0,1,1.711,1.71v16.84a1.712,1.712,0,0,1-1.711,1.71h-10.668a1.712,1.712,0,0,1-1.711-1.71v-1.014a7.452,7.452,0,0,0-5.1,3.261,9.492,9.492,0,0,1-7.914,4.241h-5.408v8.817a1.712,1.712,0,0,1-1.709,1.71Zm.3-2.006h37.57v-14l-3.77,3.787a4.205,4.205,0,0,1-5.5.389,4.2,4.2,0,0,1-.51-6.236l3.041-3.195h-30.83Zm39.576-15.766v5.233H21808a7.468,7.468,0,0,0,6.236-3.343,9.437,9.437,0,0,1,6.773-4.176V185.522l-1.2.011c-1.189.011-2.422.022-3.666.022-3.238,0-5.7-.077-7.979-.247l-.461-.033c-.182-.016-.367-.027-.549-.044-1.523-.115-3.1-.241-4.629-.241a15.94,15.94,0,0,0-6.187,1.041c-2.586,1.069-5.742,4.3-8.285,6.888-.082.088-.17.175-.258.263h7.963l2.234-2.351a1.012,1.012,0,0,1,.725-.312.991.991,0,0,1,.7.279.973.973,0,0,1,.313.7,1,1,0,0,1-.279.718l-7.184,7.557a2.179,2.179,0,0,0,.268,3.244,2.188,2.188,0,0,0,2.861-.2l4.859-4.883a5.215,5.215,0,0,1,.443-.4,5.971,5.971,0,0,1,1.486-.882,5.777,5.777,0,0,1,2.2-.433h.449a3.928,3.928,0,0,0,3.469-2.088,1,1,0,0,1,.883-.521,1.091,1.091,0,0,1,.344.06,1,1,0,0,1,.543,1.419,5.946,5.946,0,0,1-5.238,3.14h-.449A3.819,3.819,0,0,0,21802.588,198.679Zm20.43.455h10.066V182.891h-10.066Z" transform="translate(-21751.156 -181.183)" fill="#44479d"/>
    </g>
    <path id="Polygon_37" data-name="Polygon 37" d="M5.308,3.683l.664,1.8a1.829,1.829,0,0,0,.618.83L8.61,7.835,6.589,9.355a1.829,1.829,0,0,0-.617.83l-.664,1.8-.664-1.8a1.829,1.829,0,0,0-.618-.83L2.006,7.835,4.026,6.314a1.829,1.829,0,0,0,.618-.83l.664-1.8m0-1.792a.721.721,0,0,0-.688.479L3.612,5.1a.733.733,0,0,1-.247.332L.955,7.249a.733.733,0,0,0,0,1.171l2.41,1.813a.733.733,0,0,1,.247.332L4.62,13.3A.733.733,0,0,0,6,13.3L7,10.566a.733.733,0,0,1,.247-.332L9.66,8.42a.733.733,0,0,0,0-1.171L7.25,5.436A.733.733,0,0,1,7,5.1L6,2.37A.721.721,0,0,0,5.308,1.891Z" transform="translate(800.142 70.691)" fill="#efa228"/>
    <path id="Polygon_38" data-name="Polygon 38" d="M4.222,3.526l.286.742a1.828,1.828,0,0,0,.64.828l1.22.876-1.22.876a1.828,1.828,0,0,0-.64.828l-.286.742-.286-.742a1.828,1.828,0,0,0-.64-.828l-1.22-.876L3.3,5.1a1.828,1.828,0,0,0,.64-.828l.286-.742m0-1.75a.722.722,0,0,0-.684.469L2.91,3.871a.733.733,0,0,1-.256.331L1.02,5.376a.733.733,0,0,0,0,1.191L2.654,7.741a.733.733,0,0,1,.256.331L3.538,9.7a.733.733,0,0,0,1.367,0l.628-1.627a.733.733,0,0,1,.256-.331L7.424,6.567a.733.733,0,0,0,0-1.191L5.79,4.2a.733.733,0,0,1-.256-.331L4.906,2.244A.722.722,0,0,0,4.222,1.775Z" transform="translate(794.264 66.225)" fill="#efa228"/>
  </g>
</svg>
