<svg xmlns="http://www.w3.org/2000/svg" width="19.227" height="18.063" viewBox="0 0 19.227 18.063">
  <g id="Group_2738" data-name="Group 2738" transform="translate(-0.001)">
    <path id="Line_1408" data-name="Line 1408" d="M0,.75H17.416a.75.75,0,0,0,.75-.75.75.75,0,0,0-.75-.75H0A.75.75,0,0,0-.75,0,.75.75,0,0,0,0,.75Z" transform="translate(0.751 0.75)" fill="#b2b2b2"/>
    <path id="Line_1410" data-name="Line 1410" d="M0,.75H17.416a.75.75,0,0,0,.75-.75.75.75,0,0,0-.75-.75H0A.75.75,0,0,0-.75,0,.75.75,0,0,0,0,.75Z" transform="translate(0.751 17.313)" fill="#b2b2b2"/>
    <path id="Path_17636" data-name="Path 17636" d="M267.985,43.281a.748.748,0,0,0,.53-.22l4.387-4.386-4.387-4.386a.75.75,0,1,0-1.061,1.061l3.326,3.326L267.454,42a.75.75,0,0,0,.53,1.28Z" transform="translate(-253.674 -29.645)" fill="#b2b2b2"/>
    <rect id="Rectangle_4702" data-name="Rectangle 4702" width="4" height="4" rx="1" transform="translate(7.089 4.002)" fill="#b2b2b2" opacity="0.7"/>
    <rect id="Rectangle_4705" data-name="Rectangle 4705" width="4" height="4" rx="1" transform="translate(1.089 4.002)" fill="#b2b2b2" opacity="0.7"/>
    <rect id="Rectangle_4703" data-name="Rectangle 4703" width="4" height="4" rx="1" transform="translate(7.089 10.002)" fill="#b2b2b2" opacity="0.7"/>
    <rect id="Rectangle_4704" data-name="Rectangle 4704" width="4" height="4" rx="1" transform="translate(1.089 10.002)" fill="#b2b2b2" opacity="0.7"/>
  </g>
</svg>
