<svg xmlns="http://www.w3.org/2000/svg" width="31.023" height="31.023" viewBox="0 0 31.023 31.023">
  <path id="icons8-microsoft-excel-30" d="M18.512,3a2.585,2.585,0,0,0-.518.056l0,0L5.106,5.631l0,0A2.585,2.585,0,0,0,3,8.171V28.853a2.585,2.585,0,0,0,2.1,2.54L17.992,33.97A2.585,2.585,0,0,0,21.1,31.438V5.585A2.585,2.585,0,0,0,18.512,3Zm5.171,2.585V9.463h2.585v2.585H23.682v2.585h2.585v2.585H23.682V19.8h2.585V22.39H23.682v2.585h2.585V27.56H23.682v3.878h7.756a2.585,2.585,0,0,0,2.585-2.585V8.171a2.585,2.585,0,0,0-2.585-2.585Zm5.171,3.878h1.293a1.293,1.293,0,1,1,0,2.585H28.853ZM7.118,12.048h3.105l1.608,3.865a7.589,7.589,0,0,1,.336,1.1h.043a11.52,11.52,0,0,1,.348-1.126l1.8-3.835h2.828l-3.378,6.405,3.479,6.519H14.268l-1.944-4.211a3.622,3.622,0,0,1-.232-.863h-.028c-.044.2-.131.5-.263.9L9.844,24.975H6.812l3.6-6.471Zm21.735,2.585h1.293a1.293,1.293,0,0,1,0,2.585H28.853Zm0,5.171h1.293a1.293,1.293,0,0,1,0,2.585H28.853Zm0,5.171h1.293a1.293,1.293,0,1,1,0,2.585H28.853Z" transform="translate(-3 -3)" fill="#44479d"/>
</svg>
