<svg width="16" height="16" viewBox="0 0 16 16" fill="none" xmlns="http://www.w3.org/2000/svg">
<g clip-path="url(#clip0_1102_2)">
<path d="M0.981971 15.9361C0.71371 15.9277 0.459707 15.8133 0.275633 15.618C0.0915589 15.4227 -0.00757078 15.1623 -2.92286e-05 14.8941V4.10005C-0.00811038 3.83143 0.0907783 3.57058 0.27491 3.37482C0.459041 3.17907 0.713353 3.06441 0.981971 3.05605H14.044C14.3128 3.06415 14.5673 3.17869 14.7517 3.37448C14.936 3.57026 15.035 3.83126 15.027 4.10005V7.00005H10.707C10.367 7.01051 10.0451 7.15532 9.81168 7.40276C9.5783 7.65019 9.45255 7.98005 9.46197 8.32005V10.6721C9.45254 11.0119 9.57816 11.3416 9.81132 11.589C10.0445 11.8364 10.3662 11.9813 10.706 11.9921H15.026V14.8921C15.0335 15.1603 14.9344 15.4207 14.7503 15.616C14.5662 15.8113 14.3122 15.9257 14.044 15.9341L0.981971 15.9361ZM10.735 11.3361C10.5629 11.3308 10.3999 11.2576 10.2818 11.1323C10.1637 11.0071 10.1001 10.8401 10.105 10.6681V8.32005C10.1001 8.14798 10.1637 7.98101 10.2818 7.85578C10.3999 7.73055 10.5629 7.65728 10.735 7.65205H15.37C15.542 7.65728 15.705 7.73055 15.8231 7.85578C15.9412 7.98101 16.0048 8.14798 16 8.32005V10.6721C16.0048 10.8441 15.9412 11.0111 15.8231 11.1363C15.705 11.2616 15.542 11.3348 15.37 11.3401L10.735 11.3361ZM10.98 9.50005C10.9882 9.63764 11.0365 9.76982 11.1189 9.88029C11.2013 9.99075 11.3143 10.0747 11.4439 10.1217C11.5734 10.1687 11.7139 10.1768 11.848 10.1449C11.9821 10.113 12.1039 10.0426 12.1985 9.94228C12.293 9.84198 12.3561 9.7162 12.38 9.58045C12.4039 9.4447 12.3876 9.30493 12.333 9.17837C12.2784 9.05182 12.1879 8.94401 12.0728 8.86825C11.9576 8.79249 11.8228 8.7521 11.685 8.75205C11.4924 8.75806 11.3101 8.84017 11.1779 8.98038C11.0458 9.12058 10.9746 9.30746 10.98 9.50005ZM3.88997 2.40005L9.88997 0.0320519C10.0173 -0.000837775 10.15 -0.00770618 10.28 0.0118575C10.4101 0.0314212 10.5349 0.077015 10.6469 0.145912C10.7589 0.214809 10.8559 0.305593 10.932 0.412834C11.0082 0.520075 11.0619 0.64157 11.09 0.770052L11.5 2.40005H3.88997Z" fill="#FAB93A"/>
</g>
<defs>
<clipPath id="clip0_1102_2">
<rect width="16" height="15.936" fill="white"/>
</clipPath>
</defs>
</svg>
