<svg xmlns="http://www.w3.org/2000/svg" width="18.82" height="11.547" viewBox="0 0 18.82 11.547">
  <g id="Icon_feather-copy" data-name="Icon feather-copy" transform="translate(-4.499 -4.5)" style="mix-blend-mode: normal;isolation: isolate">
    <path id="Union_29" data-name="Union 29" d="M5.019,11.547A1.884,1.884,0,0,1,3.137,9.665V5.018A1.884,1.884,0,0,1,5.019,3.137h11.92a1.884,1.884,0,0,1,1.882,1.882V9.665a1.884,1.884,0,0,1-1.882,1.882ZM0,6.529V1.882A1.884,1.884,0,0,1,1.883,0H13.8a1.884,1.884,0,0,1,1.882,1.882.627.627,0,0,1-1.255,0,.628.628,0,0,0-.627-.627H1.883a.628.628,0,0,0-.627.627V6.529a.628.628,0,0,0,.627.627.627.627,0,0,1,0,1.255A1.884,1.884,0,0,1,0,6.529Z" transform="translate(4.498 4.5)" fill="#FFFFFF"/>
  </g>
</svg>
