<svg xmlns="http://www.w3.org/2000/svg" width="14.201" height="17.916" viewBox="0 0 14.201 17.916">
  <g id="Group_3335" data-name="Group 3335" transform="translate(-1611.201 -928.379)" opacity="0.55">
    <path id="Icon_awesome-file-csv" data-name="Icon awesome-file-csv" d="M4.511,9.867a.282.282,0,0,1-.282.282H3.947a.564.564,0,0,0-.564.564V11.84a.564.564,0,0,0,.564.564h.282a.282.282,0,0,1,.282.282v.564a.282.282,0,0,1-.282.282H3.947A1.691,1.691,0,0,1,2.255,11.84V10.713A1.691,1.691,0,0,1,3.947,9.021h.282a.282.282,0,0,1,.282.282Zm1.56,3.665H5.638a.282.282,0,0,1-.282-.282v-.564a.282.282,0,0,1,.282-.282h.432c.21,0,.367-.123.367-.233a.187.187,0,0,0-.075-.135l-.771-.661a1.308,1.308,0,0,1-.47-.992A1.434,1.434,0,0,1,6.616,9.022h.432A.282.282,0,0,1,7.33,9.3v.564a.282.282,0,0,1-.282.282H6.615c-.21,0-.367.123-.367.233a.187.187,0,0,0,.075.135l.771.661a1.308,1.308,0,0,1,.47.992,1.433,1.433,0,0,1-1.494,1.361ZM9.021,9.3v.733a3.841,3.841,0,0,0,.564,2,3.84,3.84,0,0,0,.564-2V9.3a.282.282,0,0,1,.282-.282h.564a.282.282,0,0,1,.282.282v.733A4.847,4.847,0,0,1,10,13.352a.564.564,0,0,1-.826,0,4.847,4.847,0,0,1-1.278-3.316V9.3a.282.282,0,0,1,.282-.282h.564A.282.282,0,0,1,9.021,9.3Z" transform="translate(1611.604 927.979)" fill="#616161"/>
    <g id="document-clean_outline" transform="translate(1571.801 904.979)">
      <path id="Path_37206" data-name="Path 37206" d="M47.429,24H40V40.716H53V29.572M47.429,24h.929L53,28.643v.929M47.429,24v3.715a2,2,0,0,0,1.857,1.857H53" fill="none" stroke="#616161" stroke-linecap="round" stroke-linejoin="round" stroke-width="1.2"/>
    </g>
  </g>
</svg>
