<svg width="16" height="17" viewBox="0 0 16 17" fill="none" xmlns="http://www.w3.org/2000/svg">
<g clip-path="url(#clip0_1107_25)">
<path d="M14.372 0.130012L12.832 1.93001L10.65 0.130012C10.5392 0.0461402 10.404 0.000754078 10.265 0.000754078C10.126 0.000754078 9.99083 0.0461402 9.88 0.130012L7.7 1.92601L5.518 0.130012C5.40717 0.0461402 5.27199 0.000754078 5.133 0.000754078C4.99401 0.000754078 4.85883 0.0461402 4.748 0.130012L2.567 1.93001L1.027 0.130012C0.93176 0.0581726 0.818361 0.0143375 0.699563 0.00343839C0.580765 -0.00746076 0.461283 0.0150085 0.354559 0.0683181C0.247836 0.121628 0.158108 0.203662 0.095469 0.305191C0.0328305 0.40672 -0.00023214 0.523715 1.22689e-06 0.643012V15.902C-0.00023214 16.0213 0.0328305 16.1383 0.095469 16.2398C0.158108 16.3414 0.247836 16.4234 0.354559 16.4767C0.461283 16.53 0.580765 16.5525 0.699563 16.5416C0.818361 16.5307 0.93176 16.4869 1.027 16.415L2.567 14.615L4.748 16.415C4.85883 16.4989 4.99401 16.5443 5.133 16.5443C5.27199 16.5443 5.40717 16.4989 5.518 16.415L7.699 14.615L9.88 16.415C9.99083 16.4989 10.126 16.5443 10.265 16.5443C10.404 16.5443 10.5392 16.4989 10.65 16.415L12.831 14.615L14.371 16.415C14.4663 16.487 14.5799 16.531 14.6989 16.542C14.8178 16.553 14.9375 16.5306 15.0444 16.4773C15.1514 16.424 15.2413 16.3419 15.3041 16.2403C15.3669 16.1386 15.4001 16.0215 15.4 15.902V0.643012C15.4004 0.523544 15.3674 0.40635 15.3047 0.30465C15.242 0.202951 15.1521 0.120794 15.0452 0.0674495C14.9383 0.014105 14.8186 -0.00830414 14.6997 0.00275032C14.5807 0.0138048 14.4672 0.0578829 14.372 0.130012ZM12.832 10.588C12.8317 10.6731 12.7978 10.7546 12.7377 10.8147C12.6775 10.8748 12.5961 10.9087 12.511 10.909H2.887C2.80195 10.9087 2.72045 10.8748 2.66031 10.8147C2.60017 10.7546 2.56626 10.6731 2.566 10.588V9.94601C2.56626 9.86096 2.60017 9.77946 2.66031 9.71932C2.72045 9.65918 2.80195 9.62528 2.887 9.62501H12.511C12.5961 9.62528 12.6775 9.65918 12.7377 9.71932C12.7978 9.77946 12.8317 9.86096 12.832 9.94601V10.588ZM12.832 6.73801C12.8317 6.82306 12.7978 6.90456 12.7377 6.9647C12.6775 7.02484 12.5961 7.05875 12.511 7.05901H2.887C2.80195 7.05875 2.72045 7.02484 2.66031 6.9647C2.60017 6.90456 2.56626 6.82306 2.566 6.73801V6.09601C2.56626 6.01096 2.60017 5.92946 2.66031 5.86932C2.72045 5.80918 2.80195 5.77527 2.887 5.77501H12.511C12.5961 5.77527 12.6775 5.80918 12.7377 5.86932C12.7978 5.92946 12.8317 6.01096 12.832 6.09601V6.73801Z" fill="#FAB93A"/>
</g>
<defs>
<clipPath id="clip0_1107_25">
<rect width="15.398" height="16.541" fill="white"/>
</clipPath>
</defs>
</svg>
