<svg width="15" height="15" viewBox="0 0 15 15" fill="none" xmlns="http://www.w3.org/2000/svg">
<g clip-path="url(#clip0_1106_19)">
<path d="M8.33299 0H6.66699V8.333H8.33399L8.33299 0ZM12.358 1.808L11.175 2.992C11.8498 3.53342 12.3941 4.21973 12.7677 5.00008C13.1413 5.78044 13.3345 6.63484 13.333 7.5C13.334 8.48469 13.0858 9.45362 12.6114 10.3165C12.137 11.1794 11.4518 11.9081 10.6198 12.4348C9.78781 12.9614 8.83601 13.2689 7.85313 13.3285C6.87024 13.3881 5.88827 13.1979 4.9987 12.7757C4.10914 12.3534 3.34096 11.7129 2.76573 10.9136C2.19051 10.1144 1.82697 9.18262 1.709 8.20502C1.59103 7.22742 1.72247 6.23587 2.09106 5.32277C2.45966 4.40967 3.05341 3.60474 3.81699 2.983L2.64199 1.808C1.47265 2.80234 0.636554 4.13152 0.246581 5.61611C-0.143392 7.10069 -0.0684648 8.66919 0.461248 10.1098C0.990961 11.5505 1.94995 12.7939 3.20875 13.6723C4.46755 14.5506 5.96554 15.0216 7.50049 15.0216C9.03544 15.0216 10.5334 14.5506 11.7922 13.6723C13.051 12.7939 14.01 11.5505 14.5397 10.1098C15.0694 8.66919 15.1444 7.10069 14.7544 5.61611C14.3644 4.13152 13.5273 2.80234 12.358 1.808Z" fill="#FAB93A"/>
</g>
<defs>
<clipPath id="clip0_1106_19">
<rect width="15" height="15" fill="white"/>
</clipPath>
</defs>
</svg>
