<svg width="16" height="16" viewBox="0 0 16 16" fill="none" xmlns="http://www.w3.org/2000/svg">
<g clip-path="url(#clip0_1104_2)">
<path d="M4.63698 6.97962C4.63698 6.88785 4.60977 6.79814 4.55878 6.72184C4.5078 6.64553 4.43533 6.58606 4.35055 6.55094C4.26576 6.51582 4.17247 6.50664 4.08246 6.52454C3.99246 6.54245 3.90978 6.58663 3.84489 6.65153C3.77999 6.71642 3.73581 6.7991 3.7179 6.88911C3.7 6.97911 3.70918 7.07242 3.7443 7.1572C3.77942 7.24199 3.83889 7.31444 3.9152 7.36542C3.9915 7.41641 4.08121 7.44364 4.17298 7.44364C4.29604 7.44364 4.41406 7.39473 4.50107 7.30772C4.58809 7.2207 4.63698 7.10268 4.63698 6.97962Z" fill="#FAB93A"/>
<path d="M0 6.97962C0 6.88785 0.0272131 6.79814 0.0781981 6.72184C0.129183 6.64553 0.20165 6.58606 0.286435 6.55094C0.37122 6.51582 0.464515 6.50664 0.554522 6.52454C0.644529 6.54245 0.727206 6.58663 0.792098 6.65153C0.856989 6.71642 0.901181 6.7991 0.919084 6.88911C0.936988 6.97911 0.927799 7.07242 0.89268 7.1572C0.857561 7.24199 0.798089 7.31444 0.721785 7.36542C0.64548 7.41641 0.555771 7.44364 0.464 7.44364C0.34094 7.44364 0.222919 7.39473 0.135902 7.30772C0.0488856 7.2207 0 7.10268 0 6.97962Z" fill="#FAB93A"/>
<path d="M1.85547 6.97962C1.85547 6.88785 1.88269 6.79814 1.93367 6.72184C1.98466 6.64553 2.05712 6.58606 2.14191 6.55094C2.22669 6.51582 2.31998 6.50664 2.40999 6.52454C2.5 6.54245 2.58268 6.58663 2.64757 6.65153C2.71246 6.71642 2.75665 6.7991 2.77455 6.88911C2.79245 6.97911 2.78327 7.07242 2.74815 7.1572C2.71303 7.24199 2.65356 7.31444 2.57726 7.36542C2.50095 7.41641 2.41124 7.44364 2.31947 7.44364C2.19641 7.44364 2.07839 7.39473 1.99137 7.30772C1.90435 7.2207 1.85547 7.10268 1.85547 6.97962Z" fill="#FAB93A"/>
<path d="M11.5912 10.5561C11.495 10.556 11.4009 10.5273 11.321 10.4738C11.241 10.4203 11.1788 10.3443 11.142 10.2554C11.1052 10.1665 11.0955 10.0687 11.1142 9.9743C11.1329 9.87993 11.1792 9.79322 11.2472 9.72511L13.9942 6.97812L11.2472 4.23111C11.1558 4.13974 11.1045 4.01582 11.1045 3.88661C11.1045 3.7574 11.1558 3.63348 11.2472 3.54211C11.3386 3.45075 11.4625 3.39941 11.5917 3.39941C11.7209 3.39941 11.8448 3.45075 11.9362 3.54211L15.0272 6.63312C15.0724 6.67834 15.1084 6.73204 15.1329 6.79115C15.1574 6.85026 15.17 6.91363 15.17 6.97762C15.17 7.0416 15.1574 7.10497 15.1329 7.16408C15.1084 7.22319 15.0724 7.27689 15.0272 7.32211L11.9362 10.4131C11.891 10.4586 11.8372 10.4946 11.778 10.5191C11.7188 10.5437 11.6553 10.5563 11.5912 10.5561Z" fill="#FAB93A"/>
<path d="M14.6075 7.40173H5.84247C5.77851 7.40173 5.71519 7.38914 5.6561 7.36466C5.59702 7.34019 5.54333 7.30432 5.49811 7.2591C5.45289 7.21387 5.41701 7.16019 5.39254 7.1011C5.36807 7.04202 5.35547 6.97869 5.35547 6.91473C5.35547 6.85078 5.36807 6.78745 5.39254 6.72837C5.41701 6.66928 5.45289 6.6156 5.49811 6.57037C5.54333 6.52515 5.59702 6.48928 5.6561 6.46481C5.71519 6.44033 5.77851 6.42773 5.84247 6.42773H14.6075C14.6714 6.42773 14.7348 6.44033 14.7938 6.46481C14.8529 6.48928 14.9066 6.52515 14.9518 6.57037C14.9971 6.6156 15.0329 6.66928 15.0574 6.72837C15.0819 6.78745 15.0945 6.85078 15.0945 6.91473C15.0945 6.97869 15.0819 7.04202 15.0574 7.1011C15.0329 7.16019 14.9971 7.21387 14.9518 7.2591C14.9066 7.30432 14.8529 7.34019 14.7938 7.36466C14.7348 7.38914 14.6714 7.40173 14.6075 7.40173Z" fill="#FAB93A"/>
<path d="M9.11842 12.2335C9.11842 12.1417 9.09122 12.0521 9.04024 11.9758C8.98925 11.8995 8.91677 11.84 8.83198 11.8049C8.7472 11.7698 8.65393 11.7605 8.56392 11.7784C8.47391 11.7963 8.3912 11.8406 8.32631 11.9055C8.26142 11.9703 8.21726 12.053 8.19936 12.143C8.18145 12.233 8.1906 12.3263 8.22572 12.4111C8.26084 12.4959 8.32032 12.5683 8.39662 12.6193C8.47293 12.6703 8.56266 12.6975 8.65443 12.6975C8.77749 12.6975 8.89548 12.6487 8.9825 12.5616C9.06951 12.4746 9.11842 12.3566 9.11842 12.2335Z" fill="#FAB93A"/>
<path d="M0.618164 2.34193C0.618164 2.25015 0.645377 2.16045 0.696362 2.08414C0.747347 2.00784 0.819813 1.94836 0.904598 1.91324C0.989383 1.87813 1.08268 1.86894 1.17269 1.88685C1.26269 1.90475 1.34537 1.94894 1.41026 2.01383C1.47515 2.07872 1.51934 2.1614 1.53725 2.25141C1.55515 2.34142 1.54596 2.43471 1.51085 2.51949C1.47573 2.60428 1.41625 2.67674 1.33995 2.72773C1.26364 2.77871 1.17394 2.80593 1.08216 2.80593C0.959104 2.80593 0.841083 2.75704 0.754066 2.67003C0.66705 2.58301 0.618164 2.46499 0.618164 2.34193Z" fill="#FAB93A"/>
<path d="M10.0459 12.2335C10.0459 12.1417 10.0731 12.0521 10.1241 11.9758C10.1751 11.8995 10.2476 11.84 10.3323 11.8049C10.4171 11.7698 10.5104 11.7605 10.6004 11.7784C10.6904 11.7963 10.7731 11.8406 10.838 11.9055C10.9029 11.9703 10.9471 12.053 10.965 12.143C10.9829 12.233 10.9737 12.3263 10.9386 12.4111C10.9035 12.4959 10.844 12.5683 10.7677 12.6193C10.6914 12.6703 10.6017 12.6975 10.5099 12.6975C10.3868 12.6975 10.2688 12.6487 10.1818 12.5616C10.0948 12.4746 10.0459 12.3566 10.0459 12.2335Z" fill="#FAB93A"/>
<path d="M2.47266 2.34193C2.47266 2.25015 2.49987 2.16045 2.55086 2.08414C2.60184 2.00784 2.67431 1.94836 2.75909 1.91324C2.84388 1.87813 2.93717 1.86894 3.02718 1.88685C3.11718 1.90475 3.19986 1.94894 3.26476 2.01383C3.32965 2.07872 3.37384 2.1614 3.39174 2.25141C3.40964 2.34142 3.40046 2.43471 3.36534 2.51949C3.33022 2.60428 3.27075 2.67674 3.19444 2.72773C3.11814 2.77871 3.02843 2.80593 2.93666 2.80593C2.8136 2.80593 2.69558 2.75704 2.60857 2.67003C2.52155 2.58301 2.47266 2.46499 2.47266 2.34193Z" fill="#FAB93A"/>
<path d="M6.6449 4.6827C6.54868 4.68255 6.45468 4.65392 6.37473 4.60039C6.29477 4.54687 6.23245 4.47086 6.19565 4.38197C6.15885 4.29307 6.14921 4.19526 6.16794 4.10089C6.18667 4.00651 6.23294 3.9198 6.3009 3.8517L7.81091 2.3417L6.3009 0.831697C6.20954 0.74033 6.1582 0.616409 6.1582 0.487196C6.1582 0.357983 6.20954 0.234063 6.3009 0.142696C6.39227 0.0513293 6.51617 6.0887e-09 6.64539 0C6.7746 -6.0887e-09 6.89853 0.0513293 6.9899 0.142696L8.8439 1.9997C8.88917 2.04492 8.92506 2.09863 8.94955 2.15774C8.97405 2.21685 8.98666 2.28021 8.98666 2.3442C8.98666 2.40818 8.97405 2.47154 8.94955 2.53065C8.92506 2.58977 8.88917 2.64347 8.8439 2.6887L6.98889 4.5437C6.89712 4.6337 6.77343 4.68368 6.6449 4.6827Z" fill="#FAB93A"/>
<path d="M3.55548 15.1932C3.49155 15.1933 3.42824 15.1807 3.3692 15.1561C3.31016 15.1316 3.25656 15.0956 3.21148 15.0502L0.73848 12.5732C0.693216 12.528 0.657311 12.4743 0.632812 12.4152C0.608314 12.3561 0.595703 12.2927 0.595703 12.2288C0.595703 12.1648 0.608314 12.1014 0.632812 12.0423C0.657311 11.9832 0.693216 11.9295 0.73848 11.8843L3.21148 9.41125C3.30285 9.31989 3.42677 9.26855 3.55598 9.26855C3.6852 9.26855 3.80912 9.31989 3.90048 9.41125C3.99185 9.50262 4.04317 9.62652 4.04317 9.75574C4.04317 9.88495 3.99185 10.0089 3.90048 10.1003L1.77148 12.2292L3.90048 14.3583C3.96845 14.4264 4.01471 14.513 4.03344 14.6074C4.05217 14.7018 4.04253 14.7997 4.00573 14.8885C3.96893 14.9774 3.90662 15.0534 3.82667 15.1069C3.74671 15.1605 3.6527 15.1891 3.55648 15.1893L3.55548 15.1932Z" fill="#FAB93A"/>
<path d="M6.9546 12.7201H1.2546C1.19056 12.7202 1.12713 12.7077 1.06793 12.6833C1.00873 12.6589 0.954922 12.623 0.909594 12.5778C0.864266 12.5326 0.828304 12.4788 0.803768 12.4197C0.779231 12.3605 0.766601 12.2971 0.766602 12.2331C0.766602 12.1691 0.779198 12.1058 0.803672 12.0467C0.828146 11.9876 0.864018 11.934 0.90924 11.8887C0.954463 11.8435 1.00815 11.8076 1.06723 11.7832C1.12632 11.7587 1.18965 11.7461 1.2536 11.7461H6.9536C7.01756 11.7461 7.08088 11.7587 7.13997 11.7832C7.19905 11.8076 7.25274 11.8435 7.29796 11.8887C7.34318 11.934 7.37906 11.9876 7.40353 12.0467C7.42801 12.1058 7.4406 12.1691 7.4406 12.2331C7.4406 12.3621 7.38943 12.4858 7.29832 12.5771C7.2072 12.6684 7.08359 12.7198 6.9546 12.7201Z" fill="#FAB93A"/>
<path d="M8.27773 2.85681H4.70673C4.64277 2.85681 4.57945 2.84422 4.52036 2.81974C4.46127 2.79527 4.40759 2.7594 4.36237 2.71417C4.31714 2.66895 4.28127 2.61526 4.2568 2.55618C4.23232 2.49709 4.21973 2.43377 4.21973 2.36981C4.21973 2.30586 4.23232 2.24253 4.2568 2.18345C4.28127 2.12436 4.31714 2.07067 4.36237 2.02545C4.40759 1.98023 4.46127 1.94436 4.52036 1.91988C4.57945 1.89541 4.64277 1.88281 4.70673 1.88281H8.27773C8.34168 1.88281 8.40501 1.89541 8.46409 1.91988C8.52318 1.94436 8.57687 1.98023 8.62209 2.02545C8.66731 2.07067 8.70318 2.12436 8.72766 2.18345C8.75213 2.24253 8.76473 2.30586 8.76473 2.36981C8.76473 2.49897 8.71342 2.62284 8.62209 2.71417C8.53076 2.8055 8.40689 2.85681 8.27773 2.85681Z" fill="#FAB93A"/>
</g>
<defs>
<clipPath id="clip0_1104_2">
<rect width="15.17" height="15.193" fill="white"/>
</clipPath>
</defs>
</svg>
