<svg xmlns="http://www.w3.org/2000/svg" width="84.501" height="82" viewBox="0 0 84.501 82">
  <g id="Group_2425" data-name="Group 2425" transform="translate(-510.851 -67)">
    <g id="Group_2424" data-name="Group 2424" transform="translate(510.854 67)">
      <circle id="Ellipse_573" data-name="Ellipse 573" cx="41" cy="41" r="41" transform="translate(0.146)" fill="#f9ead4"/>
      <path id="Union_33" data-name="Union 33" d="M19.455,57.273l-.043-.022L2.355,48.807a1.877,1.877,0,0,1-.412-2.938,1.851,1.851,0,0,1-.975-1.61,1.884,1.884,0,0,1,.445-1.246,1.878,1.878,0,0,1-.385-2.791,1.876,1.876,0,0,1-.137-3.275L54.6,3.857A3.483,3.483,0,0,1,56.42,3.34a3.71,3.71,0,0,1,.848.1l.107.033,5.816,1.469a20.662,20.662,0,0,0,4.07.457c.408,0,.789-.016,1.125-.049,3.939-.365,7.711-3.988,7.754-4.021L77.5,0l.076,1.9a10.245,10.245,0,0,1-.631,3.346,20.733,20.733,0,0,1-1.633,3.613A28.839,28.839,0,0,1,72.9,12.448l7.234,2.122a1.845,1.845,0,0,1,.941.62,1.9,1.9,0,0,1,.23,1.991,1.908,1.908,0,0,1-.768.822l-1.621.914,2.393.778a1.923,1.923,0,0,1,.92.653,1.882,1.882,0,0,1,.375.974,1.927,1.927,0,0,1-.2,1.023,1.872,1.872,0,0,1-.795.8L77.518,25.3l5.8,2.323a1.87,1.87,0,0,1,.871.713,1.871,1.871,0,0,1,.037,2.008,1.835,1.835,0,0,1-.85.74L23.111,57.441a4.516,4.516,0,0,1-1.572.277A5.269,5.269,0,0,1,19.455,57.273ZM3.291,46.979l-.076.033a.19.19,0,0,0-.109.163.171.171,0,0,0,.084.158l16.951,8.395a3.654,3.654,0,0,0,1.4.3,2.761,2.761,0,0,0,.963-.169L82.691,29.531a.167.167,0,0,0,.109-.169.171.171,0,0,0-.121-.169l-7.121-2.862L22.834,54.117a4.256,4.256,0,0,1-1.895.484h-.064a4.236,4.236,0,0,1-1.838-.424L3.646,46.7A.824.824,0,0,1,3.291,46.979Zm-.527-2.922a.165.165,0,0,0-.1.169.179.179,0,0,0,.1.169l.723.348,16.285,7.911a2.46,2.46,0,0,0,1.1.256,2.532,2.532,0,0,0,1.166-.288L80.814,21.648a.18.18,0,0,0,.1-.18.177.177,0,0,0-.131-.163l-3.863-1.257L22.73,50.728a4.216,4.216,0,0,1-1.877.544c-.064,0-.131.005-.2.005a4.261,4.261,0,0,1-1.723-.37L3.189,43.834Zm-.4-2.775a.179.179,0,0,0-.094.174.171.171,0,0,0,.109.158l.018.011,4.02,1.8,13.215,5.941a2.551,2.551,0,0,0,1.027.218,2.523,2.523,0,0,0,1.236-.326L69.77,22.148,76.4,18.394l.309-.19.021.005,2.961-1.681a.179.179,0,0,0,.1-.185.184.184,0,0,0-.137-.158l-7.922-2.312c-.881,1.012-1.871,2.04-2.947,3.063a56.831,56.831,0,0,1-4.7,3.961c-1.85,1.409-3.906,2.807-6.1,4.162-5.164,3.177-9.5,5.941-11.627,7.307-.086.054-.137.087-.148.092l-.014.011-23.705,14.6a4.179,4.179,0,0,1-2.209.626,4.237,4.237,0,0,1-1.578-.3l-15.8-6.409ZM55.486,5.3,1.783,38.388a.178.178,0,0,0-.092.169.193.193,0,0,0,.119.163l1.346.539,16.18,6.567a2.534,2.534,0,0,0,.941.18,2.49,2.49,0,0,0,1.316-.37l23.7-14.6.092-.06c1.7-1.088,6.236-3.988,11.707-7.356,2.141-1.317,4.146-2.688,5.971-4.064a55.239,55.239,0,0,0,4.553-3.846,39.889,39.889,0,0,0,3.176-3.346A23.656,23.656,0,0,0,75.3,4.809c.094-.272.176-.539.246-.794-.295.218-.578.413-.861.6A17.337,17.337,0,0,1,71.9,6.137a11.047,11.047,0,0,1-3.357.9c-.4.038-.832.054-1.283.054a22.324,22.324,0,0,1-4.461-.5l-.021-.005-5.926-1.5a1.724,1.724,0,0,0-.434-.054A1.782,1.782,0,0,0,55.486,5.3Z" transform="translate(0 9.949)" fill="#44479d"/>
      <path id="Ellipse_574" data-name="Ellipse 574" d="M5.388,1.176A4.212,4.212,0,1,0,9.6,5.388,4.217,4.217,0,0,0,5.388,1.176M5.388,0A5.388,5.388,0,1,1,0,5.388,5.388,5.388,0,0,1,5.388,0Z" transform="translate(14.838 18.613)" fill="#efa228"/>
      <path id="Ellipse_577" data-name="Ellipse 577" d="M7.347,1.176a6.172,6.172,0,1,0,6.172,6.172A6.179,6.179,0,0,0,7.347,1.176M7.347,0A7.347,7.347,0,1,1,0,7.347,7.347,7.347,0,0,1,7.347,0Z" transform="translate(59.9 61.716)" fill="#efa228"/>
      <path id="Ellipse_575" data-name="Ellipse 575" d="M3.918,1.176A2.743,2.743,0,1,0,6.661,3.918,2.746,2.746,0,0,0,3.918,1.176M3.918,0A3.918,3.918,0,1,1,0,3.918,3.918,3.918,0,0,1,3.918,0Z" transform="translate(25.614 5.878)" fill="#efa228"/>
      <path id="Ellipse_576" data-name="Ellipse 576" d="M2.939,1.176A1.763,1.763,0,1,0,4.7,2.939,1.765,1.765,0,0,0,2.939,1.176M2.939,0A2.939,2.939,0,1,1,0,2.939,2.939,2.939,0,0,1,2.939,0Z" transform="translate(10.919 0.98)" fill="#efa228"/>
    </g>
  </g>
</svg>
