<svg xmlns="http://www.w3.org/2000/svg" width="16.827" height="18.124" viewBox="0 0 16.827 18.124">
  <g id="share" transform="translate(-11.849 -11.808)" opacity="0.5">
    <path id="Path_19119" data-name="Path 19119" d="M25.443,23.467a3.233,3.233,0,0,0-2.515,1.222L18.2,21.734a2.884,2.884,0,0,0,0-1.707l4.726-2.955a3.233,3.233,0,1,0-.718-2.011,3.1,3.1,0,0,0,.129.853L17.614,18.87a3.233,3.233,0,1,0,0,4.022l4.726,2.955a3.1,3.1,0,0,0-.129.853,3.233,3.233,0,1,0,3.233-3.233Zm0-10.345a1.94,1.94,0,1,1-1.94,1.94,1.94,1.94,0,0,1,1.94-1.94ZM15.1,22.82a1.94,1.94,0,1,1,1.94-1.94A1.94,1.94,0,0,1,15.1,22.82Zm10.345,5.819a1.94,1.94,0,1,1,1.94-1.94,1.94,1.94,0,0,1-1.94,1.94Z" transform="translate(0 0)" fill="#282a54"/>
  </g>
</svg>
