<svg xmlns="http://www.w3.org/2000/svg" width="13.999" height="13.999" viewBox="0 0 13.999 13.999">
  <path id="Subtraction_22" data-name="Subtraction 22" d="M-6725.813-1448H-6726v-4h4v.191a.75.75,0,0,1-.218.527l-3.063,3.063A.745.745,0,0,1-6725.813-1448Zm-1.187,0h-8.25a.75.75,0,0,1-.75-.749v-12.5a.751.751,0,0,1,.75-.75h12.5a.75.75,0,0,1,.749.75v8.25h-4.25a.75.75,0,0,0-.749.749V-1448Zm-6.2-8.96a.561.561,0,0,0-.561.56.562.562,0,0,0,.561.561h2.8a.561.561,0,0,0,.56-.561.56.56,0,0,0-.56-.56Zm0-2.8a.562.562,0,0,0-.561.561.561.561,0,0,0,.561.56h8.4a.56.56,0,0,0,.56-.56.561.561,0,0,0-.56-.561Z" transform="translate(6736 1462)" fill="rgba(93,98,224,0.38)"/>
</svg>
