<svg xmlns="http://www.w3.org/2000/svg" width="15.17" height="15.193" viewBox="0 0 15.17 15.193">
  <g id="Group_2744" data-name="Group 2744" transform="translate(14224 15226.603)" opacity="0.55">
    <path id="Path_17604" data-name="Path 17604" d="M240.927,410.464a.464.464,0,1,0-.464.464.464.464,0,0,0,.464-.464" transform="translate(-14460.29 -15630.087)" fill="#fff"/>
    <path id="Path_17605" data-name="Path 17605" d="M0,410.464a.464.464,0,1,1,.464.464A.464.464,0,0,1,0,410.464" transform="translate(-14224 -15630.087)" fill="#fff"/>
    <path id="Path_17606" data-name="Path 17606" d="M120,410.464a.464.464,0,1,1,.464.464.464.464,0,0,1-.464-.464" transform="translate(-14342.145 -15630.087)" fill="#fff"/>
    <path id="Path_17607" data-name="Path 17607" d="M747.487,244.156a.487.487,0,0,1-.344-.831l2.747-2.747-2.747-2.747a.487.487,0,0,1,.689-.689l3.091,3.091a.487.487,0,0,1,0,.689l-3.091,3.091A.485.485,0,0,1,747.487,244.156Z" transform="translate(-14959.896 -15460.202)" fill="#fff"/>
    <path id="Line_1395" data-name="Line 1395" d="M6.252-2.026H-2.513A.487.487,0,0,1-3-2.513.487.487,0,0,1-2.513-3H6.252a.487.487,0,0,1,.487.487A.487.487,0,0,1,6.252-2.026Z" transform="translate(-14215.645 -15217.175)" fill="#fff"/>
    <path id="Path_17608" data-name="Path 17608" d="M530.927,750.464a.464.464,0,1,0-.464.464.464.464,0,0,0,.464-.464" transform="translate(-14745.809 -15964.833)" fill="#fff"/>
    <path id="Path_17609" data-name="Path 17609" d="M40,110.464a.464.464,0,1,1,.464.464.464.464,0,0,1-.464-.464" transform="translate(-14263.382 -15334.725)" fill="#fff"/>
    <path id="Path_17610" data-name="Path 17610" d="M650,750.464a.464.464,0,1,1,.464.464.464.464,0,0,1-.464-.464" transform="translate(-14863.954 -15964.833)" fill="#fff"/>
    <path id="Path_17611" data-name="Path 17611" d="M160,110.464a.464.464,0,1,1,.464.464.464.464,0,0,1-.464-.464" transform="translate(-14381.527 -15334.725)" fill="#fff"/>
    <path id="Path_17612" data-name="Path 17612" d="M427.487,21.683a.487.487,0,0,1-.344-.831l1.51-1.51-1.51-1.51a.487.487,0,0,1,.689-.689L429.686,19a.487.487,0,0,1,0,.689l-1.855,1.855A.486.486,0,0,1,427.487,21.683Z" transform="translate(-14644.842 -15243.603)" fill="#fff"/>
    <path id="Path_17613" data-name="Path 17613" d="M69.96,622.92a.485.485,0,0,1-.344-.143L67.143,620.3a.487.487,0,0,1,0-.689l2.473-2.473a.487.487,0,0,1,.689.689l-2.129,2.129,2.129,2.129a.487.487,0,0,1-.344.831Z" transform="translate(-14290.405 -15834.329)" fill="#fff"/>
    <path id="Line_1396" data-name="Line 1396" d="M3.188-2.026h-5.7A.487.487,0,0,1-3-2.513.487.487,0,0,1-2.513-3h5.7a.487.487,0,0,1,.487.487A.487.487,0,0,1,3.188-2.026Z" transform="translate(-14220.233 -15211.856)" fill="#fff"/>
    <path id="Line_1397" data-name="Line 1397" d="M1.058-2.026H-2.513A.487.487,0,0,1-3-2.513.487.487,0,0,1-2.513-3H1.058a.487.487,0,0,1,.487.487A.487.487,0,0,1,1.058-2.026Z" transform="translate(-14216.78 -15221.72)" fill="#fff"/>
  </g>
</svg>
