<svg xmlns="http://www.w3.org/2000/svg" width="17.166" height="17.166" viewBox="0 0 17.166 17.166">
  <g id="Icon_feather-download" data-name="Icon feather-download" transform="translate(-3 -3)">
    <path id="Path_17937" data-name="Path 17937" d="M17.591,27.866H5.575A2.578,2.578,0,0,1,3,25.292V21.858a.858.858,0,1,1,1.717,0v3.433a.859.859,0,0,0,.858.858H17.591a.859.859,0,0,0,.858-.858V21.858a.858.858,0,1,1,1.717,0v3.433A2.578,2.578,0,0,1,17.591,27.866Z" transform="translate(0 -7.7)" fill="#5d62e0"/>
    <path id="Path_17938" data-name="Path 17938" d="M14.15,19.508a.856.856,0,0,1-.607-.251L9.251,14.965a.858.858,0,0,1,1.214-1.214l3.685,3.685,3.685-3.685a.858.858,0,0,1,1.214,1.214l-4.292,4.292A.856.856,0,0,1,14.15,19.508Z" transform="translate(-2.567 -4.492)" fill="#5d62e0"/>
    <path id="Path_17939" data-name="Path 17939" d="M17.358,15.016a.858.858,0,0,1-.858-.858V3.858a.858.858,0,1,1,1.717,0v10.3A.858.858,0,0,1,17.358,15.016Z" transform="translate(-5.775)" fill="#5d62e0"/>
  </g>
</svg>
