<svg xmlns="http://www.w3.org/2000/svg" width="31.052" height="20.599" viewBox="0 0 31.052 20.599">
  <g id="Group_3126" data-name="Group 3126" transform="translate(-68.279 -15.144)">
    <path id="Path_18082" data-name="Path 18082" d="M.5.081A.194.194,0,0,1,.54-.067a.271.271,0,0,1,.173-.04H1.02a.313.313,0,0,1,.168.03.226.226,0,0,1,.059.138,1.06,1.06,0,0,0,.375.608,1.462,1.462,0,0,0,.751.262V-1.658l-.316-.089Q.506-2.152.506-3.466v-.049A1.665,1.665,0,0,1,1-4.79a2.19,2.19,0,0,1,1.374-.534v-.652q0-.109.04-.138a.287.287,0,0,1,.158-.03H2.8a.287.287,0,0,1,.158.03q.04.03.04.138v.652a2.494,2.494,0,0,1,.884.2,1.894,1.894,0,0,1,.558.4,1.087,1.087,0,0,1,.262.39,1.219,1.219,0,0,1,.094.459.194.194,0,0,1-.044.148.271.271,0,0,1-.173.04H4.261a.276.276,0,0,1-.168-.035.24.24,0,0,1-.059-.133A.832.832,0,0,0,3.708-4.4,1.445,1.445,0,0,0,3-4.682v2.47l.227.059a2.694,2.694,0,0,1,1.245.657A1.717,1.717,0,0,1,4.9-.235v.049a1.612,1.612,0,0,1-.494,1.24A2.22,2.22,0,0,1,3,1.573v.761a.174.174,0,0,1-.04.133A.253.253,0,0,1,2.8,2.5H2.571a.253.253,0,0,1-.158-.035.174.174,0,0,1-.04-.133V1.573a2.262,2.262,0,0,1-1.4-.494A1.468,1.468,0,0,1,.634.61,1.251,1.251,0,0,1,.5.081Zm.741-3.646a1.042,1.042,0,0,0,.257.746,1.779,1.779,0,0,0,.83.43l.049.02V-4.682Q1.237-4.563,1.237-3.565Zm2.9,3.429a1.341,1.341,0,0,0-.257-.87A1.71,1.71,0,0,0,3-1.5V.941A1.393,1.393,0,0,0,3.841.6.977.977,0,0,0,4.132-.136ZM8.253,1.583A2,2,0,0,1,6.2.309a2.605,2.605,0,0,1-.143-.573,6.205,6.205,0,0,1-.044-.83V-2.557a6.536,6.536,0,0,1,.044-.85,2.991,2.991,0,0,1,.143-.6A2.008,2.008,0,0,1,8.253-5.334a2,2,0,0,1,2.055,1.3,2.293,2.293,0,0,1,.148.583,7.08,7.08,0,0,1,.04.84v1.462a7.1,7.1,0,0,1-.04.835,2.3,2.3,0,0,1-.148.588A2,2,0,0,1,8.253,1.583Zm0-6.235a1.273,1.273,0,0,0-1.107.464A2.653,2.653,0,0,0,6.81-2.666v1.581A2.626,2.626,0,0,0,7.151.432,1.269,1.269,0,0,0,8.253.9,1.273,1.273,0,0,0,9.36.437,2.653,2.653,0,0,0,9.7-1.085V-2.666a2.623,2.623,0,0,0-.341-1.522A1.275,1.275,0,0,0,8.253-4.652Z" transform="translate(77.24 29.652)" fill="#9395c1" opacity="0.65"/>
    <path id="Path_18070" data-name="Path 18070" d="M32.486,22.6a.566.566,0,0,1-.566-.566V8.826a5.7,5.7,0,0,0-5.694-5.694H8.826A5.7,5.7,0,0,0,3.132,8.826V22.033a.566.566,0,1,1-1.132,0V8.826A6.834,6.834,0,0,1,8.826,2h17.4a6.834,6.834,0,0,1,6.826,6.826V22.033A.566.566,0,0,1,32.486,22.6Z" transform="translate(66.279 13.144)" fill="#9395c1" opacity="0.3"/>
    <path id="Line_1572" data-name="Line 1572" d="M.452,9h-.7V0h.7Z" transform="translate(88.621 23.154)" fill="#9395c1"/>
  </g>
</svg>
