<svg width="41" height="37" viewBox="0 0 41 37" fill="none" xmlns="http://www.w3.org/2000/svg">
<path d="M25.0275 6.4911C25.2409 5.7316 25.2756 4.933 25.1287 4.1579C24.9818 3.3828 24.6575 2.6523 24.1811 2.0235C23.7046 1.3947 23.089 0.8848 22.3825 0.5338C21.6761 0.1827 20.8979 0 20.109 0C19.3201 0 18.5419 0.1827 17.8355 0.5338C17.129 0.8848 16.5134 1.3947 16.037 2.0235C15.5605 2.6523 15.2362 3.3828 15.0893 4.1579C14.9424 4.933 14.9771 5.7316 15.1905 6.4911H25.0275Z" fill="#FCB646"/>
<path d="M39.874 36.557H17.946C17.855 36.557 17.767 36.5208 17.702 36.4563C17.638 36.3918 17.601 36.3043 17.601 36.213V23.934C17.601 23.8425 17.637 23.7547 17.702 23.69C17.767 23.6253 17.855 23.589 17.946 23.589H26.903C26.948 23.589 26.993 23.5801 27.035 23.5628C27.076 23.5455 27.114 23.5202 27.146 23.4882C27.178 23.4563 27.204 23.4184 27.221 23.3766C27.238 23.3349 27.247 23.2902 27.247 23.245V19.318C27.247 19.2727 27.238 19.2279 27.221 19.186C27.204 19.1442 27.179 19.1062 27.147 19.0741C27.115 19.0421 27.077 19.0166 27.035 18.9993C26.993 18.9819 26.948 18.973 26.903 18.973H13.315C13.224 18.9733 13.136 19.0097 13.072 19.0744C13.007 19.1391 12.971 19.2267 12.971 19.318V36.103C12.971 36.1942 12.935 36.2817 12.87 36.3463C12.806 36.4108 12.718 36.447 12.627 36.447H0.345001C0.254001 36.447 0.165998 36.4108 0.100998 36.3463C0.0369979 36.2818 0 36.1943 0 36.103V6.34401C0 6.25268 0.0369979 6.16518 0.100998 6.10069C0.165998 6.03621 0.254001 6 0.345001 6H39.874C39.965 6 40.053 6.03624 40.117 6.10075C40.182 6.16527 40.218 6.25278 40.218 6.34401V36.213C40.218 36.3042 40.182 36.3917 40.117 36.4563C40.053 36.5208 39.965 36.557 39.874 36.557Z" fill="#44479D"/>
</svg>
