<svg xmlns="http://www.w3.org/2000/svg" width="21.15" height="21.15" viewBox="0 0 21.15 21.15">
  <g id="Group_3131" data-name="Group 3131" transform="translate(-73.754 -15.245)">
    <g id="magic" transform="translate(73.774 15.245)" opacity="0.5">
      <path id="Path_18069" data-name="Path 18069" d="M5.966,0,4.922,4.965.02,6.146,4.952,7.2l1.173,4.936L7.167,7.166l4.9-1.179L7.139,4.936Zm7.689,5.514h0Zm4.235,2.462-.557,2.653-2.62.632,2.635.561.626,2.637.557-2.653,2.62-.632-2.635-.561-.626-2.637Zm-4.3,4.82-.614,2.925-2.888.694,2.905.618.691,2.908.614-2.925,2.888-.7-2.9-.619L13.592,12.8Z" transform="translate(-0.02)" fill="#9395c1"/>
    </g>
    <g id="magic-2" data-name="magic" transform="translate(73.754 15.435)">
      <path id="Path_18069-2" data-name="Path 18069" d="M18.927.19,15.072,4.033l2.1,2.1L21.03,2.286ZM13.669,5.43,0,19.054l2.1,2.1L15.772,7.526l-2.1-2.1h0Z" transform="translate(0 -0.19)" fill="#9395c1"/>
    </g>
  </g>
</svg>
