<svg xmlns="http://www.w3.org/2000/svg" width="45" height="45" viewBox="0 0 45 45">
  <g id="Group_390" data-name="Group 390" transform="translate(-426.898 -1396.346)">
    <rect id="Rectangle_2626" data-name="Rectangle 2626" width="45" height="45" rx="7" transform="translate(426.898 1396.346)" fill="#fce3b8"/>
    <g id="Icon_feather-phone" data-name="Icon feather-phone" transform="translate(441.01 1411.034)">
      <path id="Path_32" data-name="Path 32" d="M-13.329,111.564c-.064,0-.132,0-.2-.01a16.056,16.056,0,0,1-6.973-2.475,15.834,15.834,0,0,1-4.834-4.835A16.031,16.031,0,0,1-27.8,97.261a2.293,2.293,0,0,1,2.074-2.5,2,2,0,0,1,.208-.01h2.321a2.3,2.3,0,0,1,2.26,1.969,9.122,9.122,0,0,0,.5,2,2.3,2.3,0,0,1-.516,2.414l-.562.561a11.535,11.535,0,0,0,3.542,3.542l.56-.558A2.3,2.3,0,0,1-15,104.163a9.115,9.115,0,0,0,1.991.5,2.29,2.29,0,0,1,1.976,2.324h0v2.286a2.264,2.264,0,0,1-.665,1.617,2.268,2.268,0,0,1-1.616.677Zm-9.872-15.3h-2.314a.817.817,0,0,0-.6.281.782.782,0,0,0-.179.571,14.5,14.5,0,0,0,2.232,6.316,14.311,14.311,0,0,0,4.379,4.38,14.531,14.531,0,0,0,6.307,2.245.812.812,0,0,0,.617-.229.778.778,0,0,0,.227-.554v-2.327a.781.781,0,0,0-.672-.792,10.629,10.629,0,0,1-2.316-.578.782.782,0,0,0-.827.176l-.973.971a.75.75,0,0,1-.9.123,13.045,13.045,0,0,1-4.891-4.889.753.753,0,0,1,.123-.9l.975-.975a.783.783,0,0,0,.173-.823,10.614,10.614,0,0,1-.58-2.324A.783.783,0,0,0-23.2,96.262Z" transform="translate(27.807 -94.755)" fill="#de8d0d"/>
    </g>
  </g>
</svg>
