<svg xmlns="http://www.w3.org/2000/svg" width="120.741" height="111.809" viewBox="0 0 120.741 111.809">
  <g id="Group_384" data-name="Group 384" transform="translate(-899.09 -198.721)">
    <g id="Group_316" data-name="Group 316" transform="translate(934.457 228.044)">
      <path id="Path_854" data-name="Path 854" d="M1566.419,1140.549H1549.6a1.829,1.829,0,0,1,0-3.659h16.822a1.829,1.829,0,1,1,0,3.659Z" transform="translate(-1547.768 -1136.89)" fill="#5b5eac"/>
    </g>
    <g id="Group_317" data-name="Group 317" transform="translate(976.282 228.044)">
      <path id="Path_855" data-name="Path 855" d="M2322.9,1140.549h-16.822a1.829,1.829,0,1,1,0-3.659H2322.9a1.829,1.829,0,1,1,0,3.659Z" transform="translate(-2304.252 -1136.89)" fill="#5b5eac"/>
    </g>
    <g id="Group_318" data-name="Group 318" transform="translate(963.781 240.547)">
      <path id="Path_856" data-name="Path 856" d="M2079.968,1381.55a1.829,1.829,0,0,1-1.83-1.829v-14.887a1.829,1.829,0,1,1,3.659,0v14.887A1.829,1.829,0,0,1,2079.968,1381.55Z" transform="translate(-2078.138 -1363.004)" fill="#5b5eac"/>
    </g>
    <g id="Group_319" data-name="Group 319" transform="translate(963.781 198.721)">
      <path id="Path_857" data-name="Path 857" d="M2079.968,627a1.829,1.829,0,0,1-1.83-1.829V608.35a1.829,1.829,0,0,1,3.659,0v16.822A1.829,1.829,0,0,1,2079.968,627Z" transform="translate(-2078.138 -606.521)" fill="#5b5eac"/>
    </g>
    <g id="Group_320" data-name="Group 320" transform="translate(943.046 236.884)">
      <path id="Path_858" data-name="Path 858" d="M1704.938,1312.331a1.829,1.829,0,0,1-1.294-3.123l11.9-11.9a1.829,1.829,0,0,1,2.587,2.587l-11.9,11.9A1.822,1.822,0,0,1,1704.938,1312.331Z" transform="translate(-1703.109 -1296.777)" fill="#5b5eac"/>
    </g>
    <g id="Group_321" data-name="Group 321" transform="translate(972.621 207.309)">
      <path id="Path_859" data-name="Path 859" d="M2239.853,777.416a1.829,1.829,0,0,1-1.293-3.123l11.9-11.9a1.83,1.83,0,0,1,2.587,2.587l-11.9,11.9A1.824,1.824,0,0,1,2239.853,777.416Z" transform="translate(-2238.024 -761.862)" fill="#5b5eac"/>
    </g>
    <g id="Group_322" data-name="Group 322" transform="translate(972.621 236.884)">
      <path id="Path_860" data-name="Path 860" d="M2251.748,1312.331a1.823,1.823,0,0,1-1.294-.536l-11.9-11.9a1.829,1.829,0,0,1,2.587-2.587l11.9,11.9a1.829,1.829,0,0,1-1.294,3.123Z" transform="translate(-2238.024 -1296.777)" fill="#5b5eac"/>
    </g>
    <g id="Group_323" data-name="Group 323" transform="translate(943.046 207.309)">
      <path id="Path_861" data-name="Path 861" d="M1716.833,777.416a1.823,1.823,0,0,1-1.293-.536l-11.9-11.9a1.829,1.829,0,0,1,2.587-2.587l11.9,11.9a1.83,1.83,0,0,1-1.294,3.123Z" transform="translate(-1703.109 -761.862)" fill="#5b5eac"/>
    </g>
    <g id="Group_324" data-name="Group 324" transform="translate(938.832 236.102)">
      <path id="Path_862" data-name="Path 862" d="M1628.726,1288.558a1.83,1.83,0,0,1-.7-3.52l5.495-2.276a1.829,1.829,0,1,1,1.4,3.38l-5.495,2.276A1.826,1.826,0,0,1,1628.726,1288.558Z" transform="translate(-1626.895 -1282.622)" fill="#5b5eac"/>
    </g>
    <g id="Group_325" data-name="Group 325" transform="translate(983.234 217.71)">
      <path id="Path_863" data-name="Path 863" d="M2431.808,955.91a1.83,1.83,0,0,1-.7-3.52l5.495-2.276a1.829,1.829,0,1,1,1.4,3.38l-5.5,2.276A1.823,1.823,0,0,1,2431.808,955.91Z" transform="translate(-2429.978 -949.974)" fill="#5b5eac"/>
    </g>
    <g id="Group_326" data-name="Group 326" transform="translate(971.837 247.497)">
      <path id="Path_864" data-name="Path 864" d="M2227.552,1496.861a1.829,1.829,0,0,1-1.691-1.13l-1.852-4.471a1.829,1.829,0,0,1,3.38-1.4l1.853,4.471a1.831,1.831,0,0,1-1.689,2.53Z" transform="translate(-2223.869 -1488.73)" fill="#5b5eac"/>
    </g>
    <g id="Group_327" data-name="Group 327" transform="translate(953.445 203.096)">
      <path id="Path_865" data-name="Path 865" d="M1895.328,694.8a1.831,1.831,0,0,1-1.691-1.13l-2.276-5.495a1.829,1.829,0,0,1,3.38-1.4l2.276,5.495a1.831,1.831,0,0,1-1.69,2.53Z" transform="translate(-1891.221 -685.648)" fill="#5b5eac"/>
    </g>
    <g id="Group_328" data-name="Group 328" transform="translate(953.445 247.497)">
      <path id="Path_866" data-name="Path 866" d="M1893.051,1497.885a1.831,1.831,0,0,1-1.689-2.53l2.276-5.495a1.83,1.83,0,1,1,3.381,1.4l-2.276,5.495A1.83,1.83,0,0,1,1893.051,1497.885Z" transform="translate(-1891.221 -1488.73)" fill="#5b5eac"/>
    </g>
    <g id="Group_329" data-name="Group 329" transform="translate(971.837 203.096)">
      <path id="Path_867" data-name="Path 867" d="M2225.7,694.8a1.83,1.83,0,0,1-1.69-2.53l2.276-5.495a1.829,1.829,0,1,1,3.38,1.4l-2.276,5.495A1.829,1.829,0,0,1,2225.7,694.8Z" transform="translate(-2223.869 -685.648)" fill="#5b5eac"/>
    </g>
    <g id="Group_330" data-name="Group 330" transform="translate(983.234 236.102)">
      <path id="Path_868" data-name="Path 868" d="M2437.3,1288.557a1.824,1.824,0,0,1-.7-.14l-5.495-2.276a1.829,1.829,0,1,1,1.4-3.38l5.5,2.276a1.83,1.83,0,0,1-.7,3.52Z" transform="translate(-2429.978 -1282.621)" fill="#5b5eac"/>
    </g>
    <g id="Group_331" data-name="Group 331" transform="translate(938.832 217.71)">
      <path id="Path_869" data-name="Path 869" d="M1634.219,955.909a1.825,1.825,0,0,1-.7-.14l-5.495-2.276a1.829,1.829,0,0,1,1.4-3.38l5.495,2.276a1.83,1.83,0,0,1-.7,3.52Z" transform="translate(-1626.895 -949.973)" fill="#5b5eac"/>
    </g>
    <g id="Group_332" data-name="Group 332" transform="translate(929.161 260.934)">
      <path id="Path_870" data-name="Path 870" d="M1465.537,1764.107a1.83,1.83,0,0,1-1.828-1.8,37.071,37.071,0,0,0-1.523-8.4,54.536,54.536,0,0,0-3.383-8.811,60.831,60.831,0,0,0-6.446-10.41,1.83,1.83,0,0,1,2.9-2.225,64.473,64.473,0,0,1,6.88,11.136,58.146,58.146,0,0,1,3.606,9.459,39.5,39.5,0,0,1,1.619,9.184,1.829,1.829,0,0,1-1.8,1.859Z" transform="translate(-1451.979 -1731.751)" fill="#5b5eac"/>
    </g>
    <g id="Group_333" data-name="Group 333" transform="translate(899.09 246.174)">
      <path id="Path_871" data-name="Path 871" d="M917.873,1468.443h-7.956a1.829,1.829,0,1,1,0-3.659h7.956a1.829,1.829,0,0,1,0,3.659Z" transform="translate(-908.088 -1464.784)" fill="#ffa028"/>
    </g>
    <g id="Group_334" data-name="Group 334" transform="translate(925.517 246.174)">
      <path id="Path_872" data-name="Path 872" d="M1395.889,1468.443h-7.955a1.829,1.829,0,1,1,0-3.659h7.955a1.829,1.829,0,1,1,0,3.659Z" transform="translate(-1386.104 -1464.784)" fill="#ffa028"/>
    </g>
    <g id="Group_335" data-name="Group 335" transform="translate(916.282 255.411)">
      <path id="Path_873" data-name="Path 873" d="M1220.87,1643.463a1.83,1.83,0,0,1-1.83-1.829v-7.955a1.829,1.829,0,1,1,3.659,0v7.955A1.829,1.829,0,0,1,1220.87,1643.463Z" transform="translate(-1219.04 -1631.849)" fill="#ffa028"/>
    </g>
    <g id="Group_336" data-name="Group 336" transform="translate(916.282 228.981)">
      <path id="Path_874" data-name="Path 874" d="M1220.87,1165.446a1.83,1.83,0,0,1-1.83-1.829v-7.956a1.829,1.829,0,0,1,3.659,0v7.956A1.829,1.829,0,0,1,1220.87,1165.446Z" transform="translate(-1219.04 -1153.832)" fill="#ffa028"/>
    </g>
    <g id="Group_337" data-name="Group 337" transform="translate(907.394 237.287)">
      <path id="Path_875" data-name="Path 875" d="M1063.589,1311.163a1.824,1.824,0,0,1-1.293-.536l-3.445-3.445a1.829,1.829,0,0,1,2.587-2.587l3.445,3.445a1.829,1.829,0,0,1-1.294,3.123Z" transform="translate(-1058.315 -1304.059)" fill="#ffa028"/>
    </g>
    <g id="Group_338" data-name="Group 338" transform="translate(921.723 251.615)">
      <path id="Path_876" data-name="Path 876" d="M1322.729,1570.3a1.825,1.825,0,0,1-1.294-.536l-3.445-3.445a1.829,1.829,0,0,1,2.587-2.587l3.445,3.445a1.829,1.829,0,0,1-1.294,3.123Z" transform="translate(-1317.455 -1563.199)" fill="#ffa028"/>
    </g>
    <g id="Group_339" data-name="Group 339" transform="translate(907.394 251.615)">
      <path id="Path_877" data-name="Path 877" d="M1060.144,1570.3a1.829,1.829,0,0,1-1.294-3.123l3.445-3.445a1.829,1.829,0,0,1,2.587,2.587l-3.445,3.445A1.825,1.825,0,0,1,1060.144,1570.3Z" transform="translate(-1058.315 -1563.199)" fill="#ffa028"/>
    </g>
    <g id="Group_340" data-name="Group 340" transform="translate(921.723 237.287)">
      <path id="Path_878" data-name="Path 878" d="M1319.284,1311.163a1.829,1.829,0,0,1-1.294-3.123l3.445-3.445a1.829,1.829,0,1,1,2.587,2.587l-3.445,3.445A1.825,1.825,0,0,1,1319.284,1311.163Z" transform="translate(-1317.455 -1304.059)" fill="#ffa028"/>
    </g>
    <g id="Group_341" data-name="Group 341" transform="translate(1010.639 260.368)">
      <path id="Path_879" data-name="Path 879" d="M2933.008,1725.178h-5.534a1.829,1.829,0,1,1,0-3.659h5.534a1.829,1.829,0,0,1,0,3.659Z" transform="translate(-2925.645 -1721.519)" fill="#ffa028"/>
    </g>
    <g id="Group_342" data-name="Group 342" transform="translate(987.659 260.368)">
      <path id="Path_880" data-name="Path 880" d="M2517.365,1725.178h-5.534a1.829,1.829,0,1,1,0-3.659h5.534a1.829,1.829,0,1,1,0,3.659Z" transform="translate(-2510.001 -1721.519)" fill="#ffa028"/>
    </g>
    <g id="Group_343" data-name="Group 343" transform="translate(1001.916 269.092)">
      <path id="Path_881" data-name="Path 881" d="M2769.7,1888.489a1.83,1.83,0,0,1-1.83-1.83v-5.534a1.829,1.829,0,1,1,3.659,0v5.534A1.829,1.829,0,0,1,2769.7,1888.489Z" transform="translate(-2767.868 -1879.296)" fill="#ffa028"/>
    </g>
    <g id="Group_344" data-name="Group 344" transform="translate(1001.916 246.111)">
      <path id="Path_882" data-name="Path 882" d="M2769.7,1472.844a1.829,1.829,0,0,1-1.83-1.83v-5.534a1.829,1.829,0,1,1,3.659,0v5.534A1.829,1.829,0,0,1,2769.7,1472.844Z" transform="translate(-2767.868 -1463.651)" fill="#ffa028"/>
    </g>
    <g id="Group_345" data-name="Group 345" transform="translate(1006.647 252.642)">
      <path id="Path_883" data-name="Path 883" d="M2855.272,1588.42a1.829,1.829,0,0,1-1.293-3.123l3-3a1.829,1.829,0,0,1,2.587,2.587l-3,3A1.825,1.825,0,0,1,2855.272,1588.42Z" transform="translate(-2853.443 -1581.766)" fill="#ffa028"/>
    </g>
    <g id="Group_346" data-name="Group 346" transform="translate(994.188 265.099)">
      <path id="Path_884" data-name="Path 884" d="M2629.945,1813.747a1.83,1.83,0,0,1-1.294-3.123l3-3a1.829,1.829,0,1,1,2.587,2.587l-3,3A1.823,1.823,0,0,1,2629.945,1813.747Z" transform="translate(-2628.116 -1807.093)" fill="#ffa028"/>
    </g>
    <g id="Group_347" data-name="Group 347" transform="translate(1006.647 265.099)">
      <path id="Path_885" data-name="Path 885" d="M2858.268,1813.746a1.823,1.823,0,0,1-1.293-.536l-3-3a1.829,1.829,0,1,1,2.587-2.587l3,3a1.829,1.829,0,0,1-1.293,3.123Z" transform="translate(-2853.443 -1807.092)" fill="#ffa028"/>
    </g>
    <g id="Group_348" data-name="Group 348" transform="translate(994.188 252.642)">
      <path id="Path_886" data-name="Path 886" d="M2632.94,1588.42a1.825,1.825,0,0,1-1.293-.536l-3-3a1.83,1.83,0,0,1,2.587-2.587l3,3a1.829,1.829,0,0,1-1.293,3.123Z" transform="translate(-2628.116 -1581.766)" fill="#ffa028"/>
    </g>
    <g id="Group_349" data-name="Group 349" transform="translate(1008.815 228.877)">
      <path id="Path_887" data-name="Path 887" d="M2894.846,1155.98a1.826,1.826,0,0,1-1.294-.536l-.371-.371a1.829,1.829,0,0,1,2.587-2.587l.372.371a1.83,1.83,0,0,1-1.293,3.123Z" transform="translate(-2892.646 -1151.95)" fill="#5b5eac"/>
    </g>
    <g id="Group_350" data-name="Group 350" transform="translate(1014.125 234.188)">
      <path id="Path_888" data-name="Path 888" d="M2990.9,1252.031a1.824,1.824,0,0,1-1.293-.536l-.371-.371a1.829,1.829,0,0,1,2.587-2.587l.371.371a1.83,1.83,0,0,1-1.293,3.123Z" transform="translate(-2988.696 -1248)" fill="#5b5eac"/>
    </g>
    <g id="Group_351" data-name="Group 351" transform="translate(1008.815 234.188)">
      <path id="Path_889" data-name="Path 889" d="M2894.475,1252.031a1.83,1.83,0,0,1-1.294-3.123l.371-.371a1.83,1.83,0,0,1,2.587,2.587l-.372.371A1.822,1.822,0,0,1,2894.475,1252.031Z" transform="translate(-2892.646 -1248)" fill="#5b5eac"/>
    </g>
    <g id="Group_352" data-name="Group 352" transform="translate(1014.125 228.877)">
      <path id="Path_890" data-name="Path 890" d="M2990.526,1155.98a1.83,1.83,0,0,1-1.293-3.123l.371-.371a1.829,1.829,0,0,1,2.587,2.587l-.371.371A1.823,1.823,0,0,1,2990.526,1155.98Z" transform="translate(-2988.696 -1151.95)" fill="#5b5eac"/>
    </g>
    <g id="Group_353" data-name="Group 353" transform="translate(993.271 290.576)">
      <path id="Path_891" data-name="Path 891" d="M2613.714,2271.9a1.825,1.825,0,0,1-1.294-.536l-.371-.371a1.829,1.829,0,0,1,2.587-2.587l.372.371a1.829,1.829,0,0,1-1.294,3.123Z" transform="translate(-2611.513 -2267.869)" fill="#5b5eac"/>
    </g>
    <g id="Group_354" data-name="Group 354" transform="translate(998.581 295.887)">
      <path id="Path_892" data-name="Path 892" d="M2709.765,2367.949a1.824,1.824,0,0,1-1.293-.536l-.372-.372a1.829,1.829,0,0,1,2.587-2.587l.372.372a1.829,1.829,0,0,1-1.293,3.123Z" transform="translate(-2707.564 -2363.918)" fill="#5b5eac"/>
    </g>
    <g id="Group_355" data-name="Group 355" transform="translate(993.271 295.887)">
      <path id="Path_893" data-name="Path 893" d="M2613.343,2367.949a1.83,1.83,0,0,1-1.294-3.123l.372-.371a1.829,1.829,0,0,1,2.587,2.587l-.371.372A1.823,1.823,0,0,1,2613.343,2367.949Z" transform="translate(-2611.513 -2363.919)" fill="#5b5eac"/>
    </g>
    <g id="Group_356" data-name="Group 356" transform="translate(998.581 290.576)">
      <path id="Path_894" data-name="Path 894" d="M2709.393,2271.9a1.83,1.83,0,0,1-1.293-3.124l.371-.371a1.829,1.829,0,1,1,2.587,2.586l-.371.372A1.824,1.824,0,0,1,2709.393,2271.9Z" transform="translate(-2707.563 -2267.868)" fill="#5b5eac"/>
    </g>
    <g id="Group_357" data-name="Group 357" transform="translate(918.134 207.611)">
      <path id="Path_895" data-name="Path 895" d="M1254.764,771.349a1.824,1.824,0,0,1-1.294-.536l-.371-.371a1.829,1.829,0,1,1,2.587-2.587l.371.371a1.829,1.829,0,0,1-1.293,3.123Z" transform="translate(-1252.563 -767.319)" fill="#5b5eac"/>
    </g>
    <g id="Group_358" data-name="Group 358" transform="translate(923.446 212.922)">
      <path id="Path_896" data-name="Path 896" d="M1350.815,867.4a1.823,1.823,0,0,1-1.294-.536l-.371-.371a1.829,1.829,0,1,1,2.587-2.587l.372.371a1.83,1.83,0,0,1-1.294,3.123Z" transform="translate(-1348.614 -863.37)" fill="#5b5eac"/>
    </g>
    <g id="Group_359" data-name="Group 359" transform="translate(918.134 212.922)">
      <path id="Path_897" data-name="Path 897" d="M1254.393,867.4a1.829,1.829,0,0,1-1.293-3.123l.371-.371a1.83,1.83,0,0,1,2.588,2.587l-.372.371A1.824,1.824,0,0,1,1254.393,867.4Z" transform="translate(-1252.564 -863.369)" fill="#5b5eac"/>
    </g>
    <g id="Group_360" data-name="Group 360" transform="translate(923.446 207.611)">
      <path id="Path_898" data-name="Path 898" d="M1350.443,771.348a1.829,1.829,0,0,1-1.294-3.123l.371-.371a1.829,1.829,0,1,1,2.587,2.587l-.372.371A1.823,1.823,0,0,1,1350.443,771.348Z" transform="translate(-1348.614 -767.318)" fill="#5b5eac"/>
    </g>
    <g id="Group_361" data-name="Group 361" transform="translate(903.844 223.735)">
      <path id="Path_899" data-name="Path 899" d="M995.961,1062.6h-.041a1.829,1.829,0,0,1,0-3.659h.041a1.829,1.829,0,0,1,0,3.659Z" transform="translate(-994.09 -1058.943)" fill="#5b5eac"/>
    </g>
    <g id="Group_362" data-name="Group 362" transform="translate(1008.087 213.292)">
      <path id="Path_900" data-name="Path 900" d="M2881.356,873.745h-.041a1.829,1.829,0,0,1,0-3.659h.041a1.829,1.829,0,1,1,0,3.659Z" transform="translate(-2879.486 -870.086)" fill="#5b5eac"/>
    </g>
    <g id="Group_363" data-name="Group 363" transform="translate(993.085 200.34)">
      <path id="Path_901" data-name="Path 901" d="M2610.007,639.473h-.041a1.829,1.829,0,0,1,0-3.659h.041a1.829,1.829,0,0,1,0,3.659Z" transform="translate(-2608.137 -635.814)" fill="#5b5eac"/>
    </g>
    <g id="Group_364" data-name="Group 364" transform="translate(923.127 276.295)">
      <path id="Path_902" data-name="Path 902" d="M1344.715,2013.238h-.041a1.829,1.829,0,1,1,0-3.659h.041a1.829,1.829,0,1,1,0,3.659Z" transform="translate(-1342.845 -2009.579)" fill="#5b5eac"/>
    </g>
    <g id="Group_365" data-name="Group 365" transform="translate(1012.582 283.119)">
      <path id="Path_903" data-name="Path 903" d="M2962.673,2136.655h-.041a1.829,1.829,0,1,1,0-3.659h.041a1.829,1.829,0,1,1,0,3.659Z" transform="translate(-2960.803 -2132.996)" fill="#5b5eac"/>
    </g>
    <g id="Group_366" data-name="Group 366" transform="translate(963.999 305.069)">
      <path id="Path_904" data-name="Path 904" d="M2083.962,2533.664h-.041a1.829,1.829,0,0,1,0-3.659h.041a1.829,1.829,0,1,1,0,3.659Z" transform="translate(-2082.092 -2530.005)" fill="#5b5eac"/>
    </g>
    <g id="Group_367" data-name="Group 367" transform="translate(983.055 306.871)">
      <path id="Path_905" data-name="Path 905" d="M2428.632,2566.257h-.041a1.829,1.829,0,1,1,0-3.659h.041a1.829,1.829,0,1,1,0,3.659Z" transform="translate(-2426.762 -2562.598)" fill="#5b5eac"/>
    </g>
    <g id="Group_368" data-name="Group 368" transform="translate(912.025 289.737)">
      <path id="Path_906" data-name="Path 906" d="M1143.912,2256.351h-.041a1.829,1.829,0,1,1,0-3.659h.041a1.829,1.829,0,1,1,0,3.659Z" transform="translate(-1142.041 -2252.692)" fill="#5b5eac"/>
    </g>
    <g id="Group_369" data-name="Group 369" transform="translate(930.876 297.958)">
      <path id="Path_907" data-name="Path 907" d="M1484.863,2405.046h-.041a1.829,1.829,0,1,1,0-3.659h.041a1.829,1.829,0,1,1,0,3.659Z" transform="translate(-1482.993 -2401.387)" fill="#5b5eac"/>
    </g>
    <g id="Group_370" data-name="Group 370" transform="translate(903.864 269.092)">
      <path id="Path_908" data-name="Path 908" d="M996.33,1882.955h-.041a1.829,1.829,0,1,1,0-3.658h.041a1.829,1.829,0,1,1,0,3.658Z" transform="translate(-994.46 -1879.296)" fill="#5b5eac"/>
    </g>
    <g id="Group_371" data-name="Group 371" transform="translate(945.197 279.317)">
      <path id="Path_909" data-name="Path 909" d="M1743.855,2092.214a1.83,1.83,0,0,1-1.693-2.521c2.083-5.106,6.46-12.728,15.48-20.04a69.167,69.167,0,0,1,7.286-5.143,1.829,1.829,0,1,1,1.917,3.116,65.344,65.344,0,0,0-6.9,4.87c-8.417,6.823-12.475,13.87-14.4,18.579A1.83,1.83,0,0,1,1743.855,2092.214Z" transform="translate(-1742.026 -2064.239)" fill="#5b5eac"/>
    </g>
    <g id="Group_377" data-name="Group 377" transform="translate(958.852 270.983)">
      <g id="Group_376" data-name="Group 376" transform="translate(0 0)">
        <g id="Group_375" data-name="Group 375">
          <g id="Group_372" data-name="Group 372" transform="translate(6.279 16.514)">
            <path id="Path_910" data-name="Path 910" d="M2104.459,2215.867a1.842,1.842,0,0,1-.442-.054l-.072-.018a1.829,1.829,0,1,1,.9-3.546l.053.013a1.83,1.83,0,0,1-.439,3.605Z" transform="translate(-2102.566 -2212.192)" fill="#ffa028"/>
          </g>
          <g id="Group_373" data-name="Group 373" transform="translate(3.306)">
            <path id="Path_911" data-name="Path 911" d="M2060.1,1932.708a1.83,1.83,0,0,1-.954-3.392l.091-.056a1.829,1.829,0,0,1,1.95,3.1l-.136.085A1.821,1.821,0,0,1,2060.1,1932.708Zm3.852-5.385a1.831,1.831,0,0,1-1.788-2.224c.008-.034.015-.068.021-.1a1.83,1.83,0,0,1,3.585.731c-.01.053-.022.106-.033.159A1.83,1.83,0,0,1,2063.948,1927.322Zm-1.217-6.509a1.827,1.827,0,0,1-1.524-.815l-.058-.085a1.829,1.829,0,1,1,3.011-2.079l.092.135a1.83,1.83,0,0,1-1.521,2.844Zm-12.1-2.071a1.83,1.83,0,0,1-1.1-3.292l.132-.1a1.829,1.829,0,0,1,2.151,2.96l-.083.061A1.823,1.823,0,0,1,2050.633,1918.743Zm6.562-1.559a1.838,1.838,0,0,1-.325-.029l-.1-.018a1.829,1.829,0,0,1,.59-3.611l.159.027a1.83,1.83,0,0,1-.32,3.63Z" transform="translate(-2048.802 -1913.502)" fill="#ffa028"/>
          </g>
          <g id="Group_374" data-name="Group 374" transform="translate(0 7.201)">
            <path id="Path_912" data-name="Path 912" d="M1990.835,2047.465a1.849,1.849,0,0,1-.234-.015,1.83,1.83,0,0,1-1.583-2.046c0-.028.007-.056.011-.083a1.829,1.829,0,0,1,3.624.5l-.006.046A1.83,1.83,0,0,1,1990.835,2047.465Z" transform="translate(-1989.003 -2043.741)" fill="#ffa028"/>
          </g>
        </g>
      </g>
    </g>
    <g id="Group_383" data-name="Group 383" transform="translate(950.511 262.626)">
      <g id="Group_382" data-name="Group 382" transform="translate(0 0)">
        <g id="Group_381" data-name="Group 381">
          <g id="Group_378" data-name="Group 378" transform="translate(8.095 31.101)">
            <path id="Path_913" data-name="Path 913" d="M1986.433,2328.543a1.815,1.815,0,0,1-.935-.259l-.058-.034a1.829,1.829,0,0,1,1.881-3.138l.051.03a1.83,1.83,0,0,1-.939,3.4Z" transform="translate(-1984.551 -2324.85)" fill="#ffa028"/>
          </g>
          <g id="Group_379" data-name="Group 379">
            <path id="Path_914" data-name="Path 914" d="M1854.362,1799.322a1.825,1.825,0,0,1-.256-.018l-.141-.02a1.83,1.83,0,0,1,.531-3.62l.117.017a1.83,1.83,0,0,1-.252,3.642Zm6.476-.358a1.83,1.83,0,0,1-.453-3.6l.115-.03a1.83,1.83,0,1,1,.932,3.538l-.138.036A1.833,1.833,0,0,1,1860.838,1798.964Zm5.963-2.875a1.83,1.83,0,0,1-1.1-3.289l.092-.07a1.829,1.829,0,1,1,2.229,2.9l-.115.088A1.823,1.823,0,0,1,1866.8,1796.089Zm4.389-4.947a1.83,1.83,0,0,1-1.579-2.75l.058-.1a1.829,1.829,0,1,1,3.177,1.814l-.072.126A1.829,1.829,0,0,1,1871.189,1791.142Zm2.136-6.262a1.855,1.855,0,0,1-.242-.016,1.83,1.83,0,0,1-1.574-2.053l.015-.113a1.829,1.829,0,1,1,3.631.447l-.019.146A1.829,1.829,0,0,1,1873.326,1784.88Zm-33.363-3.717c-.056,0-.113,0-.17-.008a1.829,1.829,0,0,1-1.653-1.99q.007-.072.014-.144a1.829,1.829,0,0,1,3.64.365c0,.039-.008.077-.011.116A1.83,1.83,0,0,1,1839.963,1781.163Zm32.916-2.885a1.83,1.83,0,0,1-1.764-1.348l-.032-.113a1.83,1.83,0,0,1,3.522-.991c.013.047.026.093.039.14a1.831,1.831,0,0,1-1.766,2.312Zm-31.034-3.457a1.83,1.83,0,0,1-1.614-2.688l.068-.127a1.829,1.829,0,0,1,3.218,1.741l-.055.1A1.83,1.83,0,0,1,1841.844,1774.822Zm28.069-2.457a1.826,1.826,0,0,1-1.443-.7l-.073-.092a1.83,1.83,0,0,1,2.867-2.273l.089.113a1.83,1.83,0,0,1-1.441,2.956Zm-23.872-2.657a1.829,1.829,0,0,1-1.159-3.245l.111-.091a1.83,1.83,0,0,1,2.3,2.848l-.092.074A1.821,1.821,0,0,1,1846.042,1769.707Zm18.854-1.656a1.825,1.825,0,0,1-.894-.234l-.1-.057a1.83,1.83,0,0,1,1.77-3.2l.124.069a1.83,1.83,0,0,1-.9,3.425Zm-13.013-1.448a1.83,1.83,0,0,1-.525-3.583l.142-.042a1.829,1.829,0,1,1,1.018,3.515l-.109.032A1.828,1.828,0,0,1,1851.882,1766.6Zm6.722-.585a1.846,1.846,0,0,1-.213-.012l-.114-.012a1.83,1.83,0,0,1,.391-3.638l.145.016a1.829,1.829,0,0,1-.208,3.647Z" transform="translate(-1838.131 -1762.344)" fill="#ffa028"/>
          </g>
          <g id="Group_380" data-name="Group 380" transform="translate(0.679 21.665)">
            <path id="Path_915" data-name="Path 915" d="M1852.264,2157.907a1.83,1.83,0,0,1-1.743-1.277l-.023-.073a1.83,1.83,0,1,1,3.495-1.084l.016.052a1.831,1.831,0,0,1-1.745,2.383Z" transform="translate(-1850.415 -2154.185)" fill="#ffa028"/>
          </g>
        </g>
      </g>
    </g>
  </g>
</svg>
