<svg xmlns="http://www.w3.org/2000/svg" width="28.269" height="18.846" viewBox="0 0 28.269 18.846">
  <g id="Group_3132" data-name="Group 3132" transform="translate(-67.865 -22)">
    <path id="Path_18075" data-name="Path 18075" d="M1.346,0H16.154a1.346,1.346,0,1,1,0,2.692H1.346A1.346,1.346,0,0,1,1.346,0Z" transform="translate(73.25 27.385)" fill="#9395c1" opacity="0.75"/>
    <path id="Path_18080" data-name="Path 18080" d="M1.346,0A1.346,1.346,0,1,1,0,1.346,1.346,1.346,0,0,1,1.346,0Z" transform="translate(67.865 27.385)" fill="#9395c1" opacity="0.75"/>
    <path id="Path_18076" data-name="Path 18076" d="M1.346,0h9.423a1.346,1.346,0,0,1,0,2.692H1.346A1.346,1.346,0,0,1,1.346,0Z" transform="translate(73.25 32.769)" fill="#9395c1" opacity="0.5"/>
    <path id="Path_18079" data-name="Path 18079" d="M1.346,0A1.346,1.346,0,1,1,0,1.346,1.346,1.346,0,0,1,1.346,0Z" transform="translate(67.865 32.769)" fill="#9395c1" opacity="0.5"/>
    <path id="Path_18077" data-name="Path 18077" d="M1.346,0H5.385a1.346,1.346,0,1,1,0,2.692H1.346A1.346,1.346,0,0,1,1.346,0Z" transform="translate(73.25 38.154)" fill="#9395c1" opacity="0.25"/>
    <path id="Path_18078" data-name="Path 18078" d="M1.346,0A1.346,1.346,0,1,1,0,1.346,1.346,1.346,0,0,1,1.346,0Z" transform="translate(67.865 38.154)" fill="#9395c1" opacity="0.25"/>
    <path id="Path_18074" data-name="Path 18074" d="M1.346,0H21.538a1.346,1.346,0,1,1,0,2.692H1.346A1.346,1.346,0,0,1,1.346,0Z" transform="translate(73.25 22)" fill="#9395c1"/>
    <path id="Path_18081" data-name="Path 18081" d="M1.346,0A1.346,1.346,0,1,1,0,1.346,1.346,1.346,0,0,1,1.346,0Z" transform="translate(67.865 22)" fill="#9395c1"/>
  </g>
</svg>
