<svg width="171" height="31" viewBox="0 0 171 31" fill="none" xmlns="http://www.w3.org/2000/svg">
<g clip-path="url(#clip0_1_2)">
<path d="M62.967 17.594C63.1804 16.8345 63.2151 16.0359 63.0682 15.2608C62.9213 14.4857 62.597 13.7552 62.1206 13.1264C61.6441 12.4976 61.0285 11.9877 60.322 11.6367C59.6156 11.2856 58.8374 11.1029 58.0485 11.1029C57.2596 11.1029 56.4814 11.2856 55.775 11.6367C55.0685 11.9877 54.4529 12.4976 53.9765 13.1264C53.5 13.7552 53.1757 14.4857 53.0288 15.2608C52.8819 16.0359 52.9166 16.8345 53.13 17.594H62.967Z" fill="#FCB646"/>
<path d="M170.247 30.568H148.319C148.228 30.568 148.14 30.5318 148.075 30.4673C148.011 30.4028 147.974 30.3153 147.974 30.224V17.945C147.974 17.8535 148.01 17.7657 148.075 17.701C148.14 17.6363 148.228 17.6 148.319 17.6H157.276C157.321 17.6 157.366 17.5911 157.408 17.5738C157.449 17.5565 157.487 17.5312 157.519 17.4992C157.551 17.4673 157.577 17.4294 157.594 17.3876C157.611 17.3459 157.62 17.3012 157.62 17.256V13.329C157.62 13.2837 157.611 13.2389 157.594 13.197C157.577 13.1552 157.552 13.1172 157.52 13.0851C157.488 13.0531 157.45 13.0276 157.408 13.0103C157.366 12.9929 157.321 12.984 157.276 12.984H143.688C143.597 12.9843 143.509 13.0207 143.445 13.0854C143.38 13.1501 143.344 13.2377 143.344 13.329V30.114C143.344 30.2052 143.308 30.2927 143.243 30.3573C143.179 30.4218 143.091 30.458 143 30.458H130.718C130.627 30.458 130.539 30.4218 130.474 30.3573C130.41 30.2928 130.373 30.2053 130.373 30.114V0.355007C130.373 0.263681 130.41 0.176174 130.474 0.111691C130.539 0.0472066 130.627 0.0109974 130.718 0.0109978H170.247C170.338 0.0109978 170.426 0.047239 170.49 0.111752C170.555 0.176264 170.591 0.263773 170.591 0.355007V30.224C170.591 30.3152 170.555 30.4027 170.49 30.4673C170.426 30.5318 170.338 30.568 170.247 30.568Z" fill="white"/>
<path d="M126.546 30.568H86.983C86.896 30.568 86.8126 30.5335 86.7511 30.4719C86.6896 30.4104 86.655 30.327 86.655 30.24V0.328003C86.655 0.241012 86.6896 0.157581 86.7511 0.0960693C86.8126 0.0345574 86.896 0 86.983 0H99.302C99.3889 0.000263765 99.4722 0.0349044 99.5336 0.0963593C99.5951 0.157814 99.6297 0.241093 99.63 0.328003V17.269C99.6299 17.312 99.6382 17.3547 99.6546 17.3945C99.671 17.4342 99.6951 17.4704 99.7254 17.5009C99.7558 17.5313 99.7919 17.5555 99.8316 17.572C99.8714 17.5885 99.914 17.597 99.957 17.597H113.578C113.621 17.5971 113.664 17.5887 113.704 17.5723C113.744 17.5559 113.78 17.5317 113.81 17.5012C113.841 17.4708 113.865 17.4345 113.881 17.3947C113.898 17.3548 113.906 17.3121 113.906 17.269V13.304C113.906 13.2609 113.898 13.2183 113.881 13.1785C113.865 13.1387 113.84 13.1025 113.81 13.0721C113.779 13.0416 113.743 13.0175 113.704 13.001C113.664 12.9845 113.621 12.976 113.578 12.976H104.578C104.491 12.976 104.408 12.9414 104.346 12.8799C104.285 12.8184 104.25 12.735 104.25 12.648V0.332001C104.25 0.24501 104.285 0.161579 104.346 0.100067C104.408 0.0385552 104.491 0.0039978 104.578 0.0039978L126.555 -0.000991821C126.642 -0.000727132 126.725 0.0339452 126.786 0.0954285C126.848 0.156912 126.882 0.240178 126.882 0.326996V30.237C126.882 30.3238 126.848 30.4071 126.786 30.4686C126.725 30.5301 126.642 30.5647 126.555 30.565" fill="white"/>
<path d="M39.806 30.568H0.306001C0.265386 30.5681 0.225142 30.5602 0.187593 30.5447C0.150044 30.5293 0.115941 30.5065 0.0872209 30.4778C0.0585012 30.4491 0.0357472 30.415 0.0202653 30.3774C0.00478338 30.3399 -0.00312118 30.2996 -0.00298909 30.259V17.906C-0.00298909 17.8654 0.00501125 17.8252 0.02054 17.7878C0.0360687 17.7503 0.0588327 17.7162 0.087526 17.6875C0.116219 17.6588 0.150287 17.6361 0.187776 17.6205C0.225266 17.605 0.265423 17.597 0.306001 17.597H4.60602C4.64655 17.5971 4.6867 17.5893 4.72418 17.5738C4.76167 17.5584 4.79573 17.5358 4.82443 17.5071C4.85314 17.4785 4.87594 17.4445 4.89148 17.4071C4.90702 17.3697 4.91501 17.3295 4.91501 17.289V13.283C4.91501 13.2425 4.90702 13.2023 4.89148 13.1649C4.87594 13.1275 4.85314 13.0935 4.82443 13.0649C4.79573 13.0362 4.76167 13.0136 4.72418 12.9982C4.6867 12.9827 4.64655 12.9749 4.60602 12.975H0.322023C0.240071 12.975 0.161466 12.9424 0.103517 12.8845C0.0455685 12.8265 0.0130021 12.748 0.0130021 12.666V0.313011C0.0130021 0.231059 0.0455685 0.152454 0.103517 0.0945053C0.161466 0.0365566 0.240071 0.00400543 0.322023 0.00400543H17.581C17.663 0.00400543 17.7416 0.0365566 17.7995 0.0945053C17.8575 0.152454 17.89 0.231059 17.89 0.313011V17.29C17.89 17.3305 17.898 17.3707 17.9135 17.4081C17.9291 17.4455 17.9519 17.4795 17.9806 17.5081C18.0093 17.5368 18.0434 17.5594 18.0808 17.5749C18.1183 17.5903 18.1585 17.5981 18.199 17.598H26.836C26.8765 17.5981 26.9167 17.5903 26.9542 17.5749C26.9917 17.5594 27.0257 17.5368 27.0544 17.5081C27.0832 17.4795 27.1059 17.4455 27.1215 17.4081C27.137 17.3707 27.145 17.3305 27.145 17.29V13.284C27.145 13.2435 27.137 13.2033 27.1215 13.1659C27.1059 13.1285 27.0832 13.0945 27.0544 13.0659C27.0257 13.0373 26.9917 13.0146 26.9542 12.9992C26.9167 12.9837 26.8765 12.9759 26.836 12.976H22.822C22.7815 12.976 22.7414 12.968 22.7039 12.9525C22.6665 12.9369 22.6325 12.9142 22.6039 12.8854C22.5752 12.8567 22.5526 12.8227 22.5372 12.7852C22.5218 12.7477 22.5139 12.7075 22.514 12.667V0.313011C22.514 0.231232 22.5464 0.152776 22.6042 0.0948563C22.6619 0.0369362 22.7402 0.00427009 22.822 0.00400543H39.803C39.8435 0.00400522 39.8837 0.0120088 39.9211 0.0275497C39.9585 0.0430907 39.9925 0.0658599 40.0211 0.0945663C40.0498 0.123273 40.0724 0.157348 40.0879 0.194832C40.1033 0.232316 40.1112 0.27248 40.111 0.313011V30.26C40.1112 30.3005 40.1033 30.3407 40.0879 30.3782C40.0724 30.4157 40.0498 30.4497 40.0211 30.4784C39.9925 30.5072 39.9585 30.5299 39.9211 30.5455C39.8837 30.561 39.8435 30.569 39.803 30.569" fill="white"/>
<path d="M79.023 17.196V0.411007C79.023 0.30492 78.9809 0.203169 78.9059 0.128155C78.8309 0.0531402 78.7291 0.0109978 78.623 0.0109978H44.104C43.9979 0.0109978 43.8962 0.0531402 43.8212 0.128155C43.7462 0.203169 43.704 0.30492 43.704 0.411007V12.577C43.704 12.6831 43.7462 12.7848 43.8212 12.8598C43.8962 12.9349 43.9979 12.977 44.104 12.977H49.952C50.0297 12.9766 50.1055 12.9536 50.1704 12.9108C50.2352 12.868 50.2861 12.8073 50.317 12.736C50.8028 11.6627 51.506 10.7018 52.382 9.914C53.4922 8.9029 54.8526 8.20725 56.3223 7.89918C57.7919 7.59111 59.3172 7.68185 60.74 8.162L60.766 8.169C62.6106 8.79697 64.1801 10.0457 65.2066 11.7021C66.233 13.3584 66.6527 15.3197 66.394 17.251C66.3795 17.345 66.332 17.4308 66.26 17.4929C66.1879 17.555 66.0961 17.5895 66.001 17.59H44.101C43.9949 17.59 43.8932 17.6322 43.8182 17.7072C43.7431 17.7822 43.701 17.8839 43.701 17.99V30.16C43.701 30.2661 43.7431 30.3678 43.8182 30.4429C43.8932 30.5179 43.9949 30.56 44.101 30.56H83.228C83.3341 30.56 83.4358 30.5179 83.5108 30.4429C83.5859 30.3678 83.628 30.2661 83.628 30.16V18.001C83.628 17.8949 83.5859 17.7932 83.5108 17.7182C83.4358 17.6432 83.3341 17.601 83.228 17.601H79.421C79.3149 17.601 79.2132 17.5589 79.1382 17.4839C79.0632 17.4088 79.021 17.3071 79.021 17.201" fill="white"/>
</g>
<defs>
<clipPath id="clip0_1_2">
<rect width="170.591" height="30.569" fill="white"/>
</clipPath>
</defs>
</svg>
